<?xml version="1.0" standalone="no"?>
<!DOCTYPE svg PUBLIC "-//W3C//DTD SVG 20010904//EN"
 "http://www.w3.org/TR/2001/REC-SVG-20010904/DTD/svg10.dtd">
<svg version="1.0" xmlns="http://www.w3.org/2000/svg"
 width="1280.000000pt" height="610.000000pt" viewBox="0 0 1280.000000 610.000000"
 preserveAspectRatio="xMidYMid meet">
<metadata>
Created by potrace 1.16, written by Peter Selinger 2001-2019
</metadata>
<g transform="translate(0.000000,610.000000) scale(0.100000,-0.100000)"
fill="#000000" stroke="none">
<path d="M1 3938 c0 -1190 3 -2157 6 -2150 13 32 24 6 22 -54 -2 -50 -5 -64
-15 -60 -10 4 -14 -5 -14 -34 0 -33 3 -40 20 -40 11 0 20 6 21 13 0 6 4 3 9
-8 13 -31 12 -32 -20 -27 l-30 4 0 -100 c0 -71 4 -102 13 -105 9 -4 9 -6 0 -6
-26 -2 -12 -21 15 -21 15 0 34 -5 42 -10 11 -7 7 -10 -17 -10 -38 0 -53 -21
-53 -76 l0 -36 117 7 c64 4 137 10 162 14 l46 7 -53 5 c-28 2 -52 1 -52 -3 0
-5 -15 -8 -32 -8 -26 0 -30 3 -18 11 11 7 5 8 -21 4 -35 -7 -36 -6 -31 24 4
26 9 31 33 31 22 0 29 -5 29 -19 0 -28 10 -31 45 -16 24 11 26 14 10 15 -11 1
-26 2 -32 1 -7 -1 -13 2 -13 6 0 5 25 9 56 9 47 1 53 -1 36 -10 -17 -9 -18
-13 -6 -24 8 -7 14 -9 14 -5 0 5 19 7 43 4 37 -3 39 -5 18 -12 -13 -6 -21 -15
-18 -23 6 -14 -106 -26 -255 -26 l-78 0 0 -84 c0 -47 5 -88 10 -91 6 -3 10
-11 10 -16 0 -6 -4 -7 -10 -4 -6 4 -10 -30 -10 -94 l0 -101 78 5 c42 3 105 7
140 10 34 2 61 1 58 -4 -3 -4 -33 -8 -68 -9 -35 -1 -96 -5 -136 -8 l-72 -6 0
-404 0 -404 620 0 620 1 -4 29 c-2 17 1 30 5 30 5 0 9 -13 9 -29 l0 -28 130
-1 c109 -2 130 1 130 13 0 9 10 15 26 15 15 0 23 -4 19 -11 -4 -6 -13 -8 -21
-5 -8 3 -14 1 -14 -4 0 -15 87 -12 93 3 4 9 6 9 6 0 1 -7 9 -13 19 -13 15 0
15 2 2 11 -12 8 -10 10 10 5 85 -17 103 -18 96 -7 -4 6 -2 11 3 11 6 0 11 -4
11 -10 0 -5 4 -10 9 -10 5 0 11 24 13 53 3 49 2 52 -21 54 -13 0 -49 9 -80 19
-80 26 -33 31 82 9 l89 -18 -7 -36 c-4 -20 -11 -40 -16 -46 -12 -12 -12 -35 0
-35 5 0 12 8 14 17 4 17 5 17 6 1 1 -21 17 -24 24 -5 4 9 8 8 17 -3 9 -11 13
-12 17 -2 2 6 9 9 14 6 19 -11 64 -12 72 0 4 7 10 8 15 1 9 -13 480 -18 587
-7 44 5 85 5 91 1 14 -11 295 -8 288 3 -3 5 17 6 48 3 88 -11 268 -14 263 -5
-3 5 -1 11 5 15 6 3 13 -1 16 -9 5 -12 26 -15 111 -15 94 0 104 2 99 17 -6 16
-5 15 8 -1 11 -15 31 -17 140 -17 82 0 125 4 121 10 -3 6 -17 10 -30 10 -14 0
-25 7 -28 18 -4 16 -5 16 -6 0 -1 -12 -9 -18 -26 -18 -19 0 -25 5 -26 23 -1
16 -2 18 -6 5 -6 -22 -36 -23 -57 -3 -12 12 -13 22 -4 45 11 32 23 38 31 18 4
-10 8 -10 14 -2 6 9 23 9 63 2 30 -5 65 -9 77 -10 19 0 21 -4 16 -49 l-5 -49
56 0 c31 0 56 4 56 10 0 5 16 7 34 5 20 -3 38 0 42 7 5 7 2 8 -7 3 -11 -6 -11
-5 -2 5 9 10 16 8 34 -9 25 -23 49 -28 49 -8 -1 34 -14 56 -43 66 l-32 11 30
-6 c17 -3 84 -14 150 -24 66 -10 162 -28 212 -39 69 -16 128 -21 231 -21 l139
0 56 208 c58 216 83 391 57 407 -8 5 -7 12 4 24 32 35 46 255 39 585 -4 211
-10 303 -17 302 -6 -2 -8 -1 -3 1 4 3 4 10 1 15 -5 7 -2 8 6 3 8 -5 11 -3 8 6
-3 8 -11 13 -17 11 -6 -1 -11 3 -11 9 0 6 6 9 14 6 12 -5 14 2 11 31 -1 20 -3
46 -4 57 -1 11 -5 26 -10 34 -8 12 -12 12 -25 2 -13 -11 -16 -11 -16 3 0 9 7
16 15 16 8 0 15 5 15 10 0 6 -6 10 -14 10 -15 0 -30 45 -20 61 7 12 -15 69
-26 69 -4 0 -10 -7 -14 -15 -3 -8 -13 -15 -23 -14 -16 0 -16 1 2 8 18 7 18 8
-5 12 -15 3 -31 -2 -42 -12 -19 -20 -14 -29 19 -29 13 0 22 -4 18 -10 -3 -5
-12 -7 -20 -3 -9 3 -15 -1 -15 -10 0 -8 6 -18 13 -20 7 -3 5 -6 -5 -6 -10 -1
-18 6 -18 14 0 8 -7 15 -15 15 -8 0 -15 -4 -15 -10 0 -5 5 -10 10 -10 6 0 10
-4 10 -10 0 -19 -28 -10 -33 11 -3 12 -10 19 -14 16 -5 -3 -15 -2 -23 4 -12 7
-10 9 8 9 24 0 31 19 7 21 -8 1 -19 3 -25 4 -5 1 -26 3 -45 4 -37 1 -51 27
-15 27 11 0 20 -4 20 -7 0 -4 14 -7 30 -7 18 1 30 6 30 15 0 9 -7 12 -24 7
-13 -3 -27 -1 -31 5 -3 6 -11 9 -16 6 -5 -4 -9 3 -9 13 0 11 7 22 15 26 8 3
16 18 16 33 1 16 3 21 6 11 5 -21 57 -18 61 4 2 12 -4 14 -23 11 -22 -5 -25
-2 -25 26 0 23 5 31 18 31 11 0 13 3 5 8 -9 5 -11 36 -8 107 3 55 5 121 5 147
0 45 1 46 30 44 19 -1 30 3 30 11 0 12 -22 104 -26 111 -1 2 -22 -11 -45 -28
-54 -39 -82 -36 -183 20 -69 38 -110 80 -184 187 -12 18 -45 99 -72 179 -27
81 -58 153 -67 161 -10 8 -12 11 -4 7 11 -6 13 0 8 33 -4 22 -14 93 -22 159
-8 65 -17 124 -19 129 -2 6 1 87 5 180 7 134 14 191 36 271 26 99 28 101 67
122 23 11 65 26 95 32 l55 11 53 -53 c33 -32 53 -46 53 -37 0 9 -20 126 -45
260 -71 381 -86 541 -74 785 15 311 52 521 135 764 65 189 69 198 146 302 43
58 85 112 93 118 8 7 15 16 15 21 0 5 -1013 9 -2360 9 l-2360 0 1 -2162z
m2003 -771 c14 -21 26 -40 26 -42 0 -3 -15 -6 -32 -7 l-33 -1 32 -4 33 -4 -21
-22 c-19 -21 -21 -21 -30 -4 -8 13 -14 15 -30 7 -14 -8 -19 -7 -19 1 0 8 -4 8
-15 -1 -13 -11 -14 -10 -9 4 3 9 10 16 16 16 5 0 6 5 3 10 -4 6 -1 17 5 25 11
13 7 15 -24 15 -21 0 -46 -5 -57 -10 -13 -7 -19 -7 -19 0 0 5 -16 10 -35 10
-24 0 -35 5 -35 15 0 18 -6 16 94 21 45 2 85 -1 91 -6 9 -8 15 -6 19 6 8 20 7
20 40 -29z m1096 -227 c13 -9 13 -11 0 -21 -8 -6 -11 -12 -5 -15 6 -2 9 -31 7
-64 -1 -36 2 -60 8 -60 6 0 10 32 10 78 0 53 3 72 10 62 8 -13 10 -13 10 2 0
9 -6 18 -12 21 -7 3 -4 5 8 4 17 -1 20 -6 17 -34 -3 -26 0 -33 14 -34 17 -1
17 -2 1 -6 -10 -2 -18 -9 -18 -15 0 -5 7 -8 15 -5 8 4 17 2 20 -3 4 -6 -3 -10
-14 -10 -12 0 -21 -5 -21 -11 0 -6 9 -9 20 -6 19 5 20 0 20 -124 l0 -129 88
-2 87 -2 -87 -3 c-69 -3 -88 -7 -88 -18 0 -13 14 -14 85 -9 61 5 85 4 85 -5 0
-7 -23 -11 -67 -11 -38 0 -92 -3 -120 -6 l-53 -7 0 67 c0 41 -4 66 -11 66 -6
0 -9 -6 -6 -14 3 -8 2 -29 -3 -46 -5 -17 -6 -28 -2 -26 4 2 7 -22 7 -54 l0
-58 -38 -4 -38 -4 3 66 c2 43 7 65 16 66 27 3 30 4 35 17 5 15 -20 16 -41 3
-10 -6 -13 21 -11 132 1 116 3 140 15 135 8 -3 14 0 14 6 0 6 -8 12 -17 12
-17 1 -17 2 0 6 10 3 17 14 17 29 0 13 5 24 11 24 5 0 7 5 4 10 -8 13 6 13 25
0z m-1109 -238 c-13 -25 -4 -34 22 -21 14 8 18 8 13 0 -4 -6 -4 -11 -1 -11 4
0 16 5 27 11 11 6 18 7 14 1 -6 -10 18 -14 97 -15 26 0 47 -5 47 -10 0 -5 -9
-7 -20 -4 -10 3 -27 -1 -37 -9 -23 -17 -55 -18 -72 -1 -11 10 -13 10 -7 0 5
-8 1 -13 -9 -13 -9 0 -13 5 -10 10 3 6 -3 10 -13 10 -11 0 -35 3 -53 6 -32 6
-33 6 -14 -9 20 -16 20 -16 -2 -17 -14 0 -23 6 -23 15 0 9 -9 15 -22 15 -19 0
-20 -2 -8 -10 12 -8 12 -10 -5 -10 -11 0 -30 -3 -42 -6 -17 -5 -23 -2 -23 9 0
10 -11 17 -27 19 -50 6 -37 26 17 24 42 -1 50 2 50 17 0 16 7 18 50 15 40 -2
50 0 49 12 -2 26 4 36 8 13 2 -12 0 -31 -6 -41z m2046 -314 c5 26 18 28 39 7
9 -8 20 -15 25 -15 5 0 9 7 9 15 0 11 12 15 51 15 27 0 48 -4 45 -9 -3 -5 -15
-7 -25 -4 -10 3 -21 1 -24 -4 -3 -4 29 -7 71 -5 44 2 80 9 84 15 6 9 8 8 8 -2
0 -10 11 -12 46 -6 41 6 46 5 40 -10 -3 -9 -6 -29 -6 -44 0 -22 -4 -27 -22
-27 -13 1 -28 7 -34 15 -9 12 -21 12 -65 4 -56 -12 -74 -9 -49 7 18 12 9 13
-60 11 -84 -3 -100 -6 -100 -18 0 -9 -21 -12 -70 -12 -38 1 -70 4 -71 7 0 4
-2 14 -4 23 -5 28 12 42 49 41 22 -1 36 3 37 11 0 7 5 1 11 -13 11 -25 11 -25
15 -2z m308 -75 c9 -23 13 -50 19 -150 3 -45 10 -93 15 -106 6 -14 7 -28 4
-31 -4 -3 -33 -6 -65 -6 l-59 0 6 33 c3 17 8 75 11 127 3 52 10 107 16 123 12
31 42 36 53 10z m84 -336 c5 -5 6 4 3 20 -2 15 -2 26 1 23 4 -4 8 -22 11 -42
3 -28 1 -38 -12 -41 -10 -3 -7 -5 9 -6 29 -1 49 15 49 41 0 10 5 18 11 18 7 0
9 -10 5 -25 -5 -20 -3 -25 13 -25 11 0 27 10 37 23 12 16 15 17 10 4 -3 -10
-6 -24 -6 -31 0 -9 -9 -12 -25 -8 -31 5 -32 -7 -5 -66 11 -24 24 -41 30 -37 5
3 10 2 10 -3 0 -5 10 -8 22 -8 15 1 24 -6 26 -19 3 -11 9 -23 16 -28 6 -4 -11
-5 -39 -3 -27 2 -60 4 -72 5 -13 1 -23 5 -23 10 0 4 18 7 40 5 22 -2 40 1 40
7 0 5 -11 9 -25 9 -18 0 -25 5 -25 20 0 11 -9 37 -20 57 -19 36 -20 36 -20 11
0 -16 -12 -40 -30 -60 -16 -18 -30 -40 -30 -50 0 -10 -4 -18 -10 -18 -5 0 -10
-8 -10 -19 0 -20 49 -37 51 -17 0 7 3 6 6 -1 6 -15 33 -17 33 -3 0 6 -5 10
-11 10 -5 0 -7 5 -3 12 5 8 11 5 17 -10 5 -11 19 -22 31 -24 26 -4 33 -33 10
-42 -12 -4 -15 -2 -10 9 3 9 0 15 -8 15 -7 0 -17 -15 -21 -32 l-8 -33 -7 35
-7 35 -2 -37 c-1 -50 -27 -41 -42 14 -13 48 -18 45 -21 -10 -1 -46 -12 -55
-23 -19 -6 19 -8 19 -12 5 -8 -31 -23 -19 -23 18 0 19 -4 33 -9 30 -5 -3 -7
-15 -4 -26 4 -14 0 -20 -11 -20 -10 0 -14 -5 -11 -10 4 -6 2 -16 -3 -23 -5 -7
-13 -23 -16 -37 -6 -18 -5 -21 3 -10 5 8 13 11 17 7 12 -11 -1 -18 -42 -22
-35 -3 -37 -2 -20 10 10 8 15 19 10 26 -4 7 -3 10 3 6 6 -4 15 5 21 18 10 22
9 25 -11 26 -21 1 -21 1 2 8 42 12 37 31 -8 31 -30 0 -41 4 -41 15 0 8 7 15
15 15 8 0 15 -6 15 -12 0 -9 4 -8 10 2 9 13 11 13 20 0 8 -13 10 -12 11 5 0
20 1 20 8 1 7 -19 8 -18 15 5 4 13 9 19 12 13 7 -15 54 -5 54 12 0 19 -49 18
-74 -1 -17 -13 -22 -13 -40 3 -10 9 -16 11 -12 4 7 -11 -4 -12 -50 -8 -43 3
-54 2 -41 -5 9 -6 15 -14 12 -19 -3 -4 4 -6 15 -3 14 4 20 0 20 -11 0 -13 -4
-14 -27 -5 -42 17 -86 20 -94 8 -4 -6 -12 2 -20 20 -10 22 -20 31 -34 30 -45
-3 -53 1 -49 24 l5 22 -10 -22 c-14 -31 -21 -29 -21 8 0 16 4 28 8 25 12 -7
33 89 26 111 -5 13 -1 11 10 -4 18 -24 76 -33 76 -12 0 5 -4 7 -10 4 -5 -3
-10 -2 -10 3 0 5 -2 25 -6 43 l-5 34 15 -32 c21 -45 36 -41 37 10 l1 42 9 -32
c7 -23 16 -33 29 -33 10 0 22 -4 25 -10 3 -5 12 -10 18 -10 9 0 9 2 1 8 -6 4
-14 25 -17 47 -5 29 -4 34 3 18 5 -12 20 -29 34 -38 13 -9 29 -30 35 -47 6
-17 13 -29 16 -26 6 6 -12 70 -23 77 -14 10 -42 60 -41 73 0 7 4 5 8 -6 6 -15
18 -18 69 -18 128 1 122 0 124 25 0 12 3 6 5 -13 3 -19 8 -39 12 -43z m-3855
26 c3 -10 6 -49 8 -88 2 -38 9 -76 16 -83 15 -16 16 -32 2 -32 -5 0 -10 -5
-10 -11 0 -5 5 -7 10 -4 6 3 18 -1 27 -10 14 -14 14 -18 2 -26 -9 -5 -10 -9
-2 -9 6 0 18 7 27 15 13 14 14 11 10 -22 -3 -29 -2 -33 5 -18 8 16 9 13 9 -18
-1 -46 9 -58 28 -32 15 19 15 19 9 -7 -7 -27 3 -35 38 -29 7 1 11 -30 8 -56
-1 -7 3 -13 9 -13 5 0 10 -6 10 -14 0 -23 16 -27 31 -9 12 15 12 16 -3 10 -24
-9 -23 0 2 13 19 10 20 8 16 -24 -5 -43 -13 -56 -31 -56 -7 0 -15 -5 -17 -12
-2 -6 -30 -13 -61 -16 -53 -4 -57 -3 -57 17 0 12 -4 31 -10 41 -8 15 -6 17 10
13 11 -3 20 -9 20 -15 0 -5 6 -3 14 4 8 7 12 17 9 22 -3 4 -1 11 5 15 6 4 -12
8 -41 9 -49 2 -54 0 -71 -29 l-18 -31 23 6 c13 3 18 3 12 0 -7 -3 -13 -14 -13
-25 0 -10 6 -19 13 -19 6 0 4 -5 -6 -11 -10 -6 -24 -8 -32 -5 -8 3 -16 0 -18
-7 -2 -7 -8 -8 -13 -4 -10 9 16 28 28 21 11 -7 10 8 -2 26 -6 10 -10 11 -10 3
0 -9 -7 -10 -25 -3 -17 7 -25 6 -25 -1 0 -6 -7 -8 -16 -5 -11 4 -10 -1 6 -21
14 -18 17 -29 10 -31 -9 -3 -8 -7 1 -13 11 -7 10 -9 -3 -9 -11 0 -18 7 -18 18
0 20 -29 64 -30 45 0 -6 5 -15 10 -18 6 -3 10 -11 10 -16 0 -6 -4 -8 -9 -5 -5
4 -12 0 -15 -6 -3 -9 -9 -7 -20 6 -13 16 -19 17 -28 8 -9 -9 -8 -12 5 -12 10
0 14 -5 11 -15 -4 -8 -11 -12 -18 -8 -14 9 -36 14 -58 14 -10 0 -21 5 -24 11
-5 8 3 9 23 5 29 -6 53 6 53 27 0 6 -5 5 -12 -2 -17 -17 -33 -15 -19 2 10 11
4 13 -36 8 -27 -3 -49 -9 -51 -13 -7 -18 -44 13 -39 32 4 16 0 19 -34 19 -21
0 -39 -4 -39 -9 0 -5 10 -7 21 -4 16 4 20 2 17 -8 -3 -8 -14 -13 -24 -12 -10
2 -29 4 -42 5 -28 3 -48 23 -33 33 6 3 29 7 50 8 31 1 38 4 29 14 -8 10 -4 13
17 13 18 0 26 -4 22 -13 -3 -8 1 -14 9 -14 9 0 12 8 8 22 -5 19 -2 21 25 17
26 -4 31 -1 31 16 0 11 4 22 8 24 4 2 -1 19 -11 38 -17 33 -18 17 -2 -22 5
-13 2 -18 -10 -18 -12 0 -15 5 -11 16 8 20 -4 41 -14 25 -3 -7 -32 -14 -63
-17 l-57 -6 0 30 c0 33 -15 44 -41 31 -14 -7 -18 -2 -23 25 -4 18 -4 42 0 52
5 18 5 18 -6 1 -7 -10 -9 -28 -6 -40 7 -29 -10 -60 -19 -36 -10 27 -1 122 13
127 7 2 10 -2 6 -12 -3 -9 -1 -16 5 -16 6 0 11 6 11 14 0 19 128 30 149 13 12
-9 13 -9 7 1 -10 16 26 16 42 0 7 -7 12 -34 12 -62 0 -47 26 -126 41 -126 4 0
11 5 14 10 4 6 11 7 17 4 6 -4 8 -2 5 4 -4 5 -4 18 -1 27 6 14 10 11 20 -14
12 -29 34 -43 34 -21 0 6 -6 10 -12 10 -9 0 -9 3 1 9 8 5 20 7 28 4 13 -5 17
10 15 57 -1 22 0 22 7 6 7 -19 8 -19 13 1 3 12 1 26 -5 32 -10 10 -8 12 9 10
14 -2 44 58 50 98 5 34 10 43 26 43 10 0 16 5 13 10 -4 6 -11 8 -16 5 -10 -7
-13 98 -2 108 11 12 21 8 27 -10z m1911 -133 c8 0 15 -4 15 -10 0 -15 40 -12
41 3 1 19 15 -24 22 -65 5 -33 3 -39 -16 -43 -19 -3 -43 -2 -79 4 -5 0 -8 6
-8 12 0 6 9 8 20 4 11 -4 20 -2 20 4 0 6 -9 11 -20 11 -11 0 -20 6 -20 13 0 8
-4 7 -10 -3 -9 -13 -10 -13 -10 0 0 13 -2 13 -9 1 -11 -18 -41 -7 -41 15 0 12
-6 15 -22 10 -13 -3 -36 -6 -53 -7 -21 0 -25 -3 -13 -7 14 -6 13 -9 -7 -24
-21 -16 -24 -16 -29 -1 -4 9 -1 20 6 25 10 6 9 8 -3 8 -9 0 -20 -7 -23 -16 -3
-8 -10 -12 -16 -9 -6 4 -10 -8 -10 -29 0 -20 -4 -36 -10 -36 -5 0 -10 5 -10
10 0 6 -4 10 -10 10 -5 0 -10 -7 -10 -15 0 -12 15 -15 68 -16 37 -1 77 0 89 1
17 1 20 -3 16 -19 -3 -12 -9 -21 -14 -21 -5 0 -6 -15 -3 -32 4 -22 3 -29 -4
-20 -6 10 -12 -1 -19 -37 -6 -28 -6 -48 -1 -45 4 3 8 1 8 -5 0 -19 -19 -21
-29 -4 -10 17 -10 17 -11 0 0 -15 -2 -16 -14 -5 -13 11 -13 14 0 24 28 22 14
25 -16 4 -19 -13 -30 -17 -30 -9 0 20 -14 1 -15 -21 -1 -12 5 -21 14 -21 9 -1
1 -4 -18 -8 -28 -5 -35 -11 -36 -31 -2 -14 3 -31 9 -39 9 -12 8 -12 -11 -3
-12 7 -24 17 -26 24 -3 7 -6 4 -7 -7 -1 -18 -1 -19 -11 -2 -13 21 3 52 27 52
9 0 20 10 25 23 5 13 5 22 -1 22 -6 0 -10 -4 -10 -10 0 -5 -7 -10 -15 -10 -8
0 -15 5 -15 10 0 6 -7 10 -15 10 -8 0 -15 -4 -15 -9 0 -6 -9 -8 -20 -6 -11 2
-20 -1 -20 -6 0 -6 -4 -7 -10 -4 -5 3 -10 -1 -10 -10 0 -9 -4 -13 -10 -10 -5
3 -10 17 -10 30 0 13 5 27 10 30 6 3 10 18 9 33 0 26 -1 26 -9 5 -10 -25 -19
-30 -16 -10 1 13 -5 17 -29 17 -9 0 -15 -9 -14 -22 0 -22 1 -22 8 -3 7 18 8
17 13 -7 4 -21 1 -25 -11 -21 -12 3 -11 1 3 -11 22 -18 15 -22 -51 -29 -32 -3
-43 -1 -43 10 0 8 -6 13 -13 11 -8 -2 -26 12 -42 30 -22 27 -26 39 -22 67 4
24 2 34 -6 32 -8 -1 -11 12 -9 41 1 25 -2 42 -9 42 -5 0 -7 5 -4 10 3 6 2 10
-3 10 -5 0 -9 -14 -10 -32 0 -17 -6 -34 -11 -38 -6 -3 -10 -25 -9 -48 2 -49
-8 -65 -20 -32 -6 16 -11 20 -16 11 -4 -6 -2 -18 4 -26 9 -11 9 -15 1 -15 -6
0 -10 -3 -10 -7 3 -20 -2 -27 -10 -14 -8 12 -11 9 -16 -11 -5 -18 -15 -28 -33
-31 -38 -7 -42 -2 -42 58 0 40 -4 54 -16 59 -9 4 -19 4 -22 1 -3 -3 -1 -5 5
-5 5 0 10 -6 10 -12 0 -7 3 -26 6 -43 4 -19 0 -37 -9 -49 -14 -20 -14 -20 -29
0 -13 16 -14 16 -9 2 4 -12 1 -18 -10 -18 -9 0 -16 7 -16 15 0 22 -51 16 -73
-9 l-18 -21 3 25 c3 24 7 25 71 28 37 2 67 7 67 12 0 5 -31 6 -70 3 l-71 -6 2
54 c2 51 -15 99 -33 99 -13 0 -9 -40 5 -42 6 -1 -13 -4 -43 -8 l-55 -7 65 -2
c36 -1 60 -5 53 -7 -7 -3 -9 -12 -6 -20 3 -9 -1 -14 -12 -14 -14 0 -15 -3 -5
-15 10 -12 10 -15 -1 -16 -8 0 -5 -4 6 -9 13 -6 15 -9 5 -9 -13 -1 -13 -2 0
-12 11 -8 12 -12 3 -16 -7 -2 -13 -20 -13 -39 0 -27 -3 -32 -17 -27 -11 4 -12
8 -5 11 7 2 12 10 12 18 0 8 -6 11 -16 7 -14 -5 -15 -3 -4 18 10 17 10 24 1
27 -6 2 -11 10 -11 18 0 8 -7 14 -16 14 -12 0 -14 -4 -7 -12 18 -24 24 -51 10
-45 -8 3 -13 -3 -13 -14 0 -11 3 -19 6 -19 4 0 7 -7 7 -15 0 -11 -10 -15 -35
-13 -22 1 -38 -3 -46 -14 -10 -13 -13 -13 -24 -1 -11 11 -17 11 -28 2 -12 -9
-13 -9 -9 3 5 11 -1 14 -25 13 -20 -1 -30 3 -30 12 0 8 4 11 10 8 5 -3 17 -2
26 3 11 6 13 11 5 16 -6 4 -11 2 -11 -4 0 -6 -5 -8 -10 -5 -6 4 -8 11 -5 16 4
5 1 9 -4 9 -6 0 -11 -4 -11 -10 0 -5 -5 -10 -12 -10 -7 0 -6 6 4 18 18 21 30
62 17 62 -5 0 -9 -9 -9 -20 0 -11 -7 -20 -15 -20 -8 0 -15 7 -15 15 0 8 -4 15
-9 15 -15 0 -3 -63 14 -73 17 -9 11 -27 -10 -27 -7 0 -17 10 -21 23 -11 36
-43 50 -45 20 0 -12 -4 -9 -10 8 -7 18 -20 29 -41 33 -45 9 -98 7 -98 -3 0 -5
-3 -18 -6 -28 -3 -11 1 -8 11 7 10 15 14 18 11 7 -3 -10 -6 -30 -6 -44 0 -22
-3 -24 -27 -18 -36 9 -38 12 -24 28 6 8 9 23 5 33 -5 16 -4 16 5 4 6 -8 11
-13 11 -10 10 63 10 99 0 105 -9 6 -11 -2 -8 -29 3 -23 0 -36 -8 -36 -8 0 -10
12 -7 35 6 42 -18 46 -28 5 -6 -21 -7 -19 -8 12 -1 34 1 37 32 41 27 3 25 4
-13 6 -25 2 -40 5 -34 7 13 6 7 44 -7 44 -5 0 -9 -7 -9 -16 0 -8 -4 -13 -9 -9
-5 3 -8 16 -5 30 4 20 0 24 -28 28 -79 10 112 6 259 -5 144 -11 205 -9 550 11
213 13 390 25 393 26 3 2 4 -14 2 -36 l-4 -39 55 0 55 0 -3 36 c-2 20 -8 41
-13 46 -5 5 -7 -4 -4 -22 6 -39 -6 -39 -19 0 -6 17 -15 30 -21 30 -5 0 -6 -5
-2 -12 4 -7 3 -8 -4 -4 -30 18 -5 26 84 26 61 0 93 4 89 10 -5 8 24 14 55 12
3 0 37 21 75 47 l70 48 52 -29 c29 -15 60 -28 68 -28z m188 -46 c29 3 111 8
182 11 72 3 156 8 188 11 l57 6 -5 -39 c-8 -54 -25 -93 -41 -93 -17 0 -18 -17
-1 -23 10 -4 10 -7 0 -18 -16 -16 -17 -89 -2 -89 7 0 9 10 7 25 -3 14 -1 25 3
25 5 0 9 -7 9 -15 0 -8 9 -15 21 -15 11 0 17 -4 14 -10 -8 -13 19 -18 164 -29
68 -6 126 -13 130 -17 5 -5 -56 -3 -288 10 -13 0 -26 -4 -28 -10 -2 -7 32 -15
99 -21 l103 -11 -100 4 c-107 3 -172 12 -180 24 -2 4 8 5 23 2 25 -5 26 -4 12
13 -8 10 -14 20 -12 22 1 1 2 31 1 66 0 34 -3 55 -6 47 -2 -8 -7 -22 -10 -30
-3 -8 -5 -26 -4 -39 3 -21 0 -23 -26 -16 -15 4 -47 9 -70 12 -34 4 -43 2 -43
-10 0 -9 -5 -19 -12 -23 -8 -5 -9 -2 -5 9 3 9 2 19 -3 22 -6 4 -10 -3 -10 -14
0 -12 -4 -21 -10 -21 -20 0 -10 47 13 58 14 7 17 11 7 11 -13 1 -15 13 -12 72
4 57 2 71 -9 67 -9 -3 -15 -24 -17 -61 -2 -31 -7 -57 -13 -57 -5 0 -7 -11 -3
-25 4 -16 2 -25 -6 -25 -7 0 -10 -6 -7 -14 7 -18 -12 -36 -37 -35 -16 1 -17 2
-4 6 9 2 19 12 23 21 5 14 4 15 -6 5 -7 -7 -22 -13 -32 -13 -13 0 -17 -5 -13
-15 3 -8 3 -15 0 -15 -3 0 -12 7 -20 15 -9 8 -11 15 -5 15 6 0 11 4 11 8 0 5
-7 9 -15 9 -8 0 -15 -4 -15 -9 0 -5 -5 -6 -12 -2 -8 5 -9 2 -5 -9 4 -10 2 -17
-5 -17 -6 0 -8 11 -4 30 4 22 2 30 -9 30 -8 0 -15 -8 -16 -17 0 -15 -2 -15 -9
2 -8 19 -9 19 -9 -2 -1 -14 5 -23 14 -23 8 0 15 -7 15 -17 0 -14 -2 -14 -20 2
-14 12 -20 31 -20 58 0 37 -1 39 -26 33 -15 -4 -23 -3 -20 2 7 11 -30 23 -48
16 -6 -2 -13 -14 -13 -27 -1 -12 1 -17 5 -11 4 6 14 13 23 16 12 5 16 1 16
-15 0 -20 -5 -22 -53 -23 -48 -1 -54 1 -48 18 9 29 -15 21 -28 -9 l-12 -28 -4
30 c-2 17 -8 36 -14 43 -7 8 -7 12 1 12 7 0 10 4 7 9 -3 4 33 11 80 15 47 3
94 11 104 16 10 6 37 10 59 10 40 0 41 1 40 33 0 27 -2 29 -9 12 -7 -17 -9
-17 -9 -2 -1 28 -21 19 -21 -10 0 -14 -2 -24 -6 -21 -5 6 -8 95 -3 113 1 6 4
-5 6 -23 l4 -33 52 5z m699 -9 l-4 -55 46 0 46 0 0 36 c0 19 -4 33 -9 29 -5
-3 -13 0 -16 6 -5 7 1 9 16 7 15 -2 23 2 22 10 -2 6 2 12 7 12 6 0 10 -7 10
-15 0 -8 5 -15 10 -15 6 0 10 6 8 14 -2 8 2 15 7 14 6 0 9 -4 8 -9 -2 -5 0 -8
5 -8 23 4 30 -4 27 -33 -6 -73 16 -98 42 -47 l13 24 1 -25 c0 -25 37 -114 38
-95 1 6 6 3 11 -5 8 -13 10 -12 10 3 0 9 -5 17 -10 17 -7 0 -7 6 -1 18 5 9 8
21 8 26 -1 5 10 10 26 12 23 2 27 -1 27 -22 0 -33 26 -94 40 -94 6 0 8 5 5 10
-3 6 -2 10 4 10 16 0 22 -17 8 -23 -7 -3 -24 -4 -38 -2 -13 1 -16 0 -6 -2 17
-4 18 -7 21 -40 2 -29 -42 -29 -67 -1 -13 14 -28 23 -35 20 -7 -2 -18 1 -25 7
-8 6 -29 8 -49 4 -29 -4 -34 -8 -25 -18 7 -7 16 -9 22 -5 6 5 17 5 24 0 8 -4
20 -6 28 -3 7 3 13 0 13 -6 0 -6 -15 -11 -32 -12 -42 -1 -68 -6 -76 -14 -4 -4
14 -6 41 -4 46 4 47 3 47 -23 0 -18 5 -28 14 -28 8 0 17 -4 20 -8 3 -5 -9 -6
-25 -4 -25 4 -30 8 -25 25 3 14 2 17 -6 9 -8 -8 -15 -7 -25 6 -13 16 -13 16
-11 -3 3 -17 -3 -19 -42 -20 -33 0 -44 4 -42 14 2 10 -5 12 -27 8 -36 -7 -50
8 -22 23 13 6 18 16 14 26 -3 9 0 20 7 24 8 5 15 16 16 26 2 9 7 20 13 23 7 5
51 94 51 104 0 1 -21 2 -47 2 -152 1 -256 8 -228 15 l30 8 -35 1 c-20 0 -41
-4 -47 -10 -7 -7 -12 -4 -16 10 -3 12 -1 24 4 27 14 8 1 24 -15 18 -9 -3 -12
-16 -9 -38 4 -29 1 -34 -20 -38 -20 -4 -23 -1 -21 17 1 13 -1 38 -5 56 l-7 34
126 11 c69 6 127 12 130 12 3 1 3 -23 2 -53z m-398 -342 c-1 -15 3 -20 14 -15
11 4 13 2 7 -8 -5 -8 -3 -11 6 -8 7 2 16 15 20 29 7 24 7 24 8 -3 1 -21 6 -28
20 -28 11 0 22 6 24 13 3 6 6 -7 6 -30 1 -24 -3 -43 -9 -43 -5 0 -10 5 -10 10
0 6 -7 10 -15 10 -8 0 -15 -4 -15 -10 0 -5 -13 -10 -29 -10 -17 0 -33 -4 -36
-10 -7 -12 -97 -1 -106 13 -4 5 -9 5 -13 -1 -4 -6 -13 -9 -21 -5 -8 3 -15 0
-15 -6 0 -7 20 -11 50 -11 52 0 56 -5 41 -44 -7 -19 -8 -19 -13 2 -5 19 -10
21 -30 13 -27 -10 -122 -8 -213 4 -33 5 -63 8 -67 7 -17 -4 -8 67 10 78 15 10
15 11 0 6 -12 -4 -18 2 -20 22 -2 22 -7 26 -28 24 -20 -2 -22 -1 -10 7 23 16
291 14 285 -2 -3 -7 -20 -12 -39 -11 -19 1 -48 -1 -64 -5 -25 -5 -28 -8 -16
-19 8 -7 14 -9 14 -4 0 5 25 10 55 11 45 1 54 -1 49 -14 -4 -8 -1 -15 5 -15 6
0 11 9 11 19 0 11 5 23 11 27 8 4 7 9 -2 15 -11 7 -10 9 4 9 19 0 24 -30 5
-31 -23 -1 46 -28 72 -28 23 0 22 1 -10 17 -19 9 -36 25 -38 35 -3 16 3 18 50
15 47 -3 53 -5 52 -25z m-92 -1030 l2 -78 3 78 c5 109 23 97 23 -17 l0 -94
-30 -4 c-16 -3 -30 0 -30 5 0 5 -6 7 -13 4 -30 -11 -40 10 -38 80 1 38 8 71
14 75 7 4 8 8 2 9 -11 1 33 16 53 18 8 1 13 -22 14 -76z"/>
<path d="M4840 6057 c-12 -23 -32 -58 -43 -77 -20 -33 -20 -34 -1 -19 85 70
166 130 170 126 3 -2 -43 -42 -101 -87 -100 -79 -105 -85 -100 -114 3 -17 9
-76 15 -130 6 -55 12 -102 15 -104 2 -2 39 4 83 13 l79 17 17 72 c10 39 32
132 50 208 l33 136 -97 1 -97 0 -23 -42z"/>
<path d="M5070 6095 c0 -7 -79 -341 -87 -370 -3 -11 33 27 81 83 47 57 86 109
86 116 0 7 -11 48 -24 92 -15 52 -29 80 -40 82 -9 2 -16 1 -16 -3z"/>
<path d="M5263 6062 c-12 -20 -34 -56 -48 -80 l-27 -43 154 77 c84 42 155 78
157 80 2 2 -45 4 -105 4 l-109 0 -22 -38z"/>
<path d="M5360 6009 c-96 -51 -177 -93 -179 -95 -5 -5 92 -114 101 -114 5 0 7
4 4 8 -2 4 3 9 12 9 79 9 73 4 140 113 96 157 104 170 100 170 -2 0 -82 -41
-178 -91z"/>
<path d="M5481 5966 c-96 -158 -97 -162 -76 -170 16 -6 285 127 285 141 0 3
-7 2 -16 -1 -15 -6 -15 -4 0 19 9 14 14 25 11 25 -3 0 -1 9 5 20 6 11 15 18
21 15 5 -4 9 -4 9 -1 0 8 -134 86 -147 86 -7 0 -48 -60 -92 -134z"/>
<path d="M6047 6052 c-76 -26 -135 -51 -130 -55 4 -5 0 -5 -10 -1 -9 3 -17 2
-17 -4 0 -11 24 -16 152 -32 48 -7 95 -10 105 -7 11 3 7 5 -11 6 -24 1 -27 3
-16 16 7 8 20 15 29 15 14 0 14 -2 1 -10 -30 -20 0 -9 37 13 44 26 107 33 99
11 -3 -8 -4 -14 -2 -14 3 0 46 60 69 97 6 10 -11 13 -80 12 -77 0 -105 -6
-226 -47z"/>
<path d="M6358 6063 c-14 -21 -30 -48 -37 -61 -12 -23 -12 -23 11 -11 13 6 20
8 16 4 -5 -5 2 -13 15 -20 12 -6 22 -20 21 -32 0 -18 7 -21 75 -27 139 -11
276 -16 263 -10 -10 5 -9 9 4 18 15 11 4 23 -92 94 l-109 82 -71 0 -71 0 -25
-37z"/>
<path d="M6580 6080 c14 -11 60 -45 103 -76 73 -53 80 -56 103 -43 21 11 27
11 33 0 9 -14 21 42 21 102 l0 37 -142 0 -143 0 25 -20z"/>
<path d="M6860 6053 c0 -27 -3 -58 -6 -70 -5 -18 -2 -23 13 -23 11 0 29 -9 41
-20 l22 -21 141 47 141 46 -102 44 c-90 39 -111 44 -176 44 l-74 0 0 -47z"/>
<path d="M7282 6061 l-31 -39 72 -6 c40 -3 158 -8 262 -11 l190 -6 -54 51 -55
50 -176 0 -177 0 -31 -39z"/>
<path d="M7832 6048 c-12 -28 -21 -53 -19 -55 7 -6 310 -93 314 -89 2 2 -22
47 -54 99 l-58 96 -80 0 -80 1 -23 -52z"/>
<path d="M8043 6077 c8 -13 37 -59 63 -101 38 -62 49 -74 55 -59 4 10 23 55
43 101 l35 82 -106 0 -105 0 15 -23z"/>
<path d="M8212 5999 c-23 -56 -40 -105 -37 -109 5 -8 144 -34 151 -28 2 3 -7
56 -21 118 -14 62 -25 115 -25 117 0 1 -6 3 -13 3 -7 0 -32 -46 -55 -101z"/>
<path d="M8320 6096 c0 -7 162 -307 165 -304 1 2 -4 60 -13 130 l-15 128 -43
25 c-36 21 -94 34 -94 21z"/>
<path d="M8440 6091 c0 -5 6 -14 14 -20 8 -7 46 -60 84 -119 60 -94 77 -132
136 -305 58 -170 72 -223 97 -385 18 -118 33 -259 38 -382 11 -228 -1 -362
-73 -793 l-42 -258 51 51 51 50 61 -6 c55 -6 66 -11 101 -48 25 -26 49 -66 65
-111 25 -66 26 -82 28 -260 1 -146 -4 -225 -21 -342 -12 -84 -18 -157 -15
-163 3 -5 1 -10 -5 -10 -7 0 -10 -7 -6 -15 3 -8 1 -15 -3 -15 -5 0 -16 -21
-25 -47 -13 -37 -13 -48 -4 -55 10 -6 9 -8 -3 -8 -10 0 -23 -24 -38 -72 -32
-99 -51 -134 -116 -214 -44 -53 -73 -77 -127 -106 -104 -54 -121 -56 -173 -19
-24 17 -46 31 -48 31 -3 0 -19 -60 -36 -133 -17 -72 -36 -148 -41 -168 -13
-46 -13 -62 0 -54 6 3 10 1 10 -4 0 -6 -6 -11 -14 -11 -8 0 -18 -23 -26 -62
-16 -79 -61 -233 -93 -318 -14 -36 -28 -97 -32 -135 -3 -39 -9 -82 -11 -97 -5
-27 -4 -28 33 -28 l38 0 -25 -20 c-27 -21 -45 -26 -35 -10 3 6 2 10 -4 10 -13
0 -13 -9 -15 -170 -2 -209 13 -408 32 -426 12 -13 13 -17 2 -24 -9 -6 -11 -20
-6 -51 9 -52 11 -74 26 -239 10 -111 29 -196 85 -395 8 -27 19 -69 25 -92 l11
-43 275 0 c201 0 280 3 295 12 17 10 23 10 26 1 4 -10 320 -13 1497 -13 l1492
0 -2 32 c-1 18 -2 43 -3 55 0 13 -12 29 -28 37 l-28 15 30 2 c17 0 52 2 80 4
43 3 47 1 32 -10 -10 -7 -14 -16 -9 -19 5 -3 6 -23 3 -43 -14 -78 -38 -73 324
-73 318 0 325 0 335 21 7 12 18 18 26 15 9 -4 14 2 15 17 l0 22 9 -23 c5 -12
7 -29 4 -37 -4 -10 0 -15 15 -15 20 0 21 4 21 160 0 136 -2 160 -15 160 -8 0
-15 7 -15 15 0 8 7 15 15 15 13 0 15 80 15 659 0 518 -3 660 -12 664 -10 4
-10 6 0 6 7 1 12 15 12 36 0 32 -2 35 -23 30 -15 -4 -28 -1 -36 9 -9 11 -10
16 -2 16 6 0 11 -4 11 -10 0 -5 5 -10 11 -10 22 0 35 27 38 78 l2 52 -38 0
c-21 0 -45 5 -53 11 -12 9 -12 10 4 5 10 -4 34 -4 52 0 l34 6 0 294 c0 283 -1
294 -19 294 -31 0 -51 -11 -51 -27 0 -12 -3 -13 -14 -4 -11 9 -15 9 -19 -1 -4
-8 -6 -7 -6 5 -1 22 -31 23 -31 1 0 -13 -3 -14 -14 -5 -11 9 -15 9 -19 -1 -4
-8 -6 -7 -6 5 -1 9 -5 17 -11 17 -5 0 -7 7 -4 15 4 10 0 15 -14 15 -12 0 -23
4 -26 8 -3 5 7 7 23 4 21 -3 30 2 39 20 10 19 11 20 9 3 -1 -13 5 -20 18 -23
17 -3 18 -1 5 8 -13 10 -13 11 0 7 8 -2 23 0 34 5 12 7 16 7 12 0 -3 -6 -2
-13 4 -17 5 -3 10 -1 10 4 0 6 5 11 11 11 5 0 8 -4 5 -8 -3 -5 8 -9 24 -10 33
-1 50 16 29 29 -10 6 -11 9 -1 9 9 0 12 361 12 1770 l0 1770 -2180 0 c-1244 0
-2180 -4 -2180 -9z m2926 -3601 c84 0 124 4 124 11 0 6 7 8 16 5 9 -4 24 0 33
8 12 11 21 12 31 5 12 -8 11 -9 -5 -7 -12 2 -20 -3 -20 -12 0 -12 -22 -15
-124 -18 l-124 -3 7 -46 c3 -25 6 -59 6 -75 l0 -29 92 3 93 3 14 53 c8 28 18
52 23 52 5 0 6 -4 3 -10 -3 -5 -8 -18 -10 -28 -2 -10 -10 -35 -19 -55 l-15
-37 -92 0 c-77 0 -90 -2 -85 -15 3 -10 -1 -15 -12 -16 -16 -1 -16 -2 1 -6 11
-3 17 -14 17 -33 0 -16 5 -32 10 -35 6 -3 10 -17 10 -31 0 -13 5 -24 11 -24 6
0 9 -9 6 -20 -3 -12 0 -20 8 -20 8 0 11 -8 8 -22 -4 -19 -3 -20 7 -8 9 12 11
9 8 -17 -3 -19 0 -31 6 -30 6 1 10 -6 10 -15 -1 -14 3 -15 23 -7 33 12 33 12
33 -16 0 -22 3 -24 30 -19 25 6 30 3 36 -20 5 -22 11 -26 45 -26 26 0 46 7 59
20 11 11 23 20 27 20 4 0 2 -5 -4 -11 -11 -11 -6 -56 7 -64 4 -3 16 7 25 21
12 19 19 23 25 15 8 -14 23 40 21 74 -1 17 1 16 9 -4 13 -30 21 -22 30 26 l8
38 1 -37 c0 -21 6 -38 11 -38 6 0 10 -5 10 -12 0 -9 -3 -9 -11 -1 -12 12 -51
-19 -62 -50 -4 -10 -11 -16 -16 -12 -5 3 -13 1 -16 -5 -4 -6 -3 -10 2 -9 17 3
33 -1 31 -8 -4 -16 14 -93 23 -99 5 -3 9 -16 9 -30 0 -13 5 -24 10 -24 6 0 10
-9 10 -20 0 -11 4 -20 9 -20 5 0 7 -10 4 -21 -6 -21 -7 -21 -19 -4 -12 16 -13
16 -13 -1 -1 -11 -4 -61 -7 -111 -6 -86 -5 -93 12 -94 16 0 15 -2 -4 -9 -12
-5 -29 -7 -37 -4 -16 6 -21 54 -6 54 4 0 6 12 3 28 l-6 27 -7 -25 c-4 -14 -7
-39 -8 -56 l-1 -32 -61 2 c-51 1 -59 3 -56 18 3 10 -3 27 -13 38 l-19 22 -11
-41 c-6 -23 -15 -41 -21 -41 -6 0 -7 5 -4 11 4 5 4 22 0 37 -5 20 -8 23 -16
11 -5 -7 -9 -26 -9 -41 0 -25 -15 -46 -26 -35 -8 8 -12 87 -5 82 13 -8 32 12
37 38 3 17 0 26 -7 25 -6 -2 -14 3 -16 10 -3 7 3 12 13 12 13 0 15 3 7 11 -6
6 -9 17 -7 24 3 7 1 16 -5 20 -6 3 -11 2 -11 -3 0 -6 -9 -8 -21 -5 -16 4 -17
8 -7 14 10 7 9 9 -4 9 -9 0 -20 -5 -23 -10 -7 -11 -67 -10 -75 1 -3 4 -27 -3
-54 -17 -26 -13 -52 -22 -57 -18 -5 3 -9 1 -9 -5 0 -5 4 -11 9 -13 4 -1 -1
-12 -12 -23 -11 -11 -17 -14 -13 -7 4 6 3 12 -3 12 -5 0 -11 6 -14 13 -2 6 -3
5 -2 -3 1 -8 -9 -26 -23 -40 -18 -18 -23 -20 -19 -7 4 9 2 17 -3 17 -6 0 -10
-7 -10 -15 0 -8 -6 -15 -12 -15 -9 0 -8 -4 2 -10 12 -8 11 -10 -7 -10 -17 0
-21 4 -16 17 4 11 3 14 -5 9 -8 -5 -16 8 -24 38 -6 25 -16 42 -21 39 -8 -5 -5
-27 9 -75 3 -10 1 -18 -5 -18 -6 0 -11 12 -12 28 0 27 0 27 -10 4 -13 -33 -33
-22 -37 21 -3 30 1 38 22 49 24 13 24 13 6 35 -14 18 -19 19 -23 9 -4 -9 -14
-12 -28 -9 -14 4 -20 2 -15 -5 3 -6 -1 -17 -9 -25 -21 -21 -19 -27 8 -27 17 0
22 -6 24 -30 2 -24 -2 -30 -18 -30 -14 0 -19 6 -17 19 2 11 -7 27 -21 38 l-24
20 46 46 c44 43 47 44 41 19 -4 -23 -4 -24 6 -9 7 10 9 25 6 33 -3 8 1 14 9
14 8 0 15 7 15 15 0 8 8 15 18 15 14 0 15 2 2 10 -9 6 -10 10 -3 10 6 0 13 10
16 23 3 19 5 18 12 -10 4 -18 15 -34 24 -36 9 -3 -1 -5 -21 -6 -21 0 -38 -5
-38 -10 0 -5 9 -7 20 -4 14 4 23 -2 31 -21 9 -19 20 -26 40 -26 18 0 35 -9 48
-25 18 -24 20 -25 30 -8 6 10 11 13 11 8 0 -13 40 -17 40 -4 0 5 -4 9 -10 9
-5 0 -7 7 -3 16 3 9 9 12 14 7 5 -5 24 -7 42 -5 30 3 33 7 29 28 -2 13 -10 29
-18 35 -8 6 -14 20 -14 30 0 11 -7 19 -15 19 -19 0 -39 36 -25 45 6 4 0 25
-17 55 -30 53 -64 69 -85 41 -12 -14 -11 -14 5 -2 15 12 17 11 17 -3 0 -10 4
-14 10 -11 5 3 8 0 5 -7 -6 -15 62 -128 76 -128 6 0 8 -4 4 -9 -3 -5 -1 -12 5
-16 5 -3 10 -11 10 -17 0 -6 -8 -4 -18 5 -24 22 -89 23 -89 2 0 -8 4 -15 8
-15 4 0 10 -7 13 -16 3 -8 2 -12 -4 -9 -6 3 -10 1 -10 -5 0 -6 6 -10 13 -9 24
3 37 -1 37 -12 0 -6 -12 -9 -27 -7 -22 2 -28 8 -28 28 0 18 -6 25 -20 25 -16
0 -20 7 -20 31 0 39 -46 109 -73 111 -21 2 -47 -43 -47 -82 0 -20 -3 -20 -60
-10 -11 2 -30 4 -42 4 -13 1 -23 4 -23 9 0 4 21 6 47 4 46 -3 49 -1 71 34 13
20 24 48 25 63 2 25 0 26 -46 26 -36 0 -47 4 -47 16 0 8 -6 21 -12 29 -7 7 0
4 16 -8 18 -14 43 -22 69 -22 22 0 37 -3 34 -6 -8 -9 11 -44 23 -44 6 0 10 5
10 11 0 5 -5 7 -11 3 -8 -4 -8 -1 -2 12 15 29 1 67 -27 75 -18 5 -20 8 -7 9 9
1 22 4 27 5 6 1 15 3 21 4 5 0 -8 27 -31 59 -31 43 -48 58 -72 62 -22 4 -33
12 -39 30 l-9 25 16 -22 c21 -30 58 -32 49 -3 -3 11 -2 20 4 20 5 0 15 -16 21
-35 6 -19 15 -35 20 -35 4 0 13 -13 20 -29 6 -16 23 -39 36 -52 l25 -23 -22
-12 c-21 -11 -20 -12 17 -18 34 -7 41 -5 61 19 13 14 27 24 32 21 5 -3 14 0
20 8 9 11 7 15 -9 19 -11 3 -20 1 -20 -5 0 -5 -4 -7 -8 -4 -4 2 -14 -9 -21
-25 -13 -30 -31 -39 -31 -16 0 6 -7 24 -14 40 -18 33 -11 35 16 5 15 -18 21
-20 25 -9 3 7 14 22 24 32 10 10 21 34 25 53 3 20 10 36 15 36 5 0 9 -4 9 -8
0 -5 22 -8 49 -8 41 0 48 3 39 14 -7 8 -22 12 -37 9 -35 -7 -51 2 -50 27 1 20
2 20 7 1 l5 -20 8 20 c6 17 8 17 8 3 1 -19 21 -26 21 -8 0 13 27 13 33 0 3 -6
4 -5 3 2 -1 7 -12 17 -24 23 -12 5 -22 17 -23 25 0 10 -3 9 -9 -5 -8 -18 -9
-17 -9 7 -1 19 -7 28 -23 31 -20 4 -19 4 5 6 15 0 27 3 27 5 0 2 3 11 6 20 5
13 -2 16 -43 16 -27 0 -54 -5 -61 -12 -6 -6 -15 -9 -19 -5 -3 4 2 14 13 22 10
8 16 15 13 15 -4 0 -1 27 6 60 12 56 11 60 -6 60 -18 0 -22 -8 -35 -70 -7 -35
-19 -50 -41 -50 -10 0 -10 6 -1 26 11 23 13 24 18 8 5 -13 9 -7 13 21 4 26 2
42 -5 47 -17 10 -36 -9 -41 -40 -2 -15 -3 -1 -3 30 1 45 3 55 12 43 18 -24 54
-19 54 7 0 17 3 19 12 10 23 -23 41 -14 36 17 l-4 30 24 -20 c21 -16 41 -19
148 -19z m301 -80 c-3 -11 -2 -20 2 -20 7 0 31 -92 26 -98 -2 -2 -9 14 -16 37
-16 55 -30 52 -28 -5 2 -34 8 -48 23 -56 11 -6 29 -19 40 -29 19 -18 36 -23
65 -20 7 2 10 -2 7 -7 -3 -5 1 -15 9 -22 23 -19 8 -30 -38 -29 l-42 1 34 12
34 12 -36 21 c-26 16 -45 20 -76 16 -22 -3 -38 -10 -35 -15 4 -6 19 -8 35 -6
31 5 31 -7 0 -15 -12 -3 -28 4 -41 18 -18 20 -27 22 -53 14 -40 -11 -47 -11
-47 1 0 6 13 10 29 10 19 0 34 8 44 23 14 22 14 22 -26 18 -27 -2 -38 0 -33 8
4 6 20 11 36 11 34 0 42 12 60 88 6 28 17 52 22 52 6 0 8 -9 5 -20z m-1883
-297 c16 -24 33 -43 38 -43 5 0 7 -4 3 -10 -3 -5 -12 -7 -20 -3 -29 10 -15 -6
18 -22 18 -8 37 -25 42 -38 6 -12 18 -21 27 -21 9 1 14 -4 12 -11 -3 -7 2 -15
10 -18 9 -4 16 -12 16 -19 0 -9 -3 -8 -10 2 -11 18 -11 18 -11 -77 -1 -57 -3
-63 -21 -63 -17 0 -18 3 -9 14 10 11 8 16 -8 21 -12 3 -21 13 -21 21 0 8 -4
14 -10 14 -5 0 -10 -7 -10 -15 0 -30 -20 -14 -22 18 l-1 32 -4 -32 c-4 -35
-20 -44 -29 -18 -8 21 -32 19 -37 -2 -3 -13 -5 -10 -6 7 -1 17 -4 21 -12 13
-5 -5 -7 -22 -4 -36 8 -30 44 -40 62 -17 16 19 31 0 27 -36 -3 -26 11 -33 20
-9 3 10 19 15 46 15 60 0 51 -30 -10 -32 -41 -1 -38 -6 15 -19 25 -6 44 -14
41 -16 -3 -3 -31 3 -63 12 -32 9 -73 22 -90 27 -19 6 -33 17 -34 26 -1 15 -2
15 -6 0 -4 -15 -8 -16 -25 -7 -25 14 -82 4 -99 -18 -13 -15 -12 -15 9 -4 12 6
27 9 33 5 7 -4 -2 -12 -21 -20 -45 -19 -50 -18 -50 14 0 20 -3 23 -9 12 -6 -8
-7 -18 -4 -23 3 -5 0 -8 -8 -5 -18 6 -24 77 -8 92 8 8 13 8 16 -1 3 -7 15 -13
28 -13 22 0 35 17 35 47 0 24 -33 10 -42 -17 -7 -23 -7 -22 -5 6 3 25 0 30
-17 28 -12 -1 -24 -3 -28 -3 -5 -1 -8 -26 -8 -57 l0 -56 -32 2 c-56 3 -66 1
-48 -10 13 -8 12 -10 -2 -10 -23 0 -25 45 -3 54 19 7 20 60 0 76 -23 19 -37 1
-35 -49 3 -58 0 -90 -7 -73 -2 6 -8 10 -11 8 -4 -2 -7 23 -7 57 0 49 -3 62
-16 65 -12 2 -18 -8 -25 -40 l-8 -43 -4 43 c-3 38 -6 43 -25 40 -17 -2 -23
-11 -25 -41 -2 -20 -10 -49 -18 -65 l-14 -27 0 28 c0 15 5 27 10 27 6 0 10 18
10 39 0 41 -18 59 -39 38 -12 -12 -15 -77 -3 -77 4 0 9 -11 10 -25 1 -20 -3
-25 -20 -25 -16 0 -19 3 -11 11 7 7 8 23 3 46 -5 20 -5 46 0 58 5 13 6 26 2
30 -4 4 89 5 206 1 142 -5 212 -3 207 3 -3 6 6 28 20 50 14 23 25 46 25 53 1
8 7 5 16 -7 8 -11 12 -25 10 -32 -3 -7 1 -10 10 -6 10 4 12 0 8 -11 -4 -10 0
-18 10 -22 13 -5 14 -9 5 -20 -10 -12 -8 -13 15 -4 15 5 42 10 60 10 22 0 33
5 33 15 0 8 -3 13 -5 10 -7 -7 -42 26 -42 39 0 6 5 4 10 -4 6 -9 21 -14 40
-12 17 2 38 -2 47 -10 15 -12 15 -11 4 10 -8 15 -22 22 -44 23 -23 1 -26 3 -9
6 35 7 26 21 -15 25 -33 3 -38 6 -36 26 3 26 -13 30 -21 4 -4 -13 -18 -19 -47
-20 -37 -3 -39 -2 -29 17 8 17 15 19 35 11 16 -6 27 -6 31 2 4 7 3 8 -4 4 -7
-4 -12 -3 -12 3 0 6 -7 8 -15 5 -8 -4 -15 -1 -15 5 0 6 4 11 8 11 5 0 16 16
25 35 9 19 12 35 7 35 -6 0 -10 -4 -10 -9 0 -5 -15 -29 -33 -53 -19 -24 -37
-57 -41 -73 -4 -16 -10 -24 -14 -18 -4 7 -14 1 -26 -16 l-20 -26 22 19 c23 20
31 9 10 -12 -14 -14 -265 -16 -333 -3 -22 4 35 5 128 3 147 -4 167 -3 161 11
-4 10 0 15 13 14 9 -1 18 4 19 11 1 6 2 17 3 23 0 5 5 8 10 5 5 -3 11 1 15 9
3 8 1 15 -4 15 -6 0 -10 8 -9 18 0 10 3 12 6 5 7 -20 23 -15 17 5 -4 12 -3 14
4 4 7 -10 13 -7 28 15 10 15 17 34 16 41 -2 6 1 12 6 12 6 0 13 12 17 27 l6
26 13 -24 c7 -13 25 -43 40 -66z m-707 7 c2 -26 41 -90 54 -90 6 0 8 -3 5 -8
-2 -4 -25 -6 -50 -4 -25 2 -43 8 -40 13 10 16 -3 10 -17 -8 -7 -10 -10 -15 -5
-11 5 4 15 0 24 -8 12 -13 16 -13 23 -2 7 10 9 8 10 -7 1 -17 2 -18 6 -2 3 13
10 16 26 11 12 -4 24 -11 25 -15 2 -5 8 -7 13 -3 5 3 9 1 9 -5 0 -5 7 -16 15
-25 14 -13 12 -14 -17 -11 -95 12 -176 13 -187 2 -8 -8 -11 -8 -11 1 0 7 5 12
10 12 6 0 10 6 10 14 0 8 7 17 16 20 10 4 14 14 11 25 -3 13 0 18 7 15 11 -4
33 34 50 89 7 23 11 22 13 -3z m1403 -60 c11 -23 18 -45 15 -51 -4 -5 -1 -8 5
-7 7 2 17 -6 23 -17 7 -11 18 -24 25 -28 6 -4 12 -12 12 -17 0 -6 8 -18 19
-29 16 -16 30 -18 119 -13 56 2 99 8 97 12 -3 5 4 6 15 3 20 -5 20 -6 3 -18
-10 -7 -25 -13 -33 -13 -8 -1 -51 -6 -95 -11 l-80 -10 100 4 100 4 0 -59 c0
-32 -2 -58 -5 -57 -3 0 -39 -3 -80 -8 -41 -5 -92 -9 -112 -10 -37 -1 -50 8
-25 18 7 3 5 6 -5 6 -10 1 -18 -6 -18 -14 0 -8 -4 -15 -10 -15 -5 0 -10 -18
-10 -40 0 -22 -4 -40 -10 -40 -5 0 -8 17 -7 37 2 31 -2 38 -23 43 -18 5 -21 9
-10 13 8 4 24 5 35 4 15 -1 21 5 23 26 2 18 -1 27 -11 27 -8 0 -14 -8 -13 -17
1 -24 -28 -23 -32 0 -2 10 5 25 15 32 10 7 15 17 10 21 -4 4 -7 2 -7 -6 0 -10
-4 -10 -17 1 -13 11 -15 11 -9 1 5 -8 1 -18 -10 -26 -12 -10 -15 -21 -11 -43
l6 -30 -54 0 c-30 0 -52 3 -49 8 3 5 -4 9 -15 9 -11 0 -22 -4 -25 -9 -3 -4
-67 -7 -143 -6 -76 1 -122 0 -103 -3 33 -5 33 -5 10 -12 -17 -5 -7 -7 35 -8
33 -1 98 -4 144 -8 61 -5 82 -4 77 5 -5 7 3 11 21 11 22 0 25 -2 13 -10 -13
-8 -13 -10 1 -10 9 0 16 -6 17 -12 1 -7 4 -34 8 -60 5 -43 4 -48 -14 -48 -16
0 -21 8 -24 41 -2 22 0 43 4 45 13 8 9 22 -4 20 -7 -1 -22 -7 -33 -13 -17 -10
-18 -15 -7 -32 21 -36 15 -59 -19 -66 -17 -4 -33 -4 -36 -1 -4 3 1 6 9 6 11 0
17 13 21 42 7 49 -7 75 -29 57 -11 -9 -14 -7 -15 7 -1 18 -2 18 -6 1 -4 -14
-8 -16 -18 -7 -15 13 -35 6 -35 -12 0 -5 7 -8 15 -4 8 3 15 0 15 -5 0 -6 -8
-9 -19 -6 -17 4 -18 0 -13 -36 4 -29 2 -38 -6 -33 -7 4 -12 1 -12 -9 0 -9 4
-14 9 -10 5 3 13 0 17 -6 12 -20 34 21 34 62 0 43 5 49 40 38 23 -6 23 -7 3
-8 -16 -1 -20 -6 -16 -21 3 -11 2 -28 -3 -37 -4 -10 -8 -21 -8 -25 -2 -15 -42
-36 -66 -34 -23 1 -24 4 -22 51 2 28 5 57 8 66 6 20 -21 45 -31 29 -4 -6 -1
-9 6 -8 6 2 14 -3 17 -11 3 -10 -1 -13 -15 -9 -15 4 -20 1 -17 -11 9 -49 11
-101 3 -101 -5 0 -9 12 -10 28 0 27 0 27 -10 4 -5 -13 -7 -28 -4 -33 4 -5 -1
-6 -10 -3 -14 6 -15 16 -10 58 4 28 12 54 17 57 6 4 7 12 3 19 -6 9 -10 9 -17
-1 -7 -11 -8 -9 -6 6 3 17 -3 20 -47 21 -118 4 -114 3 -112 24 2 25 10 25 33
3 13 -13 19 -14 22 -5 2 6 11 12 20 12 15 0 15 -2 2 -10 -11 -7 -8 -10 15 -9
17 0 24 3 17 6 -6 2 -10 9 -6 14 3 5 -10 9 -28 9 -41 0 -78 10 -78 20 0 5 11
7 24 6 23 -3 25 1 28 49 3 51 3 52 -22 45 -20 -5 -26 -15 -31 -46 -6 -35 -7
-33 -5 15 l1 53 221 -7 c145 -4 224 -3 228 3 4 7 -45 11 -137 12 -78 1 -178 6
-222 10 -47 4 0 5 115 2 173 -4 197 -3 209 12 12 15 2 16 -135 17 -82 0 -169
4 -194 9 -27 5 33 6 150 3 107 -2 200 -1 205 4 23 19 92 129 88 141 -10 28 8
9 27 -28z m-1315 -132 c17 0 35 1 40 2 6 1 46 1 90 -1 l80 -3 -94 -5 c-106 -7
-98 2 -102 -108 -2 -62 -19 -91 -19 -33 0 17 -4 30 -9 30 -5 0 -12 10 -14 23
-3 15 -5 12 -6 -11 0 -18 4 -42 9 -53 6 -10 7 -19 3 -19 -14 0 -35 17 -33 26
1 5 -1 24 -5 42 -7 38 -29 43 -31 7 -1 -15 4 -25 11 -25 8 0 13 -9 12 -20 -1
-15 -8 -20 -30 -20 -29 0 -29 0 -23 45 5 29 4 45 -3 45 -6 0 -11 -11 -11 -24
0 -36 -18 -78 -32 -74 -7 3 -11 37 -12 96 l-1 92 75 -6 c41 -3 89 -6 105 -6z
m1800 -185 c-18 -28 -18 -28 2 -10 27 23 40 22 18 -3 -10 -11 -23 -20 -30 -20
-13 0 -55 -53 -55 -70 0 -5 -5 -10 -11 -10 -6 0 -9 7 -5 15 3 8 1 15 -4 15 -6
0 -10 -8 -10 -18 0 -9 -9 -23 -20 -30 -22 -13 -27 -3 -9 15 19 19 2 43 -28 42
-15 0 -23 -3 -18 -5 6 -2 9 -20 7 -40 -3 -26 -9 -34 -21 -32 -8 2 -17 12 -19
23 -7 38 -22 40 -22 2 0 -22 5 -37 12 -37 6 0 9 -2 6 -5 -3 -3 -17 0 -32 6
-17 8 -26 20 -26 36 0 12 -5 23 -11 23 -6 0 -9 -9 -6 -20 4 -18 2 -20 -16 -14
-12 4 -23 11 -25 15 -2 5 -8 9 -13 9 -4 0 -6 -7 -3 -15 5 -12 -2 -15 -31 -15
-32 0 -36 2 -25 15 7 8 9 22 6 31 -4 9 -1 23 5 30 13 16 4 33 -19 36 -29 2
109 16 176 17 38 1 61 -3 57 -9 -3 -5 -12 -7 -20 -3 -21 8 -19 -13 3 -22 34
-16 127 -23 138 -12 4 4 -9 7 -29 7 -20 0 -37 4 -37 9 0 5 -9 13 -20 16 -29 9
-25 23 5 17 14 -2 25 -8 25 -13 0 -12 67 -11 75 1 3 6 -4 10 -17 10 -13 0 -30
5 -38 10 -11 7 -2 10 33 10 26 0 47 5 47 10 0 6 5 10 11 10 7 0 4 -11 -6 -27z
m-2219 -866 c-10 -8 -29 -12 -42 -9 -13 2 -35 -3 -49 -12 -13 -9 -33 -16 -45
-16 -11 0 -20 -5 -20 -11 0 -6 7 -8 18 -4 14 5 15 4 4 -7 -11 -11 -16 -10 -26
4 -7 10 -17 14 -21 10 -5 -4 -5 2 -2 13 7 19 6 19 -7 3 -14 -19 -52 -26 -41
-8 3 6 1 10 -4 10 -6 0 -11 -4 -11 -9 0 -5 -9 -7 -20 -4 -11 3 -28 2 -37 -1
-34 -13 9 -25 69 -20 53 5 58 3 58 -15 0 -24 -15 -28 -23 -7 -8 21 -61 14 -65
-8 -2 -10 -10 -15 -18 -12 -10 4 -14 -2 -14 -18 0 -13 -7 -26 -15 -30 -8 -3
-15 -1 -15 3 0 5 4 11 8 13 5 2 12 15 16 31 5 20 3 27 -9 27 -9 0 -15 -9 -15
-25 0 -18 -5 -25 -20 -25 -11 0 -20 7 -20 15 0 8 7 15 16 15 8 0 12 5 9 10 -4
6 -10 8 -15 5 -12 -7 -25 16 -13 24 5 3 12 13 15 22 6 16 71 26 242 35 38 2
71 6 74 9 3 3 17 5 31 5 23 0 24 -1 7 -13z m669 -12 c61 -3 154 -10 209 -16
54 -5 107 -9 117 -9 13 0 19 -7 19 -21 0 -17 -5 -20 -24 -17 -28 6 -40 -12
-37 -52 3 -20 1 -22 -12 -12 -12 10 -14 8 -10 -12 3 -13 0 -26 -5 -30 -6 -4
-11 16 -14 49 -3 54 -2 56 20 50 12 -3 22 -1 22 5 0 5 -10 10 -23 10 -13 0
-26 3 -29 6 -3 3 -61 7 -129 10 -67 3 -127 7 -131 10 -5 3 -16 0 -24 -7 -12
-10 -13 -9 -9 3 4 11 -2 13 -30 10 -31 -4 -35 -1 -35 17 0 12 3 20 8 18 4 -3
57 -8 117 -12z"/>
<path d="M11288 2072 c-40 -3 -51 -17 -20 -25 16 -4 16 -5 -1 -6 -10 0 -22
-13 -27 -27 -7 -19 -15 -24 -27 -20 -14 6 -14 3 3 -15 10 -12 13 -19 6 -15 -8
5 -7 -4 4 -28 10 -19 21 -33 26 -30 4 3 5 -1 2 -9 -3 -8 -1 -18 5 -22 6 -3 8
-17 5 -31 -5 -18 -3 -25 7 -24 24 4 43 0 36 -7 -4 -3 -2 -12 4 -20 9 -9 8 -13
0 -13 -6 0 -11 -5 -11 -10 0 -6 10 -10 23 -9 42 4 90 -1 83 -8 -4 -4 -23 -6
-42 -4 -26 2 -34 -1 -34 -13 0 -12 10 -16 40 -16 22 0 40 3 40 8 0 4 34 6 75
4 58 -3 75 -1 75 9 0 11 2 11 10 -1 8 -13 10 -12 10 3 0 14 9 17 48 16 35 0
42 -3 27 -9 -11 -5 -30 -9 -42 -9 -12 -1 -27 -9 -32 -18 -6 -11 -11 -13 -11
-5 0 9 -5 10 -19 3 -10 -6 -52 -11 -94 -12 -49 -1 -74 -5 -70 -12 4 -6 47 -8
120 -3 76 4 112 3 108 -4 -3 -5 -26 -10 -50 -10 -35 0 -43 -3 -39 -15 4 -9 19
-15 40 -15 24 0 34 -5 34 -15 0 -8 4 -15 10 -15 5 0 7 7 4 15 -10 26 24 59 74
71 41 10 43 12 17 14 -16 1 -37 2 -45 1 -12 -1 -11 1 3 12 9 8 17 26 17 40 0
15 7 45 16 67 9 23 14 44 10 47 -3 4 -6 2 -6 -4 0 -5 -13 -8 -28 -5 -27 4 -31
0 -51 -51 l-22 -54 -67 -2 c-36 -1 -71 -6 -78 -12 -12 -10 -24 -2 -24 15 0 6
5 4 10 -4 8 -13 10 -12 10 3 0 14 10 17 65 17 45 0 65 4 65 13 0 8 3 8 9 -2 7
-10 12 -2 21 30 7 24 14 50 16 57 2 7 8 11 13 8 5 -4 7 4 3 16 -3 12 -7 18 -9
13 -2 -6 -29 -9 -62 -7 -55 3 -60 2 -66 -20 -16 -50 -37 -86 -56 -91 -10 -3
-19 -1 -19 4 0 5 6 9 13 9 15 0 30 25 52 89 16 47 20 73 7 56 -4 -5 -18 -10
-32 -10 -21 0 -28 -8 -45 -57 -24 -66 -32 -77 -41 -53 -5 11 -1 22 8 29 9 7
22 31 29 54 6 23 16 42 21 42 4 0 8 6 8 14 0 9 -12 13 -37 12 -32 -1 -38 2
-41 22 -3 19 -9 22 -37 20 -19 -1 -37 1 -41 5 -4 4 9 7 29 7 21 0 37 4 37 9 0
12 -27 17 -72 13z"/>
<path d="M4703 6053 c4 -3 -14 -45 -40 -92 -25 -47 -64 -120 -86 -161 l-41
-75 102 94 c56 51 104 97 107 100 3 6 -2 40 -20 119 -3 12 -11 22 -17 22 -6 0
-8 -3 -5 -7z"/>
<path d="M7071 5947 l-144 -52 39 -12 c21 -6 32 -12 24 -12 -9 -1 -5 -6 10
-14 13 -7 29 -22 35 -33 6 -11 16 -19 23 -16 6 2 15 -3 18 -11 3 -8 13 -13 24
-10 10 3 21 0 24 -6 4 -6 20 -11 37 -11 16 0 38 -4 49 -10 11 -5 29 -15 40
-20 12 -6 25 -8 30 -5 6 4 10 1 10 -4 0 -16 36 -13 50 4 20 24 88 39 108 23
29 -23 -18 33 -118 140 -52 56 -99 102 -105 101 -5 0 -75 -24 -154 -52z"/>
<path d="M7369 5881 c62 -66 117 -121 122 -121 4 0 10 4 13 8 13 22 66 10 102
-24 21 -19 42 -34 47 -34 4 0 6 -4 2 -9 -3 -5 3 -12 14 -16 22 -7 36 -35 18
-35 -14 -1 27 -24 59 -34 21 -6 21 -3 28 121 4 71 9 153 13 184 l5 57 -108 6
c-60 3 -181 9 -269 12 l-160 7 114 -122z"/>
<path d="M7857 5935 c62 -75 193 -210 191 -195 -4 18 51 27 62 11 3 -6 12 18
19 54 7 36 11 68 9 70 -3 3 -66 23 -141 45 -75 22 -144 43 -154 47 -12 5 -7
-6 14 -32z"/>
<path d="M7796 5789 c-4 -94 -6 -173 -3 -175 2 -2 42 1 88 8 60 8 77 14 59 18
-14 4 -38 3 -55 -2 -39 -10 -45 -10 -45 2 0 6 6 10 13 8 20 -4 67 12 67 23 0
6 10 8 23 5 12 -3 17 -3 10 0 -7 3 -9 13 -6 22 6 15 5 16 -13 2 -19 -14 -19
-14 0 8 11 12 21 20 24 17 3 -2 14 0 26 6 20 10 20 10 2 -5 -11 -9 -15 -16 -9
-16 7 0 15 5 18 10 4 6 11 7 17 4 7 -5 8 -2 3 5 -12 20 -196 226 -205 229 -4
1 -10 -74 -14 -169z"/>
<path d="M5088 5813 c-117 -140 -111 -127 -53 -119 127 18 177 29 165 36 -10
6 -7 12 9 21 11 8 21 19 21 26 0 6 6 13 12 15 8 3 -3 24 -31 56 -23 29 -44 52
-46 52 -2 0 -37 -39 -77 -87z"/>
<path d="M4628 5790 c-58 -54 -109 -96 -113 -92 -4 4 -3 -2 3 -13 16 -31 119
-128 125 -118 3 4 24 73 46 153 23 80 44 151 46 158 2 6 3 12 1 12 -2 0 -50
-45 -108 -100z"/>
<path d="M4706 5727 c-22 -78 -41 -148 -44 -156 -3 -8 21 4 54 27 l59 41 -9
116 c-5 63 -12 115 -15 115 -3 0 -24 -64 -45 -143z"/>
<path d="M8208 5799 c22 -41 57 -107 79 -146 21 -40 40 -68 41 -62 3 6 10 5
19 -3 14 -11 15 -10 10 7 -3 11 -9 70 -13 131 l-6 112 -62 12 c-33 6 -72 14
-85 17 -23 6 -23 3 17 -68z"/>
<path d="M8355 5793 c3 -21 10 -81 15 -133 10 -89 19 -127 21 -84 0 17 1 18
12 2 9 -14 17 -3 49 70 44 97 46 89 -45 146 l-57 37 5 -38z"/>
<path d="M8529 5698 c35 -88 142 -318 138 -298 -3 14 -13 82 -23 152 l-17 126
-46 19 c-25 10 -49 20 -54 21 -4 2 -3 -7 2 -20z"/>
<path d="M5088 5685 c-47 -7 -91 -14 -97 -16 -10 -4 68 -138 82 -139 4 0 3 9
-3 20 -9 17 -7 22 15 30 14 5 25 15 25 22 0 9 -3 8 -10 -2 -5 -8 -10 -10 -10
-4 0 18 12 24 26 13 9 -7 14 -5 19 10 3 11 14 23 24 26 22 7 48 56 28 54 -6
-1 -51 -7 -99 -14z"/>
<path d="M8486 5685 c-35 -83 -54 -145 -44 -142 6 1 18 -19 26 -45 14 -44 14
-48 -6 -82 l-21 -36 41 -65 c23 -36 43 -64 44 -62 2 2 -6 115 -28 412 -2 32
-5 36 -12 20z"/>
<path d="M8516 5655 c2 -22 11 -125 19 -229 8 -103 15 -190 17 -192 2 -1 31
16 65 40 l61 42 -74 170 c-99 225 -94 217 -88 169z"/>
<path d="M4509 5660 c0 -3 -11 -75 -23 -160 -13 -85 -23 -156 -22 -157 3 -3
160 183 163 194 2 5 -24 35 -57 68 -33 33 -60 57 -61 55z"/>
<path d="M4858 5646 c-25 -6 -49 -14 -53 -17 -3 -4 13 -44 36 -90 l41 -83 20
59 c51 159 48 145 25 144 -12 -1 -43 -6 -69 -13z"/>
<path d="M4932 5552 c-18 -54 -32 -101 -32 -105 0 -4 23 -7 50 -7 39 0 52 4
56 18 13 39 28 61 37 55 12 -7 -49 105 -67 125 -9 9 -19 -9 -44 -86z"/>
<path d="M4709 5576 l-55 -41 37 -125 c21 -69 38 -121 38 -115 1 5 10 76 22
158 11 81 19 151 17 156 -2 4 -28 -10 -59 -33z"/>
<path d="M4789 5599 c-4 -14 -44 -319 -43 -319 2 0 31 34 64 76 l62 75 -37 82
c-37 81 -44 94 -46 86z"/>
<path d="M4570 5442 c-30 -35 -67 -79 -82 -96 l-26 -32 61 -42 c43 -30 63 -38
67 -30 8 16 43 258 39 262 -2 2 -29 -26 -59 -62z"/>
<path d="M4631 5391 c-6 -54 -14 -114 -18 -134 l-5 -35 42 9 c72 16 71 12 36
136 -17 61 -34 114 -37 117 -3 4 -11 -38 -18 -93z"/>
<path d="M8240 5300 c0 -5 4 -10 9 -10 5 0 7 -8 5 -17 -3 -10 4 -58 15 -108
15 -65 19 -75 16 -39 -5 50 -4 52 20 52 30 0 33 -14 4 -21 -29 -8 -16 -25 16
-22 14 2 23 -1 20 -5 -3 -5 -12 -7 -20 -3 -8 3 -15 1 -15 -5 0 -5 6 -12 14
-15 9 -4 12 -14 9 -29 -3 -13 -3 -21 0 -18 6 6 57 139 57 150 0 14 -90 61
-102 54 -6 -4 -8 -3 -5 3 4 6 -4 18 -18 27 -14 9 -25 12 -25 6z"/>
<path d="M4458 5130 c-2 -93 0 -166 3 -162 3 4 34 59 67 123 l62 116 -65 46
-64 46 -3 -169z"/>
<path d="M8613 5252 l-62 -45 62 -121 62 -121 3 83 c1 45 1 119 0 165 l-3 83
-62 -44z"/>
<path d="M4658 5218 c-27 -6 -48 -16 -48 -23 0 -18 38 -303 46 -345 5 -27 12
5 30 135 12 94 25 187 29 208 3 20 2 36 -2 36 -5 -1 -29 -6 -55 -11z"/>
<path d="M8421 5103 c0 -99 14 -215 19 -168 2 14 4 11 9 -10 4 -16 4 -43 2
-60 l-5 -30 -7 35 c-4 22 -6 0 -7 -60 0 -82 1 -89 9 -50 5 25 7 52 3 60 -3 8
-2 11 2 7 4 -4 24 77 45 180 20 104 36 189 35 189 0 1 -25 5 -53 9 l-53 7 1
-109z"/>
<path d="M4516 5034 l-59 -115 29 -124 c15 -68 29 -123 31 -121 5 5 64 458 61
467 -2 4 -30 -44 -62 -107z"/>
<path d="M8561 5135 c0 -27 56 -456 61 -460 2 -2 16 52 31 120 l28 123 -60
119 c-33 65 -60 109 -60 98z"/>
<path d="M8501 4957 c-18 -100 -35 -193 -38 -207 -3 -20 1 -29 21 -40 30 -16
34 -30 9 -30 -17 -1 -17 -1 0 -11 9 -5 17 -16 17 -24 0 -7 4 -15 9 -17 17 -6
-7 -109 -35 -146 -25 -32 -28 -33 -35 -16 -11 27 -11 16 1 -197 11 -203 18
-300 22 -305 2 -1 33 145 70 324 l67 327 -34 259 c-19 142 -35 260 -37 262 -2
1 -18 -79 -37 -179z"/>
<path d="M4564 4882 c-17 -136 -30 -248 -30 -249 1 -1 28 21 59 50 l58 52 -25
194 c-14 106 -27 195 -28 196 -2 2 -17 -108 -34 -243z"/>
<path d="M4399 4899 l-25 -9 23 -193 c12 -105 23 -212 24 -237 1 -26 5 -5 9
50 10 129 12 400 3 399 -5 0 -20 -5 -34 -10z"/>
<path d="M8701 4736 c1 -94 4 -200 8 -236 5 -59 8 -44 29 158 13 122 21 226
18 231 -3 5 -17 11 -31 13 l-25 5 1 -171z"/>
<path d="M4450 4598 c0 -133 2 -239 4 -237 2 2 16 59 30 127 l28 123 -27 115
c-15 63 -28 114 -31 114 -2 0 -4 -109 -4 -242z"/>
<path d="M8652 4715 l-24 -110 30 -130 30 -130 0 180 c0 99 -3 207 -7 240 l-6
60 -23 -110z"/>
<path d="M4586 4654 c-40 -34 -55 -52 -50 -63 3 -9 37 -101 75 -206 l69 -190
-5 105 c-8 155 -26 394 -29 398 -2 1 -29 -19 -60 -44z"/>
<path d="M4482 4407 c-18 -74 -32 -144 -32 -157 0 -21 136 -613 145 -635 3 -5
3 10 0 35 -2 25 -21 234 -40 465 -20 231 -37 421 -39 422 -1 2 -17 -57 -34
-130z"/>
<path d="M8621 4535 c-2 -22 -61 -706 -71 -809 -5 -60 -9 -111 -7 -112 1 -1
35 142 76 318 l74 321 -36 146 c-20 80 -36 141 -36 136z"/>
<path d="M4540 4503 c0 -11 16 -209 35 -440 20 -230 38 -454 42 -498 3 -44 14
-98 23 -120 10 -22 46 -114 81 -205 34 -91 65 -168 69 -173 4 -4 -2 64 -12
150 -11 87 -37 331 -58 543 l-39 385 -70 190 c-39 105 -70 180 -71 168z"/>
<path d="M4737 4327 l-36 -192 87 -187 c47 -103 87 -186 89 -185 4 4 33 259
33 290 0 15 -3 26 -7 26 -30 -5 -41 4 -47 36 -5 26 -11 33 -23 28 -13 -5 -14
-3 -4 15 7 12 10 22 7 22 -8 0 16 64 31 81 12 14 9 32 -18 132 -30 108 -33
115 -52 106 -13 -7 -17 -8 -13 -1 3 6 3 13 -2 16 -5 3 -25 -81 -45 -187z"/>
<path d="M8382 4433 c-2 -24 -16 -30 -27 -13 -12 19 -24 10 -50 -33 -29 -51
-30 -57 -11 -57 8 0 18 -4 21 -10 4 -7 -2 -7 -19 0 -23 8 -28 5 -49 -31 -23
-39 -24 -43 -12 -107 7 -37 28 -149 47 -249 31 -171 48 -225 48 -152 0 17 14
161 31 321 16 160 28 304 26 322 -2 20 -4 23 -5 9z"/>
<path d="M8411 4415 c-1 -16 -19 -196 -42 -400 -22 -206 -39 -402 -37 -443 2
-39 0 -73 -3 -75 -3 -1 -8 -74 -11 -162 -3 -88 -4 -155 -2 -150 12 35 137 667
137 695 1 67 -25 485 -33 525 -7 35 -8 36 -9 10z"/>
<path d="M8528 4137 l-56 -272 23 -145 c14 -91 24 -136 28 -120 7 32 70 801
65 805 -2 2 -29 -119 -60 -268z"/>
<path d="M8156 4058 c-36 -104 -46 -143 -37 -146 17 -6 44 -37 47 -54 2 -7 6
-23 9 -34 4 -13 1 -27 -8 -35 -13 -12 -4 -20 60 -57 41 -24 77 -42 79 -40 4 5
-81 449 -94 485 -5 18 -18 -8 -56 -119z"/>
<path d="M5090 4146 c-5 -5 -10 -15 -10 -20 0 -6 6 -4 13 6 11 14 13 10 14
-25 0 -29 -1 -35 -6 -19 l-6 24 -28 -26 c-15 -14 -27 -21 -27 -16 0 4 -9 6
-20 3 -11 -3 -17 -10 -14 -17 3 -6 -2 -2 -10 8 -30 37 -16 6 36 -84 29 -49 56
-86 59 -82 12 11 90 245 84 250 -2 3 -7 -2 -10 -10 -4 -10 -14 -14 -25 -11
-10 3 -16 11 -14 17 6 15 -21 17 -36 2z"/>
<path d="M4455 4095 c3 -27 12 -140 20 -250 8 -110 22 -288 30 -395 8 -108 15
-205 16 -215 0 -11 20 41 44 115 l44 135 -75 320 c-41 176 -77 325 -79 330 -3
6 -3 -12 0 -40z"/>
<path d="M5200 4138 c0 -2 -22 -65 -49 -140 l-50 -135 21 -126 21 -126 74 97
c86 111 87 112 129 209 l32 71 -56 49 c-31 26 -71 61 -89 77 -18 15 -33 26
-33 24z"/>
<path d="M8602 3797 l-72 -312 50 -50 c46 -45 50 -48 50 -26 0 14 11 169 25
345 14 176 25 328 23 337 -2 10 -36 -122 -76 -294z"/>
<path d="M4710 4055 c0 -33 51 -569 56 -595 5 -19 17 5 55 110 28 74 50 142
51 150 0 8 -36 91 -81 185 -44 93 -81 161 -81 150z"/>
<path d="M4943 4062 c-9 -6 -55 -310 -48 -320 6 -8 179 121 177 131 -2 7 -26
49 -54 95 -43 72 -52 81 -66 70 -13 -12 -14 -10 -3 10 13 24 12 26 -6 14z"/>
<path d="M7875 3988 c-8 -25 -25 -159 -21 -166 2 -4 29 -5 59 -4 48 3 54 6 50
23 -3 10 0 26 7 34 10 12 3 24 -36 70 -26 30 -49 55 -51 55 -2 0 -5 -6 -8 -12z"/>
<path d="M5363 3909 c-17 -38 -29 -69 -26 -69 6 0 158 37 208 51 l40 11 -45
18 c-25 10 -68 27 -95 38 l-51 20 -31 -69z"/>
<path d="M4984 3780 l-91 -61 51 -127 50 -127 18 75 c24 102 66 300 64 300 0
0 -42 -27 -92 -60z"/>
<path d="M5242 3715 c-40 -52 -71 -95 -68 -95 3 0 60 28 126 61 l120 61 -47
34 c-27 19 -50 34 -53 34 -3 0 -39 -43 -78 -95z"/>
<path d="M8455 3789 c-14 -62 -133 -654 -131 -656 1 -1 44 77 96 174 l94 177
-23 161 c-13 88 -25 162 -27 164 -2 2 -6 -7 -9 -20z"/>
<path d="M5052 3649 c-19 -83 -36 -159 -39 -168 -5 -17 82 71 102 104 10 16 9
39 -4 118 -9 53 -18 97 -21 97 -3 0 -20 -68 -38 -151z"/>
<path d="M8133 3748 c1 -7 -8 -14 -21 -16 -19 -3 -22 -8 -18 -30 3 -15 13 -67
22 -117 9 -49 19 -92 21 -94 5 -6 53 41 53 51 0 5 -4 7 -9 3 -5 -3 -12 -1 -16
5 -3 6 4 10 17 10 15 0 43 19 77 54 l53 53 -85 47 c-92 50 -98 52 -94 34z"/>
<path d="M7378 3697 c-10 -8 -31 -13 -48 -12 -16 1 -30 -2 -30 -6 0 -4 -11
-10 -25 -13 -14 -4 -25 -13 -25 -21 0 -10 -10 -15 -29 -15 -17 0 -33 -5 -37
-11 -9 -15 44 -3 91 21 21 10 44 16 53 12 13 -5 10 -8 -11 -10 -28 -3 -28 -4
-11 -23 17 -19 18 -19 36 8 10 16 18 24 18 18 -1 -5 -7 -18 -14 -28 -7 -9 -11
-28 -8 -42 5 -29 -5 -33 -16 -6 -6 15 -11 17 -32 9 l-25 -10 25 -12 c51 -23
53 -26 29 -52 l-22 -24 21 0 c30 0 38 3 34 15 -2 5 5 1 16 -8 11 -10 26 -17
34 -16 7 1 22 0 33 -1 11 -1 -7 -6 -40 -11 -33 -4 -75 -4 -94 1 -18 5 -30 6
-26 2 3 -4 25 -12 48 -19 l42 -11 -43 1 c-31 0 -47 6 -57 20 -11 15 -17 17
-34 8 -28 -16 -26 -23 4 -15 15 4 25 2 25 -4 0 -6 -21 -14 -46 -18 l-47 -7 83
-33 c46 -19 86 -32 88 -29 3 3 -3 14 -13 25 -10 11 -15 20 -12 20 3 0 20 -14
36 -32 l30 -32 28 20 c15 11 39 26 53 33 19 9 17 5 -10 -18 -34 -30 -35 -30
-10 -31 14 0 49 3 78 7 l53 6 -32 27 c-38 31 -32 50 14 51 31 1 31 1 7 9 -19
6 -12 8 31 9 49 1 59 5 73 26 21 32 20 38 -6 29 -21 -6 -21 -6 -5 10 22 23 21
37 -4 81 -16 27 -24 33 -30 23 -7 -10 -9 -9 -9 5 0 10 -8 20 -17 23 -22 7 -47
17 -96 39 -54 23 -99 28 -119 12z"/>
<path d="M4870 3668 c0 -3 -16 -50 -35 -104 -20 -54 -33 -104 -31 -110 3 -7
-2 -15 -10 -18 -19 -7 -18 -24 4 -29 14 -4 14 -5 -3 -7 -13 -1 1 -12 40 -30
33 -15 61 -27 62 -26 5 4 -18 320 -23 325 -2 2 -4 2 -4 -1z"/>
<path d="M5670 3650 c0 -5 -3 -15 -6 -24 -5 -12 0 -16 20 -16 15 0 30 -8 36
-19 8 -17 7 -19 -14 -17 -12 2 -28 6 -33 9 -10 7 -33 -41 -33 -68 0 -23 58
-39 96 -27 27 8 41 7 61 -3 25 -13 53 -11 53 5 0 5 3 16 6 25 7 16 5 16 -25 0
-18 -9 -35 -14 -37 -12 -3 2 12 12 32 22 31 15 35 20 30 43 -6 26 -5 26 6 6
14 -22 38 -21 38 1 0 21 -32 35 -69 30 -18 -2 -29 0 -26 5 8 13 -2 13 -26 -1
-17 -9 -21 -7 -26 9 -3 13 -19 24 -44 30 -21 5 -39 6 -39 2z"/>
<path d="M8266 3601 c-38 -39 -38 -39 -15 -44 l24 -4 -25 -2 c-15 0 -41 -18
-66 -43 l-42 -43 41 -58 c22 -31 42 -55 44 -53 4 4 81 286 79 286 -1 0 -19
-18 -40 -39z"/>
<path d="M5490 3622 c0 -4 9 -13 20 -20 11 -7 20 -17 20 -23 0 -6 -12 -1 -27
11 l-28 22 -6 -39 -6 -38 -2 35 -1 35 -20 -25 -20 -25 25 -22 c14 -12 25 -25
24 -29 -1 -4 10 -21 24 -40 25 -30 29 -32 59 -23 18 5 42 9 53 8 16 -1 15 -2
-5 -8 -23 -7 -22 -8 13 -12 26 -4 37 -1 37 8 0 7 -4 13 -10 13 -5 0 -10 4 -10
8 0 5 10 8 23 6 33 -4 33 -4 17 -14 -12 -7 -12 -12 -2 -22 9 -9 12 -9 12 0 0
7 14 12 33 12 17 0 39 5 47 11 11 8 5 9 -25 6 -31 -3 -48 3 -83 26 -31 21 -40
33 -33 40 6 6 10 22 10 37 -1 16 -3 19 -6 8 -8 -31 -23 -20 -21 14 2 24 -2 33
-14 36 -11 2 -18 -3 -18 -13 0 -9 5 -13 10 -10 6 3 10 -3 10 -15 0 -35 -34
-21 -38 16 -3 27 -7 31 -33 32 -16 0 -29 -2 -29 -6z"/>
<path d="M7957 3492 c-14 -53 -35 -158 -47 -232 -11 -74 -22 -143 -24 -152 -4
-20 -7 -20 129 41 l71 32 18 140 c20 158 24 142 -64 219 l-57 50 -26 -98z"/>
<path d="M5073 3512 l-62 -70 132 -37 c73 -21 138 -40 145 -43 7 -2 -16 35
-53 84 -36 49 -73 99 -83 112 l-17 24 -62 -70z"/>
<path d="M8296 3543 c-3 -16 -17 -71 -31 -123 l-25 -95 26 -103 c15 -56 28
-101 29 -100 4 5 15 448 11 448 -2 0 -6 -12 -10 -27z"/>
<path d="M6601 3442 l-74 -46 64 -58 64 -57 13 87 c19 129 20 129 -67 74z"/>
<path d="M8526 3334 c-3 -71 -8 -174 -11 -228 -3 -55 -4 -98 -2 -95 2 2 28 84
58 182 l53 178 -46 46 -46 46 -6 -129z"/>
<path d="M8489 3407 c-9 -18 -53 -101 -99 -186 l-83 -154 23 -166 c12 -91 24
-183 27 -203 16 -135 17 -131 67 198 27 175 57 368 67 429 10 60 17 111 15
112 -1 1 -9 -12 -17 -30z"/>
<path d="M4566 3302 l-39 -126 50 -99 49 -99 -4 153 c-2 85 -7 186 -11 226
l-6 72 -39 -127z"/>
<path d="M5013 3417 c13 -32 121 -309 139 -356 l21 -54 24 59 c13 32 32 84 43
114 10 30 29 79 41 107 13 29 21 54 18 56 -17 12 -289 83 -286 74z"/>
<path d="M7856 3354 l-59 -53 34 -90 c18 -50 35 -88 38 -86 4 5 51 279 48 281
-1 1 -28 -22 -61 -52z"/>
<path d="M4644 3370 c4 -14 17 -81 30 -149 13 -68 28 -126 32 -130 5 -3 10
-31 11 -61 3 -53 38 -249 50 -280 3 -8 6 -18 5 -22 -2 -6 28 -172 41 -233 7
-31 6 142 -2 330 l-7 170 -78 195 c-77 192 -94 230 -82 180z"/>
<path d="M4784 3362 c3 -9 40 -105 81 -212 55 -143 74 -183 70 -150 -2 25 -9
83 -14 130 -6 47 -13 110 -16 140 l-6 56 -60 26 c-50 22 -59 24 -55 10z"/>
<path d="M5015 3260 c2 -63 5 -138 5 -167 l0 -52 43 -11 c23 -6 53 -15 66 -21
13 -5 25 -8 27 -6 2 1 -31 86 -72 187 l-75 185 6 -115z"/>
<path d="M6483 3309 l-29 -64 20 -83 c17 -70 23 -82 38 -79 10 3 18 1 18 -4 0
-5 -7 -9 -15 -9 -19 0 -19 2 7 -94 l22 -81 22 90 c13 50 23 101 23 115 0 14
-17 81 -38 149 l-38 123 -30 -63z"/>
<path d="M5325 3310 c3 -11 7 -63 7 -115 0 -52 3 -95 5 -95 14 0 263 85 263
90 0 5 -265 140 -275 140 -4 0 -4 -9 0 -20z"/>
<path d="M7000 3321 l-85 -6 65 -46 c87 -61 83 -60 118 -50 21 6 38 5 55 -4
14 -7 29 -10 33 -7 4 4 5 0 1 -9 -4 -12 2 -18 21 -23 15 -3 38 -8 52 -12 18
-5 -1 18 -65 79 -49 47 -94 85 -100 85 -5 -1 -48 -4 -95 -7z"/>
<path d="M8456 3013 c-27 -175 -51 -331 -53 -348 -2 -16 18 40 45 127 l49 156
6 191 c4 105 5 191 4 191 -2 0 -25 -143 -51 -317z"/>
<path d="M4785 3290 c2 -19 12 -96 20 -169 9 -74 17 -136 18 -137 1 0 28 -18
61 -38 43 -28 57 -33 51 -19 -4 10 -37 95 -72 188 -81 212 -85 220 -78 175z"/>
<path d="M7230 3235 l82 -83 62 25 c33 14 77 32 96 40 l35 15 -75 18 c-41 11
-122 30 -179 44 l-104 24 83 -83z"/>
<path d="M6012 3278 c2 -16 9 -22 23 -21 18 1 18 0 4 -10 -18 -13 -14 -41 4
-31 9 5 9 4 0 -6 -8 -9 -8 -23 2 -59 8 -25 19 -66 25 -91 l12 -45 24 45 c28
55 29 60 7 61 -11 0 -13 3 -5 6 6 2 10 9 6 14 -3 5 5 9 17 9 16 0 20 5 16 19
-3 11 0 22 7 24 6 2 3 3 -7 1 -9 -1 -24 4 -32 13 -8 8 -15 10 -15 4 0 -6 -8
-11 -17 -11 -13 0 -14 3 -6 11 7 7 32 12 57 12 44 0 60 10 34 20 -7 3 -3 6 10
6 27 1 30 31 3 31 -11 0 -23 -4 -26 -10 -9 -15 -35 -12 -35 3 0 9 15 14 47 16
91 3 55 11 -51 11 -106 0 -107 0 -104 -22z"/>
<path d="M5875 3256 c-55 -17 -99 -36 -97 -41 2 -5 -2 -11 -9 -14 -7 -2 -9 1
-5 8 9 14 -5 14 -39 1 -14 -5 -23 -14 -20 -20 3 -5 2 -10 -4 -10 -5 0 -11 4
-13 10 -2 6 -13 5 -27 -3 -19 -9 -32 -34 -56 -107 -17 -52 -35 -107 -39 -122
l-6 -28 52 5 c29 2 89 8 133 11 44 4 89 6 101 5 18 -2 27 19 77 165 32 92 56
168 55 169 -2 2 -48 -12 -103 -29z"/>
<path d="M7650 3258 c-58 -17 -106 -31 -107 -31 -5 -6 18 -232 25 -239 11 -11
44 1 36 14 -3 5 -11 4 -20 -3 -36 -29 -9 13 144 229 24 34 40 62 35 61 -4 -1
-55 -15 -113 -31z"/>
<path d="M7690 3150 c-64 -92 -89 -135 -82 -142 7 -7 44 1 120 27 60 20 115
40 121 44 8 6 3 31 -19 91 -17 45 -34 89 -39 97 -6 11 -32 -20 -101 -117z"/>
<path d="M8231 3280 c-6 -29 -33 -170 -37 -194 -3 -17 -7 -44 -9 -61 -1 -16
-6 -39 -10 -50 -5 -13 9 -3 38 24 25 24 43 49 40 54 -3 6 -2 7 3 4 6 -3 16 -2
23 2 10 7 10 16 1 47 -6 22 -13 51 -16 66 -6 31 -32 116 -33 108z"/>
<path d="M5967 3196 c-15 -43 -24 -83 -21 -87 3 -5 1 -9 -4 -9 -10 0 -57 -129
-49 -137 4 -3 35 2 71 11 36 9 74 16 86 16 11 0 20 3 20 7 0 25 -35 130 -47
139 -11 10 -11 13 -1 17 9 4 10 6 1 6 -7 1 -10 7 -8 14 3 6 -1 32 -8 57 l-13
45 -27 -79z"/>
<path d="M4655 3205 c3 -27 20 -194 39 -370 19 -176 36 -335 38 -354 2 -26 13
-42 47 -70 l44 -36 -6 30 c-4 17 -26 130 -49 252 -27 142 -45 218 -51 210 -6
-8 -7 -6 -3 7 6 18 -7 103 -44 286 -11 55 -18 74 -15 45z"/>
<path d="M8561 2974 c-28 -147 -50 -269 -47 -271 3 -3 21 27 41 67 25 50 38
90 41 129 16 213 23 335 21 338 -2 2 -27 -117 -56 -263z"/>
<path d="M7460 3196 c-30 -13 -73 -31 -94 -40 l-39 -16 103 -76 c56 -41 104
-73 107 -70 7 7 -8 226 -16 226 -3 -1 -31 -11 -61 -24z"/>
<path d="M6436 3083 c-4 -54 -8 -109 -9 -122 -2 -19 8 -30 47 -53 27 -16 50
-27 52 -25 5 5 -67 280 -76 290 -4 4 -10 -36 -14 -90z"/>
<path d="M5600 3160 c0 -5 -7 -7 -15 -4 -8 4 -15 1 -15 -6 0 -6 -5 -8 -10 -5
-11 7 -210 -55 -210 -66 0 -7 190 -143 193 -138 13 22 73 229 66 229 -5 0 -9
-4 -9 -10z"/>
<path d="M7176 3145 c-3 -10 -19 -15 -47 -15 -33 0 -40 -3 -35 -16 3 -9 6 -20
6 -25 0 -5 38 -9 85 -9 47 0 85 -4 85 -9 0 -5 3 -16 6 -25 5 -14 -5 -16 -75
-16 -85 0 -87 -1 -75 -47 4 -13 11 -20 17 -16 7 4 8 0 4 -11 -4 -10 -2 -36 3
-57 10 -37 27 -49 44 -31 4 4 11 7 14 7 29 2 111 29 107 35 -2 4 7 5 20 2 19
-3 25 0 25 14 0 12 3 15 8 7 5 -8 27 -6 85 10 42 12 77 24 77 27 -1 3 -51 42
-113 86 -86 62 -123 83 -157 88 -25 4 -52 10 -61 12 -9 3 -19 -2 -23 -11z"/>
<path d="M7975 3117 c-49 -23 -91 -41 -92 -42 -1 0 13 -42 31 -93 l32 -93 17
38 c9 21 15 63 15 93 0 30 -3 45 -5 34 -3 -16 -9 -20 -24 -17 -10 3 -19 10
-19 15 0 6 6 8 14 5 8 -3 17 1 20 9 3 8 15 14 27 14 14 0 19 -5 16 -15 -4 -8
-2 -17 2 -19 8 -5 66 103 59 108 -2 2 -43 -15 -93 -37z"/>
<path d="M7021 3117 c-16 -26 -18 -35 -8 -49 84 -121 109 -160 104 -164 -2 -3
-31 32 -63 78 l-59 82 -6 -39 c-3 -22 -9 -59 -13 -82 l-6 -42 40 -11 c21 -6
50 -8 63 -5 15 4 28 1 36 -9 8 -9 18 -16 24 -16 7 0 7 4 -1 12 -14 14 -16 32
-2 23 6 -4 6 5 0 22 -5 15 -14 47 -20 71 -9 34 -15 42 -34 42 -25 0 -36 16
-29 38 3 6 12 12 20 12 11 0 14 6 9 23 -3 12 -6 25 -6 28 0 4 -6 9 -14 12 -9
4 -22 -6 -35 -26z"/>
<path d="M8047 3066 c-37 -80 -38 -83 -37 -196 1 -63 -1 -128 -5 -144 -5 -23
-3 -27 10 -22 9 3 21 6 27 6 7 0 7 4 0 13 -5 6 -10 32 -10 57 0 25 2 40 5 33
2 -7 11 -9 19 -6 8 3 14 0 14 -6 0 -6 4 -11 10 -11 5 0 7 7 4 15 -4 9 0 15 10
15 14 0 21 18 17 43 0 4 4 7 9 7 6 0 10 5 10 11 0 5 -4 7 -10 4 -5 -3 -10 -2
-10 2 0 5 9 14 20 21 25 15 25 19 0 102 -17 59 -23 67 -40 63 -11 -3 -20 0
-20 6 0 6 8 11 19 11 14 0 17 6 13 25 -2 14 -7 27 -11 29 -3 2 -23 -33 -44
-78z"/>
<path d="M5247 3028 l-67 -40 33 -58 c17 -32 35 -54 38 -48 4 6 16 7 29 3 24
-8 22 -15 -7 -19 -10 -2 -17 -7 -15 -12 10 -36 14 -43 25 -40 7 1 9 1 5 -1 -7
-4 57 -139 94 -198 l19 -30 -6 28 c-3 15 -7 38 -10 51 -3 13 -13 26 -23 28
-11 3 -21 17 -24 32 -4 22 -3 24 9 14 8 -6 12 -17 9 -25 -3 -7 1 -13 10 -13
12 0 15 6 10 24 -3 13 -10 54 -16 92 -17 118 -39 246 -42 250 -2 2 -34 -15
-71 -38z"/>
<path d="M5340 3048 c1 -27 78 -489 83 -494 4 -5 208 43 215 51 5 4 -46 162
-61 190 -6 11 -12 29 -13 41 -4 38 -33 94 -48 94 -9 0 -16 4 -16 9 0 5 -30 31
-67 58 -87 64 -93 67 -93 51z"/>
<path d="M7747 3026 c-49 -19 -109 -39 -133 -46 -45 -13 -86 -51 -115 -108 -8
-15 -17 -29 -20 -32 -5 -4 -156 -228 -172 -257 -8 -12 244 92 252 106 4 4 22
11 42 15 49 9 77 30 62 47 -20 26 -105 191 -100 195 3 3 16 -14 28 -37 l24
-42 6 34 c6 30 7 29 6 -12 0 -33 8 -60 27 -93 15 -25 28 -46 30 -46 5 0 166
297 166 305 0 9 -13 5 -103 -29z"/>
<path d="M6824 2950 c-17 -84 -18 -103 -7 -112 8 -6 11 -18 8 -26 -3 -8 0 -31
6 -52 9 -29 15 -36 30 -33 11 3 19 0 19 -6 0 -6 -7 -11 -16 -11 -11 0 -14 -5
-9 -17 4 -10 10 -26 12 -35 7 -24 15 -23 40 5 15 15 20 32 18 57 -4 47 -69
330 -75 330 -3 0 -15 -45 -26 -100z"/>
<path d="M7818 2961 c-26 -48 -45 -91 -41 -95 4 -3 -3 -14 -16 -22 -18 -13
-20 -18 -9 -32 11 -13 11 -15 -3 -10 -11 4 -20 -2 -28 -19 -7 -14 -10 -27 -9
-28 2 -2 53 24 114 58 91 50 110 65 106 80 -3 10 -11 21 -18 24 -8 3 -11 9 -8
14 6 10 -26 119 -35 119 -3 0 -27 -40 -53 -89z"/>
<path d="M5030 3008 c0 -7 10 -53 21 -103 26 -118 25 -109 39 -193 7 -39 15
-70 17 -68 4 4 53 309 53 331 0 7 -26 20 -58 29 -70 19 -72 19 -72 4z"/>
<path d="M8706 2930 l-57 -70 3 -62 3 -62 35 -7 c19 -4 57 -9 83 -12 l48 -5
-2 84 c-2 83 -10 108 -26 80 -15 -26 -124 -138 -129 -133 -3 3 29 41 70 86 42
44 76 83 76 86 0 8 -40 85 -44 85 -2 0 -29 -32 -60 -70z"/>
<path d="M5939 2953 c-61 -14 -67 -18 -92 -60 -15 -24 -24 -49 -21 -55 4 -7 2
-8 -4 -4 -6 4 -17 -5 -26 -21 -8 -15 -40 -66 -71 -113 -30 -47 -52 -86 -48
-87 4 -1 77 12 162 30 l155 32 27 108 27 107 -42 1 c-33 1 -36 2 -16 8 19 5
25 14 26 39 1 18 -2 32 -5 31 -3 -1 -36 -8 -72 -16z"/>
<path d="M8267 2744 c-15 -125 -26 -228 -25 -229 7 -7 123 11 122 18 -1 4 -7
48 -13 97 -7 50 -17 88 -22 84 -5 -3 -9 -1 -9 5 0 5 4 11 8 13 9 3 -18 238
-28 238 -3 0 -18 -102 -33 -226z"/>
<path d="M4831 2948 c1 -36 78 -331 82 -318 3 8 11 59 17 113 11 92 10 100 -7
113 -14 11 -15 13 -2 8 28 -9 33 16 8 34 -58 42 -99 63 -98 50z"/>
<path d="M7445 2926 c-52 -16 -70 -27 -69 -39 1 -9 -2 -17 -7 -17 -5 0 -9 7
-9 15 0 18 1 18 -39 4 -17 -6 -31 -15 -31 -19 0 -4 -10 -6 -21 -3 -15 4 -27 0
-35 -12 -10 -13 -14 -15 -14 -5 0 10 -3 11 -11 3 -6 -6 -18 -9 -27 -5 -12 4
-14 1 -9 -12 4 -10 7 -23 8 -29 0 -7 4 -3 8 7 7 19 8 19 13 -2 4 -14 2 -20 -5
-15 -6 4 -8 1 -5 -8 45 -118 84 -209 89 -209 5 0 133 188 233 343 21 32 22 32
-69 3z"/>
<path d="M5829 2936 c-2 -2 -62 -7 -134 -11 -71 -4 -131 -8 -133 -10 -4 -4 88
-295 92 -295 12 0 96 152 90 161 -4 7 -3 9 3 6 6 -4 33 28 62 73 30 47 45 80
37 80 -7 0 -15 -2 -17 -4z"/>
<path d="M5167 2900 c-24 -128 -27 -155 -17 -158 7 -3 6 -10 -2 -20 -10 -12
-10 -14 0 -8 7 4 12 2 12 -6 0 -9 3 -9 10 2 8 13 10 12 10 -2 0 -12 -8 -18
-24 -18 -21 0 -25 -6 -31 -51 l-7 -51 58 -59 c32 -32 59 -57 61 -55 4 4 -27
226 -34 246 -3 8 -7 38 -9 65 -2 28 -8 73 -12 100 l-9 50 -6 -35z"/>
<path d="M5194 2898 c4 -18 9 -59 13 -91 4 -36 11 -61 20 -64 9 -4 10 -9 3
-18 -12 -14 8 -175 21 -175 5 0 6 -13 3 -29 -3 -16 -2 -36 3 -45 7 -13 18 -10
76 25 37 22 67 43 67 46 0 3 -30 60 -67 127 -37 66 -82 151 -100 189 -36 73
-49 85 -39 35z"/>
<path d="M6390 2870 c-7 -18 -12 -54 -11 -80 1 -36 -2 -47 -13 -47 -10 0 -12
5 -7 16 5 9 6 24 2 33 -4 12 -17 -5 -47 -63 l-42 -80 42 6 c22 4 61 12 84 17
42 10 44 12 38 41 -3 16 -6 40 -6 54 0 20 -4 23 -22 18 -22 -6 -22 -5 -4 9 10
8 16 21 13 28 -4 10 -6 10 -6 1 -2 -23 -17 -14 -19 11 -1 14 4 26 12 28 8 2
11 10 6 22 -5 16 -8 14 -20 -14z"/>
<path d="M4825 2859 c3 -20 6 -99 6 -175 1 -77 4 -170 7 -208 l7 -69 30 75 31
74 -36 154 c-37 157 -54 215 -45 149z"/>
<path d="M7006 2759 c19 -68 34 -128 34 -134 0 -5 7 -1 15 9 15 20 11 41 -6
31 -5 -4 -9 -1 -9 4 0 6 8 11 18 11 13 0 27 21 50 78 18 42 32 80 32 83 0 4
-15 10 -32 13 -18 3 -42 8 -53 10 -11 3 -34 8 -51 11 l-32 7 34 -123z"/>
<path d="M6608 2863 c-27 -2 -48 -7 -48 -9 0 -3 28 -53 63 -110 l62 -104 3 72
c4 91 -5 159 -21 156 -7 -1 -33 -3 -59 -5z"/>
<path d="M4956 2830 c-3 -19 -13 -88 -21 -152 -15 -114 -15 -117 6 -157 25
-49 34 -55 76 -54 18 0 33 -4 33 -8 0 -5 -16 -9 -35 -9 l-36 0 62 -117 c66
-126 85 -155 76 -113 -3 14 -7 83 -8 153 -1 105 -4 127 -15 123 -8 -3 -14 -1
-14 4 0 6 5 10 10 10 6 0 10 18 10 40 0 47 -69 197 -82 177 -5 -7 -8 0 -8 18
-1 17 -12 50 -24 75 l-24 45 -6 -35z"/>
<path d="M7813 2789 c-62 -33 -113 -63 -113 -66 0 -3 39 -60 86 -125 47 -66
84 -121 81 -124 -3 -3 -42 46 -87 108 -45 62 -86 115 -91 116 -5 2 -9 -5 -9
-17 0 -11 -18 -110 -41 -221 -22 -111 -39 -203 -37 -206 2 -2 62 39 133 90
121 88 141 110 150 161 11 61 26 173 24 181 -1 5 0 11 1 14 7 15 25 150 21
150 -3 0 -57 -27 -118 -61z"/>
<path d="M6550 2684 l0 -152 68 36 c37 19 68 36 70 37 1 1 -10 23 -25 47 -26
41 -31 45 -65 42 -21 -1 -38 2 -38 7 0 6 12 9 27 7 14 -2 28 2 29 7 2 6 -12
35 -31 65 l-35 55 0 -151z"/>
<path d="M7106 2714 c-27 -63 -47 -116 -45 -118 8 -6 190 -28 195 -23 4 4 -75
207 -95 244 -3 6 -28 -40 -55 -103z"/>
<path d="M7940 2783 c0 -21 -3 -48 -6 -60 -4 -15 -1 -22 13 -26 15 -4 15 -5 1
-6 -9 0 -19 -9 -22 -18 -8 -32 -28 -194 -24 -198 2 -3 30 22 62 54 45 46 57
63 52 79 -5 14 -13 19 -24 16 -14 -5 -14 -4 1 6 14 9 16 15 6 26 -6 8 -8 14
-4 14 4 0 2 7 -5 15 -6 8 -9 19 -6 24 4 5 2 12 -3 15 -5 3 -12 26 -15 51 -9
55 -26 60 -26 8z"/>
<path d="M8117 2739 c5 -35 3 -39 -21 -45 -18 -4 -25 -11 -22 -20 3 -8 2 -14
-2 -14 -15 0 -33 -70 -37 -147 -9 -167 -15 -326 -11 -322 2 2 48 74 101 159
l98 155 -17 110 c-23 144 -21 140 -60 152 l-34 10 5 -38z"/>
<path d="M7630 2697 c-14 -6 -47 -21 -75 -33 -27 -12 -97 -41 -155 -65 -58
-23 -107 -44 -109 -45 -4 -4 37 -352 45 -373 5 -16 30 17 76 99 14 25 76 130
137 234 61 104 110 190 109 191 -2 1 -14 -2 -28 -8z"/>
<path d="M7507 2414 c-86 -146 -151 -264 -144 -261 6 2 58 21 114 42 l102 38
11 51 c23 105 77 391 75 393 -1 2 -72 -117 -158 -263z"/>
<path d="M5817 2626 c-81 -17 -146 -33 -145 -37 2 -4 71 -79 153 -167 l150
-161 7 37 c4 20 7 110 7 200 1 124 -2 162 -11 161 -7 -1 -79 -16 -161 -33z"/>
<path d="M6335 2646 l-60 -12 3 -41 c1 -23 6 -51 10 -61 7 -19 8 -19 75 1 64
19 67 21 67 51 0 17 3 41 6 54 7 26 -4 27 -101 8z"/>
<path d="M6003 2477 l-3 -172 44 140 43 140 -36 32 c-20 18 -38 32 -41 33 -3
0 -6 -78 -7 -173z"/>
<path d="M5535 2563 c-55 -14 -101 -27 -103 -29 -2 -1 52 -70 119 -153 68 -82
125 -149 126 -147 5 5 -31 356 -37 355 -3 0 -50 -12 -105 -26z"/>
<path d="M7071 2478 c10 -57 21 -118 24 -137 6 -33 6 -33 86 85 43 64 77 119
75 121 -4 4 -172 33 -192 33 -8 0 -6 -31 7 -102z"/>
<path d="M8416 2545 c-26 -21 -37 -38 -33 -48 3 -9 2 -17 -4 -19 -8 -3 -50
-136 -48 -155 0 -5 22 35 50 87 68 130 50 73 -23 -73 -48 -96 -58 -126 -57
-161 2 -23 -1 -48 -5 -54 -5 -8 0 -12 12 -12 15 0 24 19 46 98 15 53 41 138
57 188 16 50 27 99 23 108 -3 9 1 28 11 42 24 37 16 37 -29 -1z"/>
<path d="M5666 2524 c17 -171 34 -307 38 -311 2 -2 32 -1 66 3 34 4 56 10 50
14 -7 4 -10 12 -6 18 8 14 87 21 82 7 -2 -5 -9 -9 -15 -8 -6 2 -11 -2 -11 -7
0 -11 28 -11 75 -1 l29 6 -102 105 c-56 58 -102 107 -102 110 0 3 -25 30 -55
60 l-55 54 6 -50z"/>
<path d="M7958 2509 c-32 -28 -58 -56 -58 -62 0 -7 24 -66 53 -132 l52 -120 8
130 c4 72 6 153 5 182 l-3 52 -57 -50z"/>
<path d="M5121 2457 c1 -39 4 -114 8 -165 l6 -92 53 117 c29 65 52 121 52 126
0 13 -81 81 -101 84 -17 3 -19 -4 -18 -70z"/>
<path d="M5340 2489 c-36 -21 -68 -40 -72 -41 -16 -6 -128 -272 -122 -288 4
-8 6 -19 5 -23 -1 -5 3 -6 9 -2 6 4 42 -12 80 -34 58 -35 77 -41 124 -41 31 0
56 2 56 4 0 3 -24 56 -53 118 -89 187 -111 238 -106 243 5 5 82 -154 145 -297
37 -86 58 -91 49 -10 -10 92 -15 111 -33 115 -15 4 -15 5 1 6 20 1 19 12 -7
208 l-11 81 -65 -39z"/>
<path d="M6342 2513 c-47 -16 -57 -29 -66 -89 l-7 -40 81 -10 82 -10 -69 63
c-37 34 -64 62 -60 63 5 0 37 -25 70 -55 34 -30 64 -55 67 -55 3 0 1 34 -4 75
-10 85 -14 87 -94 58z"/>
<path d="M7209 2440 c-37 -52 -74 -107 -83 -121 l-17 -27 106 -71 c123 -84
114 -100 82 144 l-23 170 -65 -95z"/>
<path d="M4873 2439 l-33 -79 51 -128 c28 -70 55 -134 60 -142 10 -17 4 84
-11 189 -5 36 -10 71 -10 78 0 8 -7 10 -17 6 -17 -6 -17 -5 -1 13 21 25 14 75
-11 67 -15 -6 -15 -5 0 13 9 11 13 28 10 41 -5 17 -13 5 -38 -58z"/>
<path d="M5449 2287 l25 -225 44 -4 c43 -3 44 -3 104 70 33 41 57 77 52 82
-15 13 -57 24 -50 12 3 -6 2 -13 -3 -16 -5 -3 -11 3 -14 14 -4 15 0 20 14 20
36 0 19 20 -18 21 -36 1 -37 2 -9 8 l30 6 -25 27 c-13 14 -43 52 -67 82 -25
32 -48 53 -54 50 -7 -4 -8 -2 -4 4 4 6 -6 25 -22 43 l-28 31 25 -225z"/>
<path d="M8272 2503 c-27 -4 -31 -8 -27 -26 47 -203 53 -222 60 -192 4 17 18
71 31 120 13 50 24 93 24 98 0 7 -28 7 -88 0z"/>
<path d="M8118 2315 c-82 -132 -94 -156 -83 -171 7 -11 17 -14 26 -9 8 5 11 5
7 0 -7 -8 22 -57 52 -85 8 -8 16 -24 18 -35 2 -14 -11 -6 -45 30 -25 28 -43
44 -38 36 5 -10 4 -12 -4 -7 -6 4 -11 13 -10 19 3 16 -11 47 -20 47 -4 0 -15
-46 -25 -102 -10 -57 -22 -116 -27 -131 l-8 -28 51 2 c65 3 101 36 92 84 -4
26 -3 28 7 11 11 -18 13 -17 29 14 17 34 17 35 -9 82 -14 26 -31 48 -38 48 -7
0 -10 7 -7 15 9 23 17 18 38 -26 23 -48 36 -58 36 -29 0 12 -10 30 -22 41
l-23 18 25 1 c20 0 22 -2 10 -10 -13 -8 -12 -10 3 -10 20 0 25 50 5 51 -7 0
-4 4 7 9 16 7 17 9 3 9 -9 1 -20 6 -24 12 -4 8 0 9 15 4 12 -4 21 -2 21 4 0 6
-7 11 -15 11 -8 0 -15 4 -15 10 0 5 6 7 14 4 8 -3 17 -1 21 5 3 6 -1 11 -9 11
-9 0 -16 4 -16 10 0 5 6 7 14 4 10 -4 17 20 29 98 9 56 15 103 14 105 -1 1
-45 -68 -99 -152z"/>
<path d="M8231 2457 c-1 -4 -7 -51 -15 -105 -8 -53 -14 -104 -14 -112 0 -8 -5
-37 -10 -63 -12 -60 6 -73 43 -33 56 61 58 72 26 203 -16 65 -30 115 -30 110z"/>
<path d="M4940 2431 c0 -37 23 -222 27 -217 2 2 6 38 8 81 6 109 15 107 15 -3
0 -55 -4 -92 -10 -92 -5 0 -10 -8 -10 -17 0 -14 2 -15 9 -4 11 17 16 1 27 -74
7 -51 5 -62 -9 -57 -5 1 -6 -2 -2 -7 10 -17 28 -2 76 60 l46 61 -76 141 c-74
136 -101 171 -101 128z"/>
<path d="M7738 2332 c-64 -48 -123 -92 -129 -99 -10 -10 -5 -38 21 -132 18
-66 37 -118 42 -115 4 3 8 9 8 14 0 4 42 101 94 214 51 113 91 206 87 205 -3
0 -59 -40 -123 -87z"/>
<path d="M7866 2384 c-9 -20 -14 -39 -12 -42 3 -3 0 -10 -7 -16 -15 -12 -140
-284 -150 -326 -4 -14 -4 -19 -1 -12 3 6 12 12 19 12 18 0 285 158 285 169 0
10 -100 233 -109 244 -4 4 -15 -9 -25 -29z"/>
<path d="M4653 2324 c-6 -16 2 -230 10 -269 2 -11 7 -37 11 -58 4 -21 11 -35
16 -32 6 4 7 -7 3 -26 -5 -28 -4 -31 11 -26 14 5 17 2 14 -16 -2 -12 -7 -25
-13 -29 -6 -5 -3 -8 7 -8 9 0 20 5 23 10 4 6 16 8 27 4 14 -4 18 -2 14 5 -4 6
-15 11 -24 12 -9 0 -4 5 12 9 16 5 33 7 37 4 10 -6 8 5 -47 234 -36 152 -49
192 -61 188 -8 -3 -11 -1 -8 4 3 6 -1 10 -10 10 -8 0 -18 -7 -22 -16z"/>
<path d="M6039 2283 c-19 -27 -37 -53 -41 -59 -18 -27 -95 -264 -86 -264 5 0
12 9 15 20 4 14 14 20 32 20 14 0 88 32 164 71 l139 71 -23 24 c-12 13 -26 21
-30 18 -5 -3 -9 2 -9 10 0 15 -106 136 -120 136 -3 0 -22 -21 -41 -47z"/>
<path d="M4850 2274 c0 -12 7 -88 16 -170 9 -82 16 -157 16 -166 0 -10 2 -18
5 -18 13 0 48 37 48 50 0 8 6 20 15 27 9 7 10 12 3 13 -6 0 -9 8 -7 18 3 9
-18 73 -46 142 -27 69 -50 115 -50 104z"/>
<path d="M7115 2173 c10 -145 10 -146 56 -140 23 3 39 1 42 -6 4 -13 76 63 77
81 0 6 5 11 11 10 6 -2 13 2 15 7 3 9 -186 145 -201 145 -4 0 -4 -44 0 -97z"/>
<path d="M5840 2212 c-69 -8 -127 -16 -129 -18 -6 -5 90 -124 100 -124 5 0 8
-3 7 -7 -3 -9 64 -105 69 -99 2 1 21 54 42 117 21 63 42 122 46 132 4 9 3 16
-1 16 -5 -1 -65 -9 -134 -17z"/>
<path d="M6870 2190 l-95 -38 -3 -71 -3 -71 34 0 c18 0 37 3 41 8 4 4 13 7 19
7 7 0 11 8 11 18 -2 14 1 15 12 6 8 -6 12 -15 9 -19 -3 -5 4 -6 15 -3 11 3 20
10 20 15 0 5 -5 6 -11 2 -16 -9 -30 17 -18 32 6 7 13 39 17 71 l7 58 5 -55 c3
-31 1 -59 -5 -63 -6 -5 -4 -7 5 -5 19 6 61 150 42 147 -4 -1 -50 -18 -102 -39z"/>
<path d="M7468 2177 c-60 -22 -108 -43 -108 -46 0 -6 283 -161 287 -157 4 4
-59 230 -66 237 -3 4 -54 -12 -113 -34z"/>
<path d="M5674 2168 c-9 -14 -14 -95 -7 -120 5 -20 38 -24 49 -6 4 6 11 25 15
42 6 25 7 21 6 -20 -1 -29 -4 -51 -7 -49 -3 2 -23 -1 -45 -5 -22 -4 -30 -8
-17 -9 14 -1 22 -7 22 -18 0 -14 -2 -15 -9 -5 -11 19 -45 11 -49 -10 -3 -14 4
-17 31 -16 30 1 36 5 40 28 5 24 9 26 43 22 35 -4 53 7 54 34 0 14 -100 144
-111 144 -4 0 -11 -5 -15 -12z"/>
<path d="M5105 2123 c-5 -10 -7 -21 -7 -25 1 -5 -2 -7 -7 -5 -5 1 -25 -19 -45
-45 -20 -27 -32 -48 -25 -48 6 0 9 -7 5 -15 -3 -8 -1 -15 4 -15 6 0 10 -5 10
-11 0 -5 -4 -7 -10 -4 -6 3 -7 -1 -4 -9 3 -9 11 -13 17 -9 6 3 7 1 3 -5 -4 -7
-4 -12 1 -12 4 0 16 -14 25 -30 13 -23 24 -30 48 -30 20 0 30 5 30 16 0 8 5
12 10 9 13 -8 13 16 -1 71 -10 40 -15 45 -35 41 -25 -4 -30 8 -14 33 6 10 10
11 10 3 0 -7 6 -13 14 -13 11 0 11 9 0 56 -15 65 -19 71 -29 47z"/>
<path d="M7865 2065 c-66 -40 -135 -82 -153 -92 -18 -10 -33 -22 -33 -28 -1
-19 55 -185 62 -185 6 0 59 75 59 85 0 3 -6 5 -14 5 -8 0 -18 4 -21 10 -4 6 5
7 22 4 26 -5 31 -1 55 43 14 26 23 54 21 61 -3 7 1 10 9 7 8 -2 30 23 57 66
24 38 46 68 49 65 3 -3 -12 -31 -32 -62 -21 -31 -35 -62 -32 -70 3 -7 0 -13
-6 -11 -6 1 -26 -22 -45 -50 -18 -29 -30 -53 -25 -53 4 0 19 18 32 40 14 22
28 40 31 40 11 0 31 -48 25 -59 -4 -6 -3 -11 3 -11 16 0 22 16 42 118 11 53
22 105 25 116 5 13 3 16 -7 11 -9 -6 -11 -3 -6 8 3 10 5 17 4 16 -1 0 -56 -34
-122 -74z"/>
<path d="M5175 2093 c10 -16 26 -37 35 -48 10 -11 26 -36 35 -55 10 -19 31
-54 48 -77 l30 -43 66 1 c52 1 59 3 36 9 l-30 8 28 1 c20 1 30 8 37 27 6 14
10 27 10 28 0 6 -121 76 -129 76 -5 0 -14 7 -21 15 -14 17 -61 20 -77 4 -7 -7
-10 -3 -10 17 0 29 -33 64 -60 64 -13 0 -13 -4 2 -27z"/>
<path d="M7343 2104 c3 -11 8 -49 12 -86 4 -41 11 -68 18 -68 7 0 6 -5 -3 -11
-11 -8 0 -9 43 -6 32 2 52 0 45 -4 -7 -5 -30 -9 -50 -9 -35 0 -38 -2 -38 -30
0 -17 5 -30 13 -30 9 0 8 -3 -2 -9 -20 -13 3 -23 34 -15 21 5 24 3 19 -10 -4
-10 41 14 105 55 l112 72 -38 21 c-21 12 -91 50 -157 85 -92 49 -117 59 -113
45z"/>
<path d="M5500 1925 c0 -17 22 -44 33 -41 6 1 9 1 5 -1 -14 -8 -9 -23 7 -23 8
0 15 6 15 13 0 8 3 7 9 -3 12 -18 5 -31 -14 -24 -13 5 -12 0 1 -32 9 -21 23
-43 32 -50 8 -6 12 -16 8 -22 -5 -8 7 -13 41 -14 43 -1 44 -2 11 -5 -56 -6
-47 -46 12 -55 24 -3 25 -1 28 62 l3 65 -32 -1 c-18 0 -35 -8 -41 -18 -5 -9
-13 -14 -19 -11 -5 4 -3 13 6 21 33 34 30 82 -7 87 -7 2 -27 12 -43 23 -43 30
-55 36 -55 29z"/>
<path d="M7520 1853 c-63 -41 -119 -78 -123 -82 -8 -8 80 -140 93 -140 6 0
152 290 148 294 -2 1 -55 -31 -118 -72z"/>
<path d="M7587 1786 c-42 -82 -77 -150 -77 -152 0 -2 46 18 103 44 56 26 102
51 102 56 0 6 -13 11 -30 12 -43 2 -45 6 -4 13 l35 6 -26 85 -26 85 -77 -149z"/>
<path d="M8130 1858 c-30 -100 -30 -107 -1 -111 l26 -4 -28 -2 c-20 -1 -30 -8
-37 -27 -18 -45 -13 -57 20 -52 17 3 33 1 36 -4 3 -4 -12 -8 -34 -8 -35 0 -40
-3 -49 -34 -8 -26 -7 -49 2 -91 8 -31 15 -59 17 -61 9 -8 120 285 113 297 -5
7 -4 10 2 6 11 -7 43 54 43 82 0 26 -32 51 -67 51 -26 0 -31 -5 -43 -42z"/>
<path d="M5206 1804 c7 -31 14 -57 16 -59 2 -1 41 -6 86 -10 83 -7 84 -7 73
13 -16 31 -30 36 -101 43 l-65 6 63 1 c34 1 62 4 62 7 0 3 -7 17 -16 30 -14
22 -24 25 -74 25 l-57 0 13 -56z"/>
<path d="M7838 1853 c-18 -5 -74 -83 -58 -83 5 0 10 -7 10 -15 0 -18 -17 -20
-22 -3 -3 8 -6 7 -10 -4 -5 -13 5 -17 55 -22 34 -4 71 -9 83 -12 18 -5 22 2
32 59 7 35 12 69 12 76 0 11 -66 14 -102 4z"/>
<path d="M5447 1836 c-4 -10 2 -16 16 -19 l22 -4 -22 -2 c-37 -2 -26 -21 12
-21 30 0 35 3 35 23 0 17 2 19 9 7 6 -8 7 -18 5 -22 -3 -4 0 -8 7 -8 7 0 9 -3
6 -7 -4 -3 -30 -6 -58 -7 -44 -1 -53 -4 -60 -23 -7 -20 -5 -23 16 -23 19 0 25
6 26 23 1 17 2 18 6 4 3 -10 0 -24 -6 -31 -9 -11 -5 -16 17 -24 31 -11 46 -6
55 18 4 12 6 12 6 -2 1 -9 -4 -20 -10 -24 -17 -10 10 -24 49 -24 l32 0 -20 40
c-24 47 -59 54 -97 18 -19 -17 -23 -19 -17 -5 3 9 10 17 16 17 5 0 6 5 2 12
-4 7 -3 8 4 4 7 -4 12 -3 12 2 0 5 11 7 25 4 30 -5 30 -6 5 46 -18 37 -24 42
-54 42 -20 0 -36 -6 -39 -14z"/>
<path d="M5293 1707 l-62 -10 46 -66 c25 -36 47 -68 49 -70 2 -3 2 18 -1 45
-5 44 -4 42 13 -21 21 -83 27 -95 50 -96 10 0 12 -3 5 -5 -8 -4 0 -24 24 -59
27 -39 40 -52 49 -44 8 7 9 21 3 47 -5 20 -9 40 -9 45 0 4 -5 7 -11 7 -5 0 -7
-4 -4 -10 3 -5 2 -10 -3 -10 -6 0 -13 7 -16 16 -8 22 -8 26 3 19 15 -8 22 11
15 39 -4 17 -11 23 -22 19 -13 -4 -14 -3 -3 5 14 10 8 66 -11 88 -5 7 -8 16
-7 20 1 5 1 19 0 32 -1 25 -8 25 -108 9z"/>
<path d="M7736 1703 c-8 -28 -36 -153 -36 -162 0 -16 54 -19 81 -6 14 8 43 39
64 69 43 63 63 69 22 7 -22 -33 -24 -40 -11 -45 9 -3 17 -6 19 -6 8 0 26 90
20 100 -4 6 -2 17 4 24 9 11 2 15 -36 20 -27 4 -64 9 -85 12 -29 4 -37 2 -42
-13z"/>
<path d="M7603 1659 c-57 -27 -103 -50 -103 -51 1 -2 9 -32 19 -67 l17 -64 23
29 22 28 -23 13 c-13 7 -19 12 -15 13 5 0 17 -4 27 -10 15 -8 26 2 74 65 31
41 59 75 62 75 7 0 -2 -13 -53 -85 -24 -32 -43 -63 -43 -67 0 -4 16 -8 35 -8
32 0 35 3 45 43 6 23 15 57 20 76 16 61 3 62 -107 10z"/>
<path d="M5176 1651 c-25 -26 -34 -41 -26 -46 6 -4 14 -4 17 -1 4 3 1 6 -6 6
-7 0 -9 5 -6 10 10 16 35 -8 35 -31 0 -11 4 -19 9 -19 5 0 7 -9 4 -20 -4 -16
-11 -19 -27 -14 -25 8 -38 24 -32 41 7 17 -21 24 -33 9 -8 -10 -8 -16 2 -25 8
-6 17 -9 20 -6 4 3 5 2 2 -1 -2 -4 1 -16 7 -27 17 -33 144 -201 167 -221 11
-11 21 -25 21 -31 0 -7 34 -61 76 -119 42 -59 74 -109 72 -111 -3 -3 -37 40
-77 95 -40 55 -81 105 -92 110 -10 6 -19 18 -19 26 0 22 -151 234 -167 234 -7
0 -10 6 -7 13 3 8 -1 19 -9 25 -11 9 -16 -1 -27 -55 l-13 -67 78 -73 c43 -40
82 -70 87 -67 4 3 5 -2 2 -10 -6 -16 2 -19 36 -17 12 0 12 -1 1 -5 -9 -4 22
-42 95 -115 60 -60 104 -109 99 -109 -6 0 -55 45 -110 100 -55 55 -103 100
-107 100 -16 0 -7 -19 33 -69 49 -62 175 -147 193 -132 7 6 16 8 19 4 13 -12
7 2 -41 112 -27 61 -57 129 -67 153 -10 23 -23 42 -28 42 -4 0 -6 4 -3 8 3 5
-4 25 -14 45 -11 21 -18 37 -15 37 3 0 1 9 -5 20 -6 11 -17 20 -25 20 -8 0
-15 5 -15 11 0 5 5 7 10 4 13 -8 13 8 -2 40 -8 18 -20 25 -42 26 -30 2 -30 2
-3 6 15 2 27 6 27 7 0 11 -42 96 -50 101 -6 4 -8 11 -5 16 12 19 -2 8 -39 -30z"/>
<path d="M7952 1616 c-12 -7 -21 -14 -19 -17 2 -2 7 -16 11 -30 5 -25 4 -27
-23 -25 -27 2 -30 -2 -41 -43 -7 -26 -13 -51 -15 -57 -2 -6 1 -17 6 -25 6 -10
9 -10 9 -1 0 25 20 11 29 -20 l9 -33 1 33 c1 24 5 32 20 32 37 0 43 -65 7 -74
-16 -4 -37 -28 -63 -73 -66 -112 -69 -122 -17 -68 26 28 72 76 102 107 41 42
50 56 33 51 -20 -5 -22 -2 -18 23 4 35 32 44 40 13 3 -12 10 -18 16 -14 6 3 8
11 5 17 -4 6 -2 8 4 4 19 -11 21 9 10 79 -10 61 -13 66 -25 49 -10 -13 -13
-33 -9 -61 5 -38 3 -43 -15 -43 -11 0 -17 5 -14 10 3 6 2 10 -3 10 -6 0 -13
-8 -17 -17 -7 -17 -8 -16 -15 2 -5 11 -9 14 -9 7 -1 -7 -5 -11 -10 -8 -5 4 -5
21 2 41 l11 36 13 -28 c12 -27 13 -26 9 22 -2 28 -6 59 -10 70 -3 11 1 7 9
-10 l15 -30 -6 40 c-4 22 -7 41 -8 42 0 1 -11 -4 -24 -11z"/>
<path d="M5696 1588 c2 -42 3 -44 15 -28 8 12 9 11 7 -5 -2 -15 4 -21 22 -24
21 -3 22 -5 7 -10 -16 -6 -14 -11 14 -49 17 -24 29 -45 26 -48 -4 -4 -49 51
-106 131 -29 41 -41 37 -41 -14 0 -20 -5 -42 -11 -48 -20 -20 -3 -40 48 -58
86 -30 111 -34 118 -18 7 20 -25 134 -36 128 -4 -3 -9 11 -11 31 -3 32 -7 38
-28 38 -21 1 -25 -3 -24 -26z"/>
<path d="M4915 1555 c3 -22 7 -78 9 -125 10 -237 31 -530 38 -530 4 0 8 19 8
43 0 23 4 69 9 102 11 68 20 153 26 237 4 49 -2 72 -45 185 -33 82 -48 114
-45 88z"/>
<path d="M5494 1518 c-4 -13 -10 -25 -15 -28 -4 -3 -3 -23 2 -45 6 -22 15 -64
21 -92 5 -29 13 -53 17 -53 4 0 24 34 44 76 43 91 38 113 -28 116 -37 1 -37 2
-7 5 28 4 31 7 22 24 -15 26 -47 24 -56 -3z"/>
<path d="M5336 1496 c5 -14 4 -17 -5 -12 -14 9 -15 13 106 -271 47 -112 87
-202 88 -200 2 1 -2 58 -7 127 l-9 125 -72 105 c-39 58 -79 114 -90 125 -17
19 -18 19 -11 1z"/>
<path d="M7324 1448 c-10 -16 -114 -239 -114 -245 0 -4 163 127 235 190 37 32
38 35 20 44 -35 18 -132 26 -141 11z"/>
<path d="M7227 1420 c-38 -17 -83 -36 -100 -44 -18 -8 -70 -30 -117 -49 -79
-33 -83 -36 -60 -45 14 -5 72 -31 129 -56 57 -25 105 -45 105 -44 30 58 123
268 118 268 -4 -1 -38 -14 -75 -30z"/>
<path d="M5566 1355 c-22 -47 -37 -87 -35 -88 2 -2 65 -41 139 -87 74 -45 146
-90 160 -99 20 -13 23 -14 15 -1 -19 32 -236 360 -238 360 -1 -1 -20 -39 -41
-85z"/>
<path d="M5630 1434 c0 -12 63 -89 72 -86 5 1 7 -2 3 -8 -5 -9 154 -265 160
-258 4 6 -41 263 -49 276 -4 6 -13 12 -21 12 -7 0 -15 4 -17 8 -3 9 -148 64
-148 56z"/>
<path d="M7530 1418 c0 -10 -4 -18 -10 -18 -5 0 -34 -48 -63 -107 -88 -182
-89 -170 11 -111 130 76 141 85 135 108 -3 11 -13 20 -22 20 -10 0 -12 3 -5 8
9 5 3 23 -17 62 -15 30 -28 47 -29 38z"/>
<path d="M7384 1326 c-60 -50 -127 -105 -147 -121 l-37 -31 80 -26 79 -26 41
80 c23 43 39 86 36 94 -3 8 -2 13 2 10 8 -4 67 103 60 109 -2 1 -53 -39 -114
-89z"/>
<path d="M8097 1247 c-31 -90 -59 -172 -63 -182 -8 -22 121 99 138 129 6 11
12 40 14 65 1 26 6 70 9 99 6 50 6 52 -18 52 -23 0 -29 -12 -80 -163z"/>
<path d="M7772 1389 c5 -12 -2 -16 -30 -17 -33 -3 -82 -41 -82 -65 0 -5 -6
-15 -14 -22 -11 -11 -71 -147 -183 -415 -14 -33 -14 -34 4 -20 19 15 255 221
286 250 10 9 27 54 38 101 12 46 25 98 29 115 6 27 3 35 -23 60 -17 16 -28 22
-25 13z"/>
<path d="M6197 1310 c3 -41 6 -76 7 -77 1 -1 33 27 71 62 39 35 75 64 80 64 6
0 -21 -29 -60 -66 -38 -36 -63 -63 -55 -60 8 2 70 17 137 33 68 16 123 32 123
35 0 6 -104 55 -138 64 -13 4 -57 10 -97 14 l-74 7 6 -76z"/>
<path d="M5120 1312 l31 -62 -28 -25 -28 -24 60 -118 60 -118 3 100 3 100 -36
33 c-38 35 -44 48 -19 38 12 -4 15 0 12 17 -2 12 -9 21 -15 20 -7 -2 -10 3 -8
10 2 6 -12 30 -31 52 l-35 40 31 -63z"/>
<path d="M5952 1208 c150 -211 200 -279 203 -276 4 4 36 280 33 283 -8 5 -326
135 -332 135 -3 0 40 -64 96 -142z"/>
<path d="M8045 1312 c-11 -20 -47 -66 -81 -102 -33 -36 -64 -73 -67 -83 -4
-10 -11 -16 -16 -13 -5 3 -7 -2 -4 -13 4 -18 118 -80 128 -70 6 7 67 311 62
315 -1 2 -12 -13 -22 -34z"/>
<path d="M5843 1308 c3 -13 14 -76 23 -141 l18 -119 130 -65 c72 -36 126 -59
120 -52 -6 8 -73 101 -148 207 -76 105 -140 192 -143 192 -3 0 -3 -10 0 -22z"/>
<path d="M6388 1256 c-71 -17 -128 -33 -128 -36 0 -3 61 -11 135 -17 123 -11
139 -11 192 6 32 10 97 29 146 41 48 13 86 24 85 26 -2 1 -71 4 -153 7 -140 3
-158 2 -277 -27z"/>
<path d="M5030 1261 c0 -11 7 -26 15 -35 17 -17 20 -30 5 -21 -13 8 -13 -28 4
-225 8 -91 20 -236 27 -322 7 -87 16 -158 20 -158 12 0 21 54 10 58 -19 6 -13
49 7 54 14 4 22 22 32 69 7 35 21 90 32 122 37 115 36 129 -32 260 -34 65 -65
115 -70 112 -6 -3 -7 0 -4 8 4 13 -32 97 -42 97 -2 0 -4 -9 -4 -19z"/>
<path d="M6825 1262 c-27 -10 -94 -28 -147 -42 -53 -13 -96 -25 -94 -27 1 -2
66 -5 143 -9 l140 -6 17 48 c9 26 16 49 16 51 0 6 -27 1 -75 -15z"/>
<path d="M5534 1098 l9 -133 44 -33 c24 -18 41 -37 38 -42 -3 -5 40 -58 97
-117 56 -60 103 -110 105 -112 2 -2 3 12 3 31 0 34 -6 41 -101 113 -55 42 -98
79 -95 82 3 3 45 -25 93 -63 80 -63 86 -66 66 -34 -86 142 -238 399 -246 418
-6 12 -13 22 -16 22 -3 0 -2 -60 3 -132z"/>
<path d="M5586 1199 c17 -19 89 -99 159 -179 70 -80 132 -149 136 -154 12 -13
-1 156 -13 171 -6 7 -67 47 -136 89 -70 43 -138 84 -152 93 -22 13 -22 11 6
-20z"/>
<path d="M7466 1167 c-95 -59 -100 -64 -128 -127 -53 -115 -67 -150 -63 -150
11 0 154 173 149 181 -3 5 -1 8 4 7 6 -2 42 31 82 72 128 134 69 56 -100 -133
-158 -175 -167 -188 -202 -275 -42 -106 -51 -106 111 0 58 38 110 80 114 91 4
12 23 58 42 102 18 44 52 124 75 178 37 88 42 118 22 116 -4 0 -52 -28 -106
-62z"/>
<path d="M6228 1178 c10 -18 34 -60 52 -93 18 -33 34 -61 35 -63 1 -1 62 -13
136 -26 l135 -24 113 23 c63 13 117 27 121 32 6 7 40 121 40 135 0 2 -84 8
-187 11 -170 6 -323 18 -426 32 l-39 6 20 -33z"/>
<path d="M5010 1183 c-1 -10 -11 -103 -24 -207 l-22 -189 33 -96 c51 -148 65
-181 74 -181 5 0 5 10 1 23 -4 12 -7 38 -6 57 1 19 -7 141 -17 270 -10 129
-19 257 -21 283 -2 45 -18 79 -18 40z"/>
<path d="M5582 1170 c8 -14 68 -114 133 -223 129 -216 121 -210 161 -135 13
26 11 29 -122 180 -75 84 -148 164 -162 178 l-25 25 15 -25z"/>
<path d="M6191 1093 c-7 -54 -15 -116 -18 -138 l-6 -39 54 39 c90 64 86 55 44
132 -65 116 -61 116 -74 6z"/>
<path d="M8097 1095 l-77 -83 32 -83 c39 -103 42 -107 72 -102 13 3 26 1 29
-4 3 -5 -6 -10 -20 -11 -15 -1 -27 -3 -29 -5 -1 -1 10 -32 25 -69 19 -49 31
-68 44 -68 10 0 15 5 12 10 -4 6 -11 8 -16 5 -5 -4 -9 -1 -9 4 0 6 4 11 10 11
6 0 10 94 12 240 2 132 1 240 -2 239 -3 0 -40 -38 -83 -84z"/>
<path d="M6875 1156 c-16 -50 -34 -120 -31 -123 1 -2 66 25 144 59 78 34 140
63 138 65 -1 1 -58 4 -125 6 -81 2 -124 0 -126 -7z"/>
<path d="M7147 1023 c-25 -76 -45 -146 -44 -155 0 -15 10 -18 53 -18 29 0 59
-2 66 -5 10 -4 22 14 40 57 15 35 38 90 53 123 l27 60 -89 -84 c-48 -47 -98
-96 -110 -110 -12 -14 -25 -23 -28 -19 -3 3 46 56 110 119 63 62 112 116 108
120 -5 3 -33 15 -63 24 -30 10 -60 20 -67 22 -7 3 -28 -47 -56 -134z"/>
<path d="M5230 1047 l0 -106 153 -49 c83 -27 153 -48 155 -47 2 2 -64 68 -145
148 -81 80 -151 149 -155 153 -5 4 -8 -40 -8 -99z"/>
<path d="M7025 1094 c-66 -29 -136 -60 -156 -68 l-36 -15 13 -88 c8 -48 14
-92 14 -97 0 -9 59 54 195 209 44 50 84 93 89 97 6 4 8 9 6 11 -3 2 -59 -20
-125 -49z"/>
<path d="M7069 1028 c-80 -89 -133 -148 -172 -194 l-18 -22 48 9 c26 5 71 14
99 19 l50 11 22 67 c12 37 19 78 17 92 -4 19 -3 20 3 7 6 -15 12 -7 26 38 10
31 16 59 13 61 -2 2 -42 -37 -88 -88z"/>
<path d="M7811 1056 c-24 -24 -42 -47 -41 -51 1 -4 -43 -45 -98 -91 -55 -46
-104 -89 -109 -96 -8 -13 -52 -250 -47 -256 1 -2 8 7 15 19 30 57 292 449 297
444 3 -2 -11 -28 -30 -57 -77 -118 -73 -103 -41 -134 15 -15 21 -22 12 -16 -9
7 -24 9 -34 6 -14 -6 -16 -3 -10 17 4 13 -44 -52 -106 -144 l-113 -168 36 -32
c20 -18 81 -74 137 -126 56 -51 101 -89 101 -85 0 5 7 77 15 161 15 145 15
153 -2 170 -23 23 -63 27 -63 7 0 -8 -9 -14 -20 -14 -17 0 -24 -9 -22 -31 1
-3 -5 -6 -13 -6 -11 0 -10 6 4 26 10 14 21 34 24 44 4 11 17 17 36 17 17 0 42
5 56 12 21 9 25 18 25 54 0 36 -3 42 -18 39 -10 -2 -25 1 -33 6 -10 6 -2 9 24
9 20 0 37 5 37 10 0 18 20 204 25 234 4 24 3 27 -10 16 -8 -7 -15 -9 -15 -5 0
4 -7 2 -15 -5 -9 -7 -18 -10 -21 -8 -3 3 12 20 32 37 21 17 36 33 33 36 -3 2
-25 -15 -48 -39z"/>
<path d="M7867 1028 c-16 -115 -19 -225 -8 -233 9 -5 9 -10 -2 -18 -16 -13
-30 -97 -16 -97 5 0 9 10 9 23 0 17 2 19 9 7 6 -8 7 -18 5 -22 -3 -4 4 -8 16
-8 11 0 22 6 24 13 2 6 11 33 19 60 11 38 12 47 1 47 -7 0 -16 -4 -19 -10 -10
-15 -25 -12 -19 4 3 8 17 16 32 18 19 2 28 11 34 33 5 17 18 58 29 92 12 34
18 67 14 73 -5 9 -108 60 -120 60 -1 0 -5 -19 -8 -42z"/>
<path d="M5916 1009 c6 -8 51 -63 100 -123 49 -59 101 -124 117 -144 l27 -36
0 75 c0 116 2 113 -134 181 -66 33 -116 54 -110 47z"/>
<path d="M5894 964 c3 -26 6 -64 6 -85 0 -37 1 -38 98 -90 53 -29 108 -59 122
-68 13 -9 -31 53 -98 137 -68 83 -125 152 -129 152 -3 0 -3 -21 1 -46z"/>
<path d="M6242 955 c-55 -40 -71 -65 -42 -65 5 0 46 -18 91 -40 45 -22 84 -38
86 -36 4 4 -56 167 -66 178 -4 5 -35 -12 -69 -37z"/>
<path d="M6330 992 c0 -13 61 -167 70 -175 4 -5 42 24 84 64 42 40 73 75 69
79 -7 6 -194 41 -215 40 -5 0 -8 -3 -8 -8z"/>
<path d="M6688 981 c-43 -9 -78 -18 -78 -21 1 -7 231 -143 235 -138 3 3 -12
114 -21 156 -5 26 -22 27 -136 3z"/>
<path d="M6496 875 l-88 -82 80 -57 81 -57 113 52 c62 28 124 55 137 60 l25
10 -35 21 c-19 11 -77 46 -129 78 l-96 56 -88 -81z"/>
<path d="M8024 923 c3 -21 6 -55 6 -76 0 -34 2 -38 20 -32 15 5 18 3 14 -9 -3
-9 -12 -16 -19 -16 -10 0 -12 -14 -9 -52 2 -29 6 -99 8 -155 6 -150 26 -433
33 -473 6 -34 7 -33 19 25 6 33 28 136 48 229 19 93 33 173 30 178 -3 4 -1 8
5 8 15 0 -34 105 -50 106 -31 3 -33 6 -9 15 19 7 16 8 -17 4 -43 -5 -62 6 -46
28 5 7 14 28 21 48 11 33 9 45 -19 123 -33 92 -45 109 -35 49z"/>
<path d="M5290 874 c157 -173 364 -393 367 -391 2 2 -9 54 -25 116 -15 62 -30
110 -32 107 -3 -2 -6 19 -7 47 -1 27 -6 54 -10 58 -4 4 -75 28 -158 54 -82 26
-157 50 -165 53 -8 3 5 -17 30 -44z"/>
<path d="M5246 855 c8 -33 19 -85 24 -115 20 -113 28 -146 39 -170 10 -23 11
-23 7 -3 -2 13 0 26 5 29 5 3 9 -11 9 -31 0 -25 -4 -34 -11 -29 -9 5 -10 -1
-5 -22 4 -16 12 -51 16 -79 17 -94 28 -146 33 -151 7 -7 298 159 294 168 -1 4
-49 57 -106 118 -77 83 -106 108 -113 98 -7 -9 -8 -8 -6 7 4 20 -15 44 -144
180 l-56 60 14 -60z"/>
<path d="M5217 880 c-14 -38 -27 -112 -21 -122 4 -5 2 -13 -5 -17 -6 -4 -19
-47 -30 -97 -10 -49 -24 -101 -30 -116 -9 -23 -8 -28 4 -28 8 0 15 -5 15 -11
0 -6 -7 -9 -15 -5 -9 3 -15 0 -15 -9 0 -8 5 -15 10 -15 6 0 10 -7 10 -16 0 -8
-4 -13 -9 -10 -20 13 -31 -27 -41 -145 -5 -68 -12 -152 -15 -187 -4 -39 -2
-62 5 -62 5 0 10 14 10 30 0 21 5 30 16 30 11 0 14 -5 10 -17 -6 -15 -5 -15
11 -2 161 135 218 183 220 184 1 0 -12 63 -28 140 -16 77 -31 151 -33 165 -2
14 -12 63 -21 110 -9 47 -22 114 -29 150 -7 36 -16 58 -19 50z"/>
<path d="M6173 800 c4 -51 8 -95 10 -97 5 -5 187 80 187 87 0 5 -148 81 -193
99 -6 2 -8 -31 -4 -89z"/>
<path d="M6950 813 c-41 -9 -77 -17 -79 -19 -5 -5 39 -157 49 -167 6 -6 87
110 134 191 9 15 -8 15 -104 -5z"/>
<path d="M5872 779 c-13 -23 -20 -45 -15 -49 4 -4 49 -29 98 -55 50 -26 94
-51 100 -56 5 -5 13 -9 17 -9 5 0 -26 41 -68 91 -42 49 -74 92 -71 95 2 3 42
-39 87 -93 46 -54 86 -99 89 -101 7 -3 56 77 50 82 -26 18 -217 121 -226 121
-6 0 -15 4 -19 8 -13 12 -18 8 -42 -34z"/>
<path d="M7006 719 c-37 -55 -65 -103 -62 -106 3 -3 50 0 105 7 l100 13 -31
86 c-17 47 -34 89 -37 93 -4 4 -37 -38 -75 -93z"/>
<path d="M5603 784 c11 -35 45 -179 57 -242 7 -34 16 -65 21 -68 4 -2 34 28
66 67 84 103 80 95 52 118 -13 11 -29 20 -35 21 -7 0 -33 20 -59 44 -26 24
-61 51 -77 61 -29 17 -30 17 -25 -1z"/>
<path d="M7443 736 c-44 -34 -91 -69 -104 -78 -23 -15 -22 -16 65 -67 49 -29
90 -51 91 -49 2 2 10 50 20 108 9 58 19 115 22 128 3 12 1 22 -3 21 -5 0 -46
-28 -91 -63z"/>
<path d="M6295 735 l-90 -44 75 -1 c41 0 98 -3 127 -6 44 -6 52 -4 56 12 4 17
5 17 6 2 1 -14 10 -18 37 -18 l37 0 -24 18 c-49 38 -118 82 -126 81 -4 0 -48
-20 -98 -44z"/>
<path d="M6707 726 l-118 -53 80 -20 80 -21 42 70 c23 38 44 67 46 64 3 -3
-12 -32 -32 -66 -20 -34 -34 -64 -30 -68 13 -13 136 -30 132 -18 -2 6 -14 45
-26 86 -16 55 -27 76 -40 77 -9 1 -70 -22 -134 -51z"/>
<path d="M7991 672 c-1 -13 3 -20 9 -17 6 3 10 2 10 -4 0 -5 -24 -13 -52 -18
l-53 -8 -57 -170 c-31 -93 -56 -175 -55 -181 1 -7 36 -40 78 -75 42 -35 105
-89 139 -119 l62 -54 -6 49 c-8 61 -24 273 -31 413 -3 57 -10 114 -15 127 -6
15 -6 27 0 30 15 9 12 25 -4 25 -8 0 -17 6 -19 13 -3 6 -6 2 -6 -11z"/>
<path d="M4981 670 c-1 -8 8 -78 19 -155 12 -77 22 -151 24 -165 2 -14 9 -74
17 -133 8 -66 16 -101 20 -90 13 37 22 300 10 307 -6 4 -11 15 -11 25 0 10 -9
40 -19 67 -10 27 -28 74 -39 104 -12 30 -21 48 -21 40z"/>
<path d="M6280 591 l95 -89 88 80 c48 44 87 81 87 82 0 0 -18 2 -40 4 -30 2
-40 -1 -40 -13 0 -8 -5 -15 -11 -15 -6 0 -9 7 -5 15 5 13 -11 15 -107 16 -62
0 -123 2 -137 5 -19 3 -2 -17 70 -85z"/>
<path d="M6524 620 c-35 -32 -41 -44 -39 -74 1 -22 -3 -35 -9 -33 -6 2 -10 14
-10 25 1 12 -3 22 -8 22 -6 0 -8 -10 -6 -23 3 -15 0 -24 -8 -24 -7 0 -10 7 -6
16 4 13 1 12 -16 -3 -28 -24 -28 -26 6 -26 15 0 64 -3 110 -6 89 -7 90 -6 68
47 l-14 34 -5 -30 c-2 -17 -3 -12 -2 10 2 22 -2 54 -9 72 l-11 32 -41 -39z"/>
<path d="M4927 553 c-32 -174 -32 -163 -8 -163 11 0 21 -4 21 -10 0 -5 -10 -9
-22 -7 -20 2 -23 -8 -53 -181 -17 -100 -29 -184 -27 -187 9 -9 186 -5 201 4
16 10 16 7 -35 371 -19 135 -34 248 -34 252 0 5 -6 8 -13 8 -9 0 -19 -30 -30
-87z"/>
<path d="M5761 538 l-74 -90 169 -169 c92 -92 170 -167 171 -165 2 2 -33 102
-78 222 -44 121 -85 233 -91 249 -6 17 -13 33 -17 36 -3 3 -39 -34 -80 -83z"/>
<path d="M7297 623 c-14 -13 -7 -52 11 -56 13 -4 12 -5 -5 -6 -18 -1 -25 -12
-42 -68 -24 -83 -78 -289 -85 -323 -3 -14 -14 -54 -25 -90 -26 -82 -26 -80 8
-80 26 0 34 9 74 78 25 42 93 159 151 260 58 100 106 184 106 187 0 4 -175
105 -182 105 -3 0 -8 -3 -11 -7z"/>
<path d="M7017 605 c-49 -7 -90 -15 -92 -17 -5 -5 -35 -111 -32 -114 1 -1 48
27 105 63 57 36 106 62 109 60 2 -3 -34 -29 -81 -58 -48 -29 -85 -53 -84 -55
2 -1 31 7 65 18 47 15 69 30 93 59 17 22 26 39 20 39 -6 0 -8 5 -5 10 3 6 3 9
-2 9 -4 -1 -48 -7 -96 -14z"/>
<path d="M5903 576 c53 -77 269 -374 292 -401 l24 -30 0 145 1 145 -48 22
c-26 12 -102 51 -169 86 -118 62 -121 63 -100 33z"/>
<path d="M7175 565 c-44 -25 -101 -52 -127 -61 -26 -8 -50 -19 -52 -22 -2 -4
-7 -52 -11 -107 -3 -55 -8 -126 -11 -157 -3 -43 -1 -58 8 -58 10 0 10 -2 1 -8
-6 -4 -15 -41 -18 -82 -4 -41 -5 -73 -3 -70 13 13 307 610 301 609 -5 0 -44
-20 -88 -44z"/>
<path d="M5880 575 c0 -5 37 -109 81 -230 45 -121 83 -228 86 -237 3 -10 10
-18 17 -18 17 0 137 35 139 41 1 2 -63 94 -143 203 -80 109 -153 210 -162 225
-10 14 -18 22 -18 16z"/>
<path d="M7122 284 l-142 -284 70 0 70 0 -11 26 c-10 29 -3 47 10 25 6 -9 11
0 16 26 11 49 9 44 39 148 55 195 94 340 92 342 -1 1 -66 -126 -144 -283z"/>
<path d="M7500 505 c0 -3 -18 -94 -40 -201 -22 -108 -40 -200 -40 -205 0 -5
63 23 140 61 78 39 138 75 135 80 -3 5 1 7 9 4 8 -3 26 1 41 8 l26 14 -129
122 c-120 113 -142 131 -142 117z"/>
<path d="M8188 505 c-3 -6 -9 -30 -13 -55 -4 -25 -13 -72 -20 -105 -8 -33 -26
-116 -41 -185 -14 -69 -30 -129 -35 -134 -9 -10 -35 8 -169 123 -52 45 -101
80 -109 79 -17 -3 -24 -26 -41 -123 -6 -38 -14 -78 -17 -88 -5 -19 -21 -18
342 -9 6 0 56 -2 113 -5 56 -2 102 -1 102 2 0 4 -7 33 -15 64 -8 31 -17 72
-20 91 -3 19 -10 55 -16 80 -5 25 -20 97 -33 160 -12 63 -25 110 -28 105z"/>
<path d="M6394 455 c3 -11 6 -28 6 -37 0 -21 40 -25 40 -5 0 8 3 8 8 1 4 -5
30 -11 57 -13 28 -1 59 -5 70 -8 43 -12 -3 15 -74 42 -40 16 -69 31 -63 33 6
2 33 -6 60 -18 27 -12 56 -22 63 -24 8 -1 24 -7 36 -14 30 -17 33 -16 33 16 0
51 -8 54 -129 51 -107 -3 -112 -4 -107 -24z"/>
<path d="M6856 440 c-49 -16 -101 -32 -116 -35 -31 -7 -32 12 6 -195 33 -175
34 -178 46 -156 5 9 6 26 3 39 -4 14 -3 18 3 9 6 -9 18 11 40 65 17 43 51 127
76 188 26 60 46 111 46 112 0 6 -17 1 -104 -27z"/>
<path d="M7354 263 c-126 -220 -144 -253 -144 -259 0 -2 24 -4 53 -4 47 0 56
4 95 41 l42 40 40 191 c22 105 38 193 36 195 -2 2 -57 -90 -122 -204z"/>
<path d="M6964 444 c-4 -10 -23 -57 -42 -104 -42 -105 -82 -212 -82 -224 0 -4
9 -6 20 -3 11 3 20 1 20 -5 0 -6 -12 -8 -26 -5 -22 4 -28 0 -39 -27 -33 -80
-36 -76 54 -76 l81 0 2 58 c4 129 7 182 16 287 9 111 8 133 -4 99z"/>
<path d="M6237 348 c-4 -46 -7 -113 -7 -150 0 -64 1 -68 25 -74 14 -3 32 -4
40 -1 8 4 17 1 21 -5 5 -7 12 -5 22 8 13 16 14 17 9 2 -4 -11 -1 -19 6 -19 18
-2 48 -7 91 -15 l38 -7 -16 31 c-20 38 -34 48 -42 28 -3 -9 -14 -16 -23 -16
-12 0 -10 5 8 19 l24 18 -23 39 c-53 87 -135 209 -145 216 -19 14 -22 8 -28
-74z"/>
<path d="M5498 338 c-71 -40 -128 -77 -128 -83 0 -5 22 -64 49 -130 l50 -120
105 -3 106 -3 0 101 c0 81 -3 105 -16 118 -11 10 -13 17 -5 20 7 2 11 34 11
88 0 81 -1 84 -22 84 -13 0 -80 -33 -150 -72z"/>
<path d="M5692 399 c3 -8 11 -40 18 -71 11 -50 16 -58 37 -58 28 0 31 -16 4
-25 -12 -4 -18 -12 -14 -20 3 -8 10 -12 17 -8 8 5 8 3 -1 -8 -9 -11 -6 -36 11
-109 l22 -95 40 -3 c31 -2 62 7 127 37 l86 40 -165 163 c-160 157 -193 186
-182 157z"/>
<path d="M6321 371 c96 -156 146 -230 157 -231 7 0 10 -4 7 -10 -3 -5 -2 -17
3 -26 7 -13 17 0 47 60 33 66 36 78 24 94 -12 15 -12 16 2 5 13 -10 20 -3 48
54 l32 66 -48 -7 c-75 -11 -114 -12 -120 -3 -3 4 -11 0 -19 -10 -12 -16 -13
-16 -14 -2 0 11 -18 21 -58 33 -84 23 -88 22 -61 -23z"/>
<path d="M6600 270 c-39 -80 -55 -122 -47 -127 7 -4 4 -9 -9 -14 -16 -7 -17
-8 -2 -8 27 -1 20 -47 -7 -48 -11 -1 -15 1 -8 4 7 2 9 11 6 19 -10 26 -23 -5
-23 -53 l0 -43 130 0 c72 0 130 3 130 7 0 6 -41 231 -61 331 -8 41 -14 52 -30
52 -15 0 -33 -28 -79 -120z"/>
<path d="M5225 145 c-66 -57 -119 -108 -118 -114 2 -6 -6 -11 -18 -11 -11 0
-17 -5 -14 -10 4 -6 70 -10 164 -10 l158 0 -22 120 c-13 67 -24 122 -26 124
-2 2 -58 -42 -124 -99z"/>
<path d="M7589 161 l-175 -86 15 -37 16 -38 110 0 110 0 52 122 c29 67 51 123
50 124 -1 1 -81 -37 -178 -85z"/>
<path d="M6253 55 l22 -55 101 0 c84 0 103 3 108 16 16 42 8 49 -66 63 -40 7
-78 16 -85 18 -8 3 -13 -3 -13 -13 -1 -18 -1 -18 -11 -1 -6 9 -14 15 -20 12
-5 -4 -9 -1 -9 4 0 6 -11 11 -24 11 l-24 0 21 -55z"/>
</g>
</svg>
