<?xml version="1.0" standalone="no"?>
<!DOCTYPE svg PUBLIC "-//W3C//DTD SVG 20010904//EN"
 "http://www.w3.org/TR/2001/REC-SVG-20010904/DTD/svg10.dtd">
<svg version="1.0" xmlns="http://www.w3.org/2000/svg"
 width="1920.000000pt" height="1080.000000pt" viewBox="0 0 1920.000000 1080.000000"
 preserveAspectRatio="xMidYMid meet">
<metadata>
Created by potrace 1.16, written by Peter Selinger 2001-2019
</metadata>
<g transform="translate(0.000000,1080.000000) scale(0.100000,-0.100000)"
fill="#000000" stroke="none">
<path d="M0 5400 l0 -5400 9600 0 9600 0 0 5400 0 5400 -7000 0 -7000 0 0 -40
c0 -29 -4 -40 -15 -40 -19 0 -21 -76 -2 -83 8 -3 0 -15 -20 -34 -29 -25 -33
-35 -34 -78 -1 -37 -3 -44 -8 -25 l-7 25 -19 -22 c-11 -13 -27 -23 -37 -23
-10 0 -18 -7 -18 -17 0 -22 -42 -63 -64 -63 -9 0 -16 -6 -16 -14 0 -7 -9 -16
-21 -19 -11 -3 -23 -15 -26 -26 -5 -18 -13 -21 -59 -21 l-54 0 0 -40 c0 -33
-7 -47 -40 -80 l-40 -40 0 40 c0 29 -4 40 -15 40 -11 0 -15 -11 -15 -40 0 -36
-2 -40 -25 -40 -20 0 -25 -5 -25 -25 0 -22 -4 -25 -39 -25 l-40 0 3 -52 c2
-29 1 -36 -1 -15 -4 36 -5 37 -44 37 -21 0 -39 5 -39 10 0 13 -47 13 -55 0 -4
-6 -15 -8 -26 -5 -10 4 -50 3 -89 -1 l-70 -7 0 -41 c-1 -41 -1 -41 -15 -16 -8
14 -14 32 -15 41 0 8 -10 26 -22 39 -20 21 -22 22 -28 5 -4 -11 -12 7 -23 53
-9 39 -14 77 -11 86 4 11 -2 17 -21 22 -26 6 -27 9 -23 55 3 27 1 46 -4 43 -7
-5 -9 4 -12 58 -1 10 -7 23 -14 30 -16 16 -15 28 2 28 10 0 16 22 21 80 4 44
10 80 14 80 11 0 71 128 71 151 0 5 -173 9 -390 9 l-390 0 0 -79 c0 -50 4 -81
11 -83 19 -6 -11 -78 -32 -78 -13 0 -18 -11 -21 -46 -3 -38 0 -48 17 -56 23
-12 40 -36 41 -58 1 -8 2 -49 4 -90 3 -67 4 -70 9 -30 l6 45 6 -54 c4 -30 3
-66 -1 -80 -5 -14 -9 -21 -9 -16 -3 23 -21 -23 -21 -53 0 -17 -9 -49 -20 -69
-11 -21 -20 -43 -20 -49 0 -7 -7 -15 -16 -18 -15 -6 -15 -8 1 -25 16 -19 16
-20 -12 -35 -33 -17 -56 -59 -47 -88 3 -10 0 -25 -6 -33 -6 -7 -14 -39 -17
-69 -7 -66 -20 -73 -26 -13 -2 23 -4 1 -4 -50 1 -90 -3 -108 -25 -108 -6 0
-17 -10 -25 -22 -12 -18 -12 -23 -3 -23 26 0 -23 -40 -62 -50 -44 -12 -51 -30
-10 -30 l27 0 -32 -21 c-22 -14 -39 -18 -58 -13 -23 6 -25 8 -11 16 32 18 19
45 -29 57 -25 6 -45 15 -46 19 -5 60 -11 81 -36 116 -16 22 -35 56 -42 73 -7
18 -17 31 -21 28 -11 -7 -20 76 -24 225 -2 89 -7 135 -15 138 -14 5 -15 82 -1
82 6 0 10 18 10 40 0 26 5 40 13 40 9 0 12 11 9 34 -3 30 -1 35 20 39 21 4 21
4 -4 6 -26 1 -28 4 -28 41 0 35 3 40 24 40 21 0 24 6 30 53 3 28 9 64 12 80 4
17 2 27 -5 27 -6 0 -11 -17 -11 -40 0 -29 -4 -40 -15 -40 -19 0 -19 27 1 65 9
18 15 57 16 100 0 38 2 78 5 88 5 21 33 23 33 2 0 -8 6 -15 13 -15 9 0 11 12
9 40 l-4 40 -1469 0 -1469 0 0 -5400z m11948 5262 c2 -15 -2 -22 -12 -22 -24
0 -20 -8 24 -50 22 -21 40 -42 40 -45 0 -4 11 -16 25 -27 14 -11 25 -30 25
-43 0 -12 7 -25 15 -29 10 -3 15 -19 15 -43 0 -27 7 -46 26 -66 24 -27 25 -31
19 -102 -5 -53 -4 -75 4 -75 6 0 11 -17 11 -40 0 -22 5 -40 10 -40 6 0 10 -10
10 -23 0 -12 7 -32 15 -43 10 -15 17 -69 24 -170 5 -82 10 -158 11 -169 0 -11
2 -55 4 -99 2 -53 8 -81 17 -87 12 -8 11 -11 -3 -19 -15 -9 -16 -34 -14 -235
1 -158 6 -229 14 -237 16 -16 15 -38 -2 -38 -10 0 -16 -22 -21 -80 -4 -44 -11
-80 -16 -80 -5 0 -9 -18 -9 -40 0 -36 -2 -40 -25 -40 -16 0 -25 -6 -25 -15 0
-8 -7 -15 -15 -15 -8 0 -15 7 -15 15 0 8 -4 15 -10 15 -5 0 -10 -9 -10 -20 0
-17 -7 -20 -40 -20 -22 0 -40 -5 -40 -11 0 -7 17 -10 45 -7 31 2 45 -1 45 -9
0 -10 -23 -13 -85 -13 -53 0 -85 4 -85 10 0 6 -12 22 -27 35 -24 21 -26 26
-13 35 13 9 13 11 0 20 -27 18 -39 10 -42 -27 l-3 -38 -20 23 c-11 12 -27 22
-36 22 -11 0 -18 12 -23 40 -7 44 -30 54 -40 18 l-6 -23 -15 25 c-20 35 -20
100 1 100 9 0 14 5 12 12 -6 18 -28 21 -28 4 0 -9 -7 -16 -15 -16 -11 0 -15
-11 -15 -40 0 -36 -3 -40 -24 -40 -22 0 -96 57 -96 74 0 3 16 6 35 6 34 0 35
1 35 40 0 40 0 40 -39 40 -37 0 -39 -1 -45 -40 -6 -41 -36 -58 -36 -21 0 11
-4 23 -10 26 -13 8 -13 35 -1 35 5 0 11 -10 14 -22 3 -20 4 -21 11 -6 6 13 0
25 -23 45 -17 15 -31 35 -31 45 0 10 -4 18 -10 18 -6 0 -10 33 -10 80 l0 80
-30 0 c-28 0 -30 2 -30 40 l0 40 40 0 40 0 0 -40 c0 -22 5 -40 10 -40 6 0 10
18 10 40 0 23 -5 40 -11 40 -8 0 -9 24 -4 80 l7 80 -46 0 -46 0 0 40 c0 34 -3
40 -21 40 -16 0 -19 4 -14 18 4 9 10 27 12 40 3 12 9 22 14 22 5 0 9 18 9 40
l0 40 50 0 c37 0 50 4 50 14 0 8 -4 18 -10 21 -5 3 -10 15 -10 26 0 16 -7 19
-40 19 l-40 0 0 40 0 40 40 0 c22 0 40 5 40 10 0 6 7 10 15 10 8 0 15 9 15 20
0 11 -7 20 -15 20 -8 0 -15 5 -15 10 0 6 7 10 15 10 8 0 15 5 15 10 0 6 -7 13
-15 16 -8 4 -15 17 -15 30 0 19 -5 24 -25 24 -28 0 -29 3 -19 99 6 52 10 61
27 61 19 0 20 5 16 118 -3 64 -3 100 -1 80 2 -25 8 -38 18 -38 11 0 14 17 14
80 0 73 2 80 19 80 16 0 21 8 24 43 2 23 4 5 5 -40 l2 -83 30 0 c28 0 30 2 30
40 0 22 5 40 10 40 6 0 10 -7 10 -15 0 -16 9 -19 34 -9 25 9 19 24 -9 24 -14
0 -25 5 -25 10 0 6 -6 10 -14 10 -24 0 -30 21 -7 27 12 3 21 11 21 18 0 15 75
25 93 12 9 -7 9 -10 0 -14 -7 -2 -13 -12 -13 -21 1 -15 2 -15 14 1 7 9 19 17
25 17 24 0 41 29 41 69 l0 41 40 0 c28 0 40 4 40 14 0 10 14 16 43 19 58 5 62
3 65 -21z m3113 -106 c5 -6 9 -18 9 -28 0 -15 9 -18 65 -18 57 0 65 2 65 19 0
25 54 31 338 37 158 4 222 2 222 -6 0 -11 64 -80 75 -80 3 0 5 10 5 21 0 18 2
19 15 9 8 -7 15 -21 15 -31 0 -12 10 -21 25 -25 15 -4 25 -13 25 -24 0 -11 5
-22 10 -25 6 -3 10 -18 10 -32 0 -24 2 -25 40 -20 36 5 40 3 28 -11 -10 -12
-10 -16 0 -19 14 -5 17 -83 2 -83 -5 0 -10 18 -10 40 0 38 -2 40 -30 40 -20 0
-30 5 -30 15 0 8 -4 15 -9 15 -5 0 -12 12 -14 28 -3 19 -4 14 -6 -15 -1 -32 3
-43 14 -43 12 0 15 -15 15 -79 0 -75 1 -80 23 -83 19 -3 13 -12 -55 -80 -68
-68 -82 -78 -113 -78 -19 0 -35 -4 -35 -10 0 -6 -33 -10 -80 -10 -47 0 -80 4
-80 10 0 6 -18 10 -40 10 -22 0 -40 -4 -40 -10 0 -5 -18 -10 -40 -10 -22 0
-40 5 -40 10 0 6 -18 10 -40 10 -37 0 -40 2 -40 26 0 26 -1 26 -50 22 -42 -4
-53 -2 -64 14 -12 17 -25 18 -121 16 -102 -3 -108 -2 -122 20 -9 12 -22 22
-29 22 -8 0 -14 9 -14 20 0 17 -7 20 -40 20 l-40 0 0 40 0 40 -40 0 c-31 0
-40 4 -40 18 -1 16 -1 16 -14 0 -7 -10 -19 -18 -27 -18 -10 1 -8 5 5 15 18 13
18 16 2 40 -14 22 -15 25 -1 25 8 0 15 7 15 15 0 8 5 15 10 15 6 0 10 11 10
25 0 23 -4 25 -41 25 l-42 0 5 -69 c3 -38 1 -75 -3 -83 -5 -7 -9 39 -9 110 l0
122 48 -2 47 -1 -42 -4 c-40 -4 -43 -6 -43 -34 0 -27 2 -29 40 -29 29 0 40 4
40 15 0 8 6 15 14 15 7 0 20 10 28 22 12 18 23 21 66 19 l52 -2 0 36 c0 34 1
35 40 35 l40 0 2 48 c1 47 1 47 5 7 3 -22 9 -44 14 -49z m-2220 4 c27 0 39 -4
39 -14 0 -8 10 -16 23 -18 14 -2 23 -11 25 -25 6 -41 32 -27 32 17 0 47 12 50
45 13 21 -24 26 -26 34 -13 9 13 14 12 33 -8 20 -19 21 -24 8 -32 -13 -9 -13
-11 0 -20 8 -6 24 -8 34 -6 12 3 29 -6 47 -25 17 -18 33 -28 40 -23 8 4 9 3 5
-4 -4 -7 9 -28 30 -48 26 -26 38 -33 44 -24 5 8 10 9 14 2 3 -6 2 -13 -4 -17
-16 -10 -12 -55 5 -55 8 0 15 -4 15 -10 0 -5 11 -10 25 -10 23 0 25 -4 25 -40
0 -29 -4 -40 -15 -40 -11 0 -15 -11 -15 -40 0 -29 4 -40 15 -40 11 0 15 -11
15 -40 0 -33 3 -40 20 -40 11 0 20 -4 20 -10 0 -5 -9 -15 -20 -22 -21 -13 -28
-48 -10 -48 6 0 10 -18 10 -40 0 -29 4 -40 15 -40 11 0 15 -11 15 -40 0 -29 4
-40 15 -40 21 0 19 -27 -5 -57 -12 -16 -20 -41 -20 -64 0 -22 -4 -39 -10 -39
-5 0 -10 18 -10 40 0 36 -2 40 -26 40 l-26 0 6 -132 c3 -73 6 -134 6 -135 1
-11 20 0 20 12 0 9 9 15 24 15 22 0 25 5 29 43 2 23 4 5 5 -40 l2 -83 -30 0
c-28 0 -30 -2 -30 -40 0 -22 -4 -40 -9 -40 -12 0 -22 -112 -14 -180 3 -33 10
-60 16 -60 6 0 7 22 4 60 -4 33 -4 87 0 120 l6 60 38 0 c30 0 39 4 39 17 0 14
3 14 12 5 10 -10 10 -15 -1 -21 -12 -8 -13 -45 -9 -208 3 -109 3 -179 1 -155
-4 42 -5 42 -44 42 l-39 0 0 -80 0 -80 -55 0 c-45 0 -58 -4 -80 -25 -14 -14
-25 -32 -25 -40 0 -9 -10 -15 -23 -15 -13 0 -28 -5 -34 -11 -7 -7 -46 -12 -95
-12 l-83 -1 78 -3 c59 -3 77 -7 77 -18 0 -12 -16 -15 -80 -15 -69 0 -82 3
-100 22 -23 25 -25 35 -8 40 8 3 4 9 -10 17 -12 6 -22 17 -22 24 0 7 -10 17
-22 22 -18 8 -24 20 -26 53 -3 37 -6 42 -28 42 -19 0 -24 5 -24 24 0 13 -9 46
-20 72 -12 26 -18 54 -15 62 3 8 -7 30 -21 50 -23 29 -25 38 -15 54 8 13 9 24
2 31 -15 19 -10 107 6 107 10 0 13 20 13 80 0 73 -2 80 -20 80 -19 0 -20 7
-20 139 0 76 -3 166 -6 200 -5 41 -3 61 4 61 6 0 13 -17 15 -37 2 -21 2 -4 0
37 -3 41 -9 77 -14 78 -5 2 -9 21 -9 43 0 21 -4 39 -10 39 -6 0 -10 33 -10 80
0 47 4 80 10 80 6 0 10 33 10 80 0 103 18 105 23 3 2 -43 3 -32 2 24 -2 79 0
103 11 107 21 8 17 26 -6 26 -17 0 -20 7 -20 40 0 29 4 40 15 40 11 0 15 11
15 35 0 26 7 43 28 62 26 25 27 25 30 4 3 -17 10 -21 43 -21z m-5561 -105 c0
-22 4 -25 40 -25 28 0 40 -4 40 -14 0 -8 -4 -16 -10 -18 -6 -2 -6 -8 0 -18 8
-13 10 -12 10 3 0 10 8 17 19 17 10 0 46 3 80 6 51 6 61 4 61 -9 0 -17 55 -77
71 -77 5 0 9 -18 9 -40 l0 -40 80 0 80 0 40 40 c22 22 40 36 40 30 0 -5 18
-10 40 -10 36 0 40 -2 40 -25 0 -22 -4 -25 -37 -26 -21 0 -47 -5 -58 -10 -17
-8 -17 -9 5 -4 14 2 42 5 63 5 37 0 37 0 37 40 0 29 4 40 15 40 11 0 15 -11
15 -40 0 -22 5 -40 10 -40 6 0 10 18 10 40 0 33 4 40 19 40 10 0 22 10 26 23
l8 22 4 -22 c2 -13 9 -23 14 -23 5 0 9 -50 9 -112 0 -109 13 -216 31 -250 12
-24 11 -118 -1 -118 -5 0 -10 -18 -10 -40 0 -22 5 -40 10 -40 6 0 10 -47 10
-120 0 -100 3 -120 15 -120 12 0 15 -16 15 -80 0 -64 -3 -80 -15 -80 -11 0
-15 -11 -15 -39 0 -22 -5 -41 -12 -43 -8 -3 -12 -39 -12 -118 0 -79 4 -115 12
-118 7 -2 12 -21 12 -43 0 -32 -3 -39 -20 -39 -19 0 -20 -7 -20 -120 0 -73 4
-120 10 -120 6 0 10 33 10 80 0 47 4 80 10 80 6 0 10 -47 10 -120 l0 -120 -25
0 c-22 0 -25 -4 -25 -40 0 -29 4 -40 15 -40 12 0 15 -16 15 -80 0 -47 -4 -80
-10 -80 -5 0 -10 -18 -10 -40 0 -22 -5 -40 -11 -40 -29 0 -63 -74 -39 -82 6
-2 -4 -20 -22 -41 l-34 -37 -97 0 c-90 0 -97 1 -97 20 0 17 -7 20 -40 20 -33
0 -40 -3 -40 -20 0 -18 -7 -20 -80 -20 -47 0 -80 -4 -80 -10 0 -5 6 -10 14
-10 24 0 30 -21 7 -27 -12 -3 -21 -12 -21 -19 0 -10 -13 -14 -40 -14 -28 0
-40 -4 -40 -14 0 -9 -15 -15 -46 -18 -64 -5 -97 25 -92 84 1 26 -2 43 -10 46
-6 2 -12 -1 -12 -7 0 -6 -4 -11 -9 -11 -12 0 -71 59 -71 71 0 5 -4 9 -9 9 -5
0 -16 18 -25 40 -9 22 -23 40 -31 40 -11 0 -15 11 -15 40 0 22 -4 40 -10 40
-5 0 -10 18 -10 40 0 22 -4 40 -10 40 -6 0 -10 33 -10 80 0 73 -2 80 -20 80
-18 0 -20 7 -20 80 0 64 3 80 15 80 11 0 15 11 15 40 0 22 -4 40 -9 40 -5 0
-11 24 -13 52 -5 43 -2 58 14 78 12 14 15 26 9 28 -7 2 -11 59 -11 163 0 90
-4 159 -9 159 -5 0 -11 -6 -14 -12 -2 -7 -2 10 1 37 3 28 9 52 13 53 13 5 11
82 -1 82 -5 0 -10 18 -10 40 0 22 5 40 10 40 6 0 10 33 10 80 0 47 -4 80 -10
80 -5 0 -10 -15 -10 -32 -1 -25 -3 -29 -10 -18 -5 9 -5 46 -1 85 5 39 9 64 10
58 0 -7 6 -13 11 -13 6 0 10 18 10 40 0 30 -4 40 -16 40 -11 0 -14 5 -10 16 3
9 6 45 6 80 0 57 2 64 20 64 18 0 20 7 20 75 0 62 4 80 20 97 11 12 20 32 20
44 0 26 49 125 67 137 7 4 13 17 13 27 0 17 7 20 40 20 36 0 40 -2 40 -25z
m1718 -30 c11 -14 25 -25 31 -25 6 0 11 -9 11 -19 0 -11 5 -23 11 -27 6 -3 10
-32 8 -68 -1 -37 4 -74 13 -96 9 -21 18 -84 22 -160 4 -69 11 -126 16 -128 13
-5 13 -42 0 -42 -5 0 -10 -22 -10 -50 0 -47 12 -66 23 -37 4 7 6 6 6 -5 1 -9
-5 -18 -11 -20 -17 -6 -26 -468 -9 -468 6 0 11 7 11 17 0 9 2 14 5 11 7 -7 18
-240 16 -343 0 -44 -5 -81 -11 -83 -5 -2 -10 -21 -10 -42 0 -21 -4 -40 -9 -42
-5 -1 -12 -38 -16 -80 l-7 -78 32 0 c31 0 32 -1 17 -18 -10 -10 -17 -28 -17
-40 0 -13 -6 -22 -15 -22 -11 0 -15 -11 -15 -40 0 -29 -4 -40 -15 -40 -21 0
-21 -83 0 -100 17 -14 3 -40 -21 -40 -8 0 -14 -4 -14 -10 0 -5 -18 -10 -40
-10 -22 0 -40 4 -40 9 0 12 -59 71 -71 71 -5 0 -9 6 -9 14 0 9 -12 16 -32 18
-18 2 -33 8 -33 13 0 6 15 11 33 13 28 3 32 7 32 32 0 23 -4 27 -20 23 -14 -4
-23 2 -31 21 -7 14 -18 26 -25 26 -23 0 -34 95 -42 360 -9 319 -8 365 8 385
10 13 10 19 -2 33 -11 13 -15 52 -16 180 -1 98 3 162 8 162 6 0 11 -37 12 -82
2 -74 2 -76 5 -23 3 33 -1 98 -7 144 -15 111 -3 361 16 361 8 0 14 -7 14 -16
0 -9 5 -14 12 -12 18 6 21 28 4 28 -13 0 -16 12 -16 65 0 50 3 65 14 65 26 0
46 30 46 71 0 33 -3 39 -21 39 -20 0 -20 1 -6 23 8 12 22 21 31 19 10 -2 16 4
16 18 0 17 6 20 40 20 36 0 40 3 40 25 0 14 4 25 9 25 5 0 18 -11 29 -25z
m-5934 -1446 c3 -34 6 -88 6 -120 0 -56 1 -59 25 -59 24 0 25 -2 25 -63 0 -49
4 -68 20 -85 12 -13 20 -35 20 -56 0 -19 6 -37 13 -40 10 -5 10 -7 0 -12 -7
-3 -13 -10 -13 -15 0 -6 8 -5 20 1 17 9 20 8 20 -10 0 -11 -7 -20 -15 -20 -25
0 -145 -42 -145 -51 0 -5 -12 -9 -26 -9 -42 0 -158 22 -171 33 -28 21 -11 138
24 175 7 7 13 27 13 43 0 22 5 29 20 29 17 0 20 7 20 40 0 22 5 40 10 40 6 0
10 18 10 40 0 22 5 40 10 40 6 0 10 18 10 40 0 36 3 40 25 40 23 0 25 4 25 40
0 35 3 40 24 40 21 0 24 -5 30 -61z m2556 -6011 c43 -1 47 -2 18 -5 -49 -5
-50 -28 -2 -36 20 -3 42 -14 49 -24 10 -13 31 -18 87 -21 73 -4 75 -5 70 -28
-3 -17 0 -24 12 -24 9 0 19 -7 22 -15 7 -18 65 -20 95 -5 13 7 25 8 37 1 9 -6
11 -11 5 -11 -7 0 -13 -8 -13 -19 0 -16 5 -17 43 -10 47 8 117 -8 117 -28 0
-7 18 -16 40 -19 22 -4 40 -12 40 -19 0 -13 30 -25 67 -25 16 0 20 -5 16 -19
-4 -15 -16 -21 -47 -24 -29 -2 -21 -4 26 -5 36 -1 73 -5 82 -8 28 -11 17 -24
-18 -24 -19 0 -38 -5 -42 -11 -5 -9 -63 -11 -208 -7 -111 3 -182 3 -158 1 83
-8 40 -21 -90 -27 -73 -3 -163 -8 -200 -12 -50 -5 -68 -3 -68 6 0 14 -144 9
-202 -7 -32 -9 -38 -8 -38 4 0 12 -13 14 -72 9 -40 -3 -94 -8 -120 -11 -32 -5
-48 -3 -48 4 0 6 11 11 25 11 23 0 25 4 25 41 0 39 -1 41 -28 37 -27 -4 -28
-3 -25 42 1 25 2 62 2 83 l1 37 55 0 c30 0 65 6 76 13 17 10 23 10 26 0 3 -8
22 -13 44 -13 39 0 39 0 39 40 l0 40 41 0 41 0 -2 43 c-1 23 -1 46 -1 50 1 5
29 6 64 3 34 -3 87 -7 117 -8z m1420 -783 c0 -12 16 -15 80 -15 67 0 80 3 80
16 0 12 5 15 23 9 12 -4 31 -7 42 -6 11 0 197 3 414 7 323 5 395 3 402 -8 10
-16 335 -25 379 -9 21 7 30 6 34 -2 3 -9 8 -8 15 3 10 13 12 13 21 0 8 -12 12
-12 18 -2 6 9 32 11 96 8 49 -3 91 -8 94 -11 10 -10 142 -5 142 5 0 13 77 13
82 1 5 -14 174 -16 170 -2 -1 6 11 11 28 11 17 0 29 -5 28 -11 -4 -13 326 -12
330 1 6 16 22 11 22 -6 0 -11 5 -14 18 -9 9 4 60 7 112 6 52 -1 199 5 325 14
127 8 233 15 238 15 4 0 7 -7 7 -15 0 -11 11 -15 40 -15 22 0 40 5 40 10 0 6
33 10 80 10 44 0 80 -4 80 -8 0 -4 90 -9 200 -10 173 -2 200 0 200 13 0 11 11
15 39 15 22 0 41 -5 43 -10 2 -6 52 -12 118 -14 63 -2 80 -1 38 1 -43 2 -78 8
-78 13 0 6 64 10 160 10 93 0 160 -4 160 -9 0 -6 -19 -11 -42 -14 -24 -2 2 -2
57 -1 55 1 115 8 133 14 25 9 55 10 125 1 109 -13 187 -13 205 2 8 7 50 7 125
2 62 -5 135 -8 162 -8 28 0 99 -4 159 -10 84 -8 110 -7 116 3 9 14 160 4 160
-11 0 -5 18 -9 40 -9 33 0 40 3 40 20 0 25 9 25 26 3 13 -17 15 -17 28 0 17
22 26 22 26 -2 0 -11 5 -21 11 -23 7 -2 9 -13 4 -27 -5 -16 -10 -20 -15 -12
-5 10 -34 10 -121 3 -75 -6 -116 -6 -120 0 -4 6 -34 8 -77 3 -64 -6 -73 -5
-93 14 -13 12 -28 21 -33 20 -6 0 -5 -3 2 -6 13 -5 17 -32 5 -34 -5 0 -19 -2
-32 -3 -33 -4 -53 -34 -45 -69 5 -26 4 -28 -15 -22 -16 5 -21 2 -21 -12 -1
-17 -1 -17 -11 -1 -7 12 -6 24 1 37 14 27 13 36 -5 21 -8 -6 -19 -9 -26 -5 -8
5 -8 10 -1 14 7 4 7 12 3 20 -7 11 -65 14 -287 15 -316 1 -330 -1 -321 -59 5
-29 2 -34 -19 -39 -32 -8 -41 -2 -49 35 -6 24 -10 29 -27 23 -13 -4 -18 -2
-14 4 9 15 -22 35 -46 29 -12 -4 -106 -1 -208 5 -194 12 -290 6 -314 -18 -8
-8 -18 -14 -23 -14 -5 0 -8 -17 -6 -37 1 -21 0 -30 -3 -20 -6 18 -7 18 -20 -2
-21 -30 -27 -27 -47 23 -13 31 -23 43 -33 39 -8 -3 -22 1 -31 8 -12 11 -71 15
-256 16 -234 3 -298 -2 -298 -22 0 -6 -7 -13 -14 -18 -8 -4 -12 -14 -8 -22 3
-9 -1 -22 -8 -31 -12 -14 -14 -14 -20 3 -7 16 -8 16 -8 1 -1 -10 -6 -18 -12
-18 -8 0 -9 13 -5 40 5 33 3 40 -11 40 -9 0 -25 8 -36 18 -16 14 -37 17 -133
15 -63 -1 -114 2 -114 5 0 11 -293 2 -307 -10 -7 -6 -13 -16 -13 -23 0 -7 -7
-15 -15 -19 -8 -3 -15 -15 -15 -26 0 -12 -4 -18 -10 -15 -6 4 -18 1 -26 -6
-12 -10 -17 -8 -29 7 -19 25 -19 38 -1 31 9 -4 13 -1 10 7 -9 23 -62 46 -108
46 -28 0 -46 5 -46 11 0 9 -18 10 -62 5 -35 -4 -119 -8 -188 -10 -123 -3 -216
-19 -205 -35 2 -5 -4 -11 -15 -14 -11 -3 -20 -14 -20 -24 0 -11 -3 -22 -6 -25
-12 -13 -41 5 -52 34 -8 22 -16 29 -27 24 -9 -3 -13 -2 -10 4 12 19 -66 40
-144 38 l-76 -2 80 -7 c60 -5 51 -5 -35 -2 -173 7 -282 3 -315 -11 -16 -8 -40
-14 -53 -14 -26 -1 -54 -20 -47 -32 2 -4 -6 -17 -20 -30 -29 -27 -55 -20 -55
14 0 14 -7 31 -15 39 -18 19 -86 32 -94 18 -5 -7 -68 -7 -201 -1 -125 6 -196
6 -198 0 -2 -6 -12 -10 -22 -10 -10 0 -22 -5 -26 -11 -4 -8 -9 -7 -15 2 -8 12
-11 11 -20 -1 -8 -11 -12 -12 -16 -2 -9 24 -22 11 -39 -40 -18 -52 -18 -52
-25 -23 -4 17 -7 22 -8 13 0 -10 -5 -18 -11 -18 -13 0 -13 36 0 61 7 13 7 19
0 19 -5 0 -10 -4 -10 -10 0 -19 -18 -10 -23 11 -6 21 -10 22 -87 15 -45 -4
-97 -2 -118 3 -20 5 -101 11 -180 13 -125 3 -145 1 -156 -14 -6 -9 -25 -18
-41 -20 -25 -2 -31 -9 -38 -40 -5 -22 -15 -38 -23 -38 -8 0 -14 4 -14 10 0 5
-8 7 -17 4 -11 -4 -14 -3 -7 3 18 14 10 74 -11 86 -23 13 -519 15 -577 3 -35
-8 -37 -10 -32 -40 4 -24 3 -27 -5 -16 -8 12 -11 8 -11 -17 0 -17 -4 -35 -10
-38 -6 -4 -10 7 -10 24 0 38 -17 41 -23 4 -3 -19 -5 -13 -6 17 -3 83 7 80
-293 80 -332 0 -339 -2 -381 -113 -11 -29 -20 -62 -21 -74 -1 -17 -5 -21 -19
-17 -16 5 -18 2 -12 -16 5 -15 4 -20 -4 -16 -7 4 -17 -16 -28 -55 -9 -33 -23
-63 -30 -66 -7 -3 -13 -10 -13 -15 0 -5 -9 -23 -21 -39 -11 -16 -15 -29 -9
-29 8 0 8 -6 0 -20 -6 -11 -17 -20 -25 -20 -9 0 -16 -16 -21 -45 -3 -25 -10
-45 -15 -45 -5 0 -9 -12 -9 -27 0 -22 -2 -25 -10 -13 -8 12 -13 13 -29 3 -27
-17 -37 1 -13 25 13 13 16 25 11 40 -10 26 8 72 28 72 7 0 13 -11 13 -27 0
-36 7 -26 11 17 3 29 1 34 -14 32 -9 -2 -17 2 -17 8 0 6 5 8 10 5 6 -4 10 5
10 19 0 14 4 26 9 26 5 0 12 14 16 30 4 17 10 30 15 30 5 0 12 10 16 23 l8 22
6 -25 c5 -20 8 -16 14 27 6 37 14 56 31 69 13 10 21 22 18 26 -9 16 7 59 19
52 8 -5 9 -2 5 10 -4 10 1 23 13 33 11 10 20 27 20 40 0 12 4 25 10 28 5 3 14
20 18 38 5 18 15 31 22 29 6 -1 18 2 24 8 7 5 16 7 19 3 4 -3 13 0 22 7 12 10
15 10 15 0 0 -9 57 -12 243 -10 133 1 418 2 632 2 496 -1 702 4 740 16 17 6
56 11 88 11 44 1 57 -2 57 -14z m6078 -6 c2 -5 21 -9 43 -9 28 0 39 4 39 15 0
18 16 19 132 4 84 -11 121 -29 58 -29 -16 0 -30 -5 -30 -11 0 -8 -24 -9 -80
-4 -54 5 -80 4 -80 -3 0 -6 19 -13 43 -15 23 -2 -13 -4 -80 -5 -77 -1 -123 2
-123 8 0 6 -11 10 -25 10 -14 0 -25 -5 -25 -11 0 -5 -8 -9 -17 -8 -21 3 -62
-9 -64 -19 -1 -4 -3 -20 -4 -37 -2 -16 -3 -34 -4 -38 -1 -5 -6 -5 -11 -2 -6 4
-8 16 -4 27 3 11 2 18 -2 15 -5 -2 -20 -1 -33 4 -19 8 -21 12 -11 24 15 18 3
42 -13 26 -16 -16 -54 -13 -61 5 -8 20 1 34 20 34 8 0 14 5 14 10 0 6 33 10
80 10 52 0 80 4 80 11 0 14 153 2 158 -12z m482 1 c0 -15 157 -13 162 2 3 8
32 8 118 -2 86 -10 115 -10 118 -2 5 15 82 16 82 1 0 -8 24 -9 80 -4 56 5 80
4 80 -4 0 -6 9 -11 19 -11 18 0 31 -18 31 -45 0 -22 -26 -24 -56 -3 -25 17
-26 19 -7 15 13 -3 25 -2 28 3 6 10 -72 20 -106 13 -17 -3 -36 1 -50 11 -31
21 -99 22 -99 1 0 -19 -76 -21 -82 -3 -3 9 -12 9 -37 -2 -26 -10 -34 -11 -41
-1 -10 17 -155 4 -171 -15 -6 -8 -22 -14 -35 -14 -29 0 -69 -31 -53 -41 13 -7
3 -49 -11 -49 -6 0 -13 12 -16 28 -13 50 -36 71 -76 72 -27 0 -38 4 -38 15 0
11 11 15 40 15 53 0 51 18 -2 23 -24 2 -6 4 40 5 49 1 82 -2 82 -8z m2630
-267 c0 -8 -14 -13 -32 -14 -18 -1 -25 -3 -15 -6 9 -2 17 -8 17 -13 0 -15 -27
-18 -68 -7 -23 6 -44 8 -48 4 -14 -14 7 -36 40 -43 37 -6 47 -21 21 -29 -8 -3
-23 -8 -32 -12 -10 -3 -28 -8 -40 -9 -12 -2 -30 -7 -40 -12 -28 -15 -190 -35
-221 -27 -65 15 -107 45 -64 45 9 0 31 7 47 16 17 9 62 24 100 34 50 13 65 20
52 25 -10 4 -41 0 -71 -9 -29 -9 -73 -18 -99 -19 -49 -2 -54 -6 -35 -25 9 -9
5 -9 -14 0 -15 7 -24 16 -22 20 3 5 -2 8 -11 8 -9 0 -13 5 -10 11 4 6 0 9 -8
7 -17 -3 -20 4 -11 26 5 14 75 33 139 39 17 1 119 2 227 2 152 0 198 -3 198
-12z m243 -210 c-10 -8 -50 -13 -105 -13 -48 0 -88 -4 -88 -8 0 -12 -120 -31
-157 -25 -21 3 -33 1 -33 -6 0 -6 -13 -11 -29 -11 -28 0 -78 -13 -116 -31 -11
-5 -32 -10 -47 -11 -16 -1 -28 -7 -28 -12 0 -6 -5 -5 -12 2 -15 15 -6 24 31
27 17 1 37 8 45 14 8 7 20 10 25 6 6 -3 21 1 33 8 30 19 117 47 193 63 82 17
312 14 288 -3z m-8560 -414 c-3 -11 0 -19 6 -19 7 0 9 5 5 12 -5 8 -2 9 10 5
10 -4 19 -1 22 8 9 21 20 18 20 -5 0 -11 -3 -20 -6 -20 -3 0 -6 -30 -8 -68 -2
-37 -8 -71 -13 -76 -5 -6 -9 -15 -9 -20 0 -6 5 -4 10 4 8 12 10 11 10 -5 0
-12 -4 -25 -9 -30 -14 -14 -43 -193 -36 -215 4 -11 12 -17 21 -13 7 3 14 0 14
-6 0 -6 -10 -12 -22 -12 -13 -1 -5 -5 17 -8 45 -8 3480 -6 3535 1 21 3 23 3 5
0 -26 -5 -24 -7 20 -12 28 -4 -806 -7 -1853 -8 -1274 -1 -1901 2 -1897 9 4 5
15 7 26 4 11 -4 19 -2 19 5 0 7 9 9 23 6 16 -4 15 -3 -5 7 -25 12 -26 13 -9
24 20 12 27 42 45 174 5 35 3 49 -9 59 -15 12 -14 16 8 36 22 21 35 75 41 170
0 12 6 19 12 17 7 -2 10 -13 7 -24z m3710 -11 c-2 -42 -2 -43 6 -8 9 41 13 34
36 -60 9 -36 24 -73 33 -83 13 -14 14 -22 5 -36 -8 -13 -9 -31 -2 -57 5 -22
12 -64 15 -94 4 -30 13 -61 21 -68 8 -8 11 -17 8 -20 -3 -3 -11 0 -17 6 -14
14 -28 16 -28 3 0 -8 37 -24 53 -22 9 1 9 -11 -1 -26 -5 -9 -36 -12 -96 -11
-69 2 -84 4 -72 13 9 7 12 16 8 21 -4 5 2 1 14 -9 11 -9 27 -17 35 -17 8 0 4
7 -10 16 l-23 16 24 12 c14 8 22 19 20 32 -1 10 -4 30 -6 44 -2 14 -6 32 -9
40 -3 8 -8 32 -12 53 -3 21 -15 47 -26 58 -21 21 -24 40 -10 55 6 5 4 29 -4
60 -7 29 -15 65 -17 80 -3 25 0 29 20 26 12 -2 22 2 22 7 0 6 3 11 8 11 4 0 7
-19 5 -42z m-6179 -216 c-7 -2 -12 -12 -11 -22 1 -19 2 -19 24 2 12 12 25 29
29 40 3 10 12 18 20 18 12 0 11 -6 -5 -29 -11 -15 -18 -31 -15 -34 3 -3 -3
-20 -12 -39 -10 -18 -17 -37 -16 -41 1 -4 -5 -21 -13 -38 -9 -16 -13 -34 -9
-40 4 -8 -8 -10 -40 -8 -27 3 -46 0 -46 -6 0 -6 23 -9 57 -7 32 2 56 2 53 -1
-8 -8 -119 -11 -127 -4 -3 4 0 15 8 24 19 23 48 86 94 208 l7 20 8 -20 c5 -13
3 -21 -6 -23z m7142 -2 c7 0 17 -12 22 -27 6 -16 11 -21 11 -11 2 27 -10 48
-28 49 -12 0 -11 2 4 8 14 6 23 3 31 -8 16 -25 34 -93 27 -104 -3 -6 -1 -7 5
-3 8 5 12 -2 12 -21 0 -15 9 -43 20 -60 22 -37 11 -45 -14 -10 -9 12 -14 16
-10 8 5 -11 3 -13 -9 -8 -10 3 -17 2 -17 -2 0 -5 6 -11 13 -14 6 -2 9 -8 4
-12 -11 -13 -43 26 -57 71 -7 21 -18 55 -25 74 -7 19 -15 53 -18 75 -6 34 -5
37 5 18 6 -13 17 -23 24 -23z m727 23 c-5 -12 -2 -15 10 -10 20 8 22 -3 5 -22
-11 -11 -10 -13 4 -8 13 4 15 2 11 -10 -4 -11 -2 -14 8 -11 8 3 13 12 11 22
-4 23 43 21 69 -2 20 -19 18 -49 -5 -64 -11 -8 11 -83 31 -104 17 -16 16 -21
-3 -28 -8 -3 -13 -2 -9 3 8 14 -5 41 -21 41 -7 0 -11 6 -8 14 4 11 0 13 -18
10 -22 -5 -22 -5 -4 10 11 9 18 17 15 18 -43 27 -46 27 -41 0 3 -15 10 -33 15
-41 15 -18 18 -41 6 -41 -6 0 -7 -4 -4 -10 3 -5 1 -10 -4 -10 -6 0 -11 4 -11
10 0 5 -8 7 -17 3 -16 -5 -15 -4 1 9 18 14 18 16 1 64 -24 68 -43 114 -59 144
-11 23 -11 26 5 27 13 1 16 -3 12 -14z m-6360 -29 c2 -13 0 -24 -5 -24 -5 0
-6 -5 -3 -10 12 -19 25 0 21 30 -3 24 0 30 15 30 23 0 23 3 -1 -95 -29 -115
-33 -145 -20 -145 6 0 8 4 5 10 -3 5 0 7 9 4 8 -3 12 -12 10 -19 -4 -8 3 -15
18 -17 13 -2 -5 -8 -40 -12 -47 -6 -67 -5 -79 5 -12 10 -15 10 -9 2 8 -14 -15
-19 -27 -6 -16 15 16 31 51 26 25 -3 33 -2 23 5 -9 6 -11 20 -7 43 l6 34 -13
-34 c-10 -27 -19 -35 -43 -37 -27 -3 -28 -2 -10 11 19 15 41 79 59 177 11 58
31 70 40 22z"/>
</g>
</svg>
